<mxfile host="Electron" agent="Mozilla/5.0 (Windows NT 10.0; Win64; x64) AppleWebKit/537.36 (KHTML, like Gecko) draw.io/24.7.17 Chrome/128.0.6613.36 Electron/32.0.1 Safari/537.36" version="24.7.17" pages="9">
  <diagram name="Copy of Page-1" id="WJQ5kO8EqMigybF5Xzhi">
    <mxGraphModel dx="1035" dy="673" grid="1" gridSize="10" guides="1" tooltips="1" connect="1" arrows="1" fold="1" page="1" pageScale="1" pageWidth="827" pageHeight="1169" math="0" shadow="0">
      <root>
        <mxCell id="-Vg7Qh3w8EWQ6ZvNK3pH-0" />
        <mxCell id="-Vg7Qh3w8EWQ6ZvNK3pH-1" parent="-Vg7Qh3w8EWQ6ZvNK3pH-0" />
        <mxCell id="-Vg7Qh3w8EWQ6ZvNK3pH-2" style="edgeStyle=orthogonalEdgeStyle;rounded=1;orthogonalLoop=1;jettySize=auto;html=1;exitX=1;exitY=0.5;exitDx=0;exitDy=0;" edge="1" parent="-Vg7Qh3w8EWQ6ZvNK3pH-1" source="-Vg7Qh3w8EWQ6ZvNK3pH-6" target="-Vg7Qh3w8EWQ6ZvNK3pH-7">
          <mxGeometry relative="1" as="geometry" />
        </mxCell>
        <mxCell id="-Vg7Qh3w8EWQ6ZvNK3pH-3" style="edgeStyle=orthogonalEdgeStyle;rounded=1;orthogonalLoop=1;jettySize=auto;html=1;exitX=1;exitY=0;exitDx=0;exitDy=0;entryX=0;entryY=0.5;entryDx=0;entryDy=0;" edge="1" parent="-Vg7Qh3w8EWQ6ZvNK3pH-1" source="-Vg7Qh3w8EWQ6ZvNK3pH-6" target="-Vg7Qh3w8EWQ6ZvNK3pH-8">
          <mxGeometry relative="1" as="geometry" />
        </mxCell>
        <mxCell id="-Vg7Qh3w8EWQ6ZvNK3pH-4" style="edgeStyle=orthogonalEdgeStyle;rounded=1;orthogonalLoop=1;jettySize=auto;html=1;exitX=0;exitY=0.5;exitDx=0;exitDy=0;entryX=1;entryY=0.5;entryDx=0;entryDy=0;" edge="1" parent="-Vg7Qh3w8EWQ6ZvNK3pH-1" source="-Vg7Qh3w8EWQ6ZvNK3pH-6" target="-Vg7Qh3w8EWQ6ZvNK3pH-74">
          <mxGeometry relative="1" as="geometry">
            <mxPoint x="289" y="200" as="targetPoint" />
          </mxGeometry>
        </mxCell>
        <mxCell id="-Vg7Qh3w8EWQ6ZvNK3pH-5" style="edgeStyle=orthogonalEdgeStyle;rounded=1;orthogonalLoop=1;jettySize=auto;html=1;exitX=0.25;exitY=1;exitDx=0;exitDy=0;entryX=0.5;entryY=0;entryDx=0;entryDy=0;" edge="1" parent="-Vg7Qh3w8EWQ6ZvNK3pH-1" source="-Vg7Qh3w8EWQ6ZvNK3pH-6" target="-Vg7Qh3w8EWQ6ZvNK3pH-52">
          <mxGeometry relative="1" as="geometry">
            <mxPoint x="319" y="240" as="targetPoint" />
          </mxGeometry>
        </mxCell>
        <mxCell id="-Vg7Qh3w8EWQ6ZvNK3pH-6" value="&lt;b&gt;&lt;font style=&quot;font-size: 16px;&quot;&gt;Students&lt;/font&gt;&lt;/b&gt;" style="rounded=1;arcSize=10;whiteSpace=wrap;html=1;align=center;" vertex="1" parent="-Vg7Qh3w8EWQ6ZvNK3pH-1">
          <mxGeometry x="329" y="160" width="100" height="40" as="geometry" />
        </mxCell>
        <mxCell id="-Vg7Qh3w8EWQ6ZvNK3pH-7" value="StudentID" style="ellipse;whiteSpace=wrap;html=1;align=center;fontStyle=4;rounded=1;" vertex="1" parent="-Vg7Qh3w8EWQ6ZvNK3pH-1">
          <mxGeometry x="479" y="160" width="120" height="40" as="geometry" />
        </mxCell>
        <mxCell id="-Vg7Qh3w8EWQ6ZvNK3pH-8" value="name" style="ellipse;whiteSpace=wrap;html=1;align=center;rounded=1;" vertex="1" parent="-Vg7Qh3w8EWQ6ZvNK3pH-1">
          <mxGeometry x="449" y="110" width="100" height="40" as="geometry" />
        </mxCell>
        <mxCell id="-Vg7Qh3w8EWQ6ZvNK3pH-9" value="&lt;b&gt;Note:&lt;/b&gt;&lt;div&gt;It could be here Siting number&lt;/div&gt;" style="shape=note;size=20;whiteSpace=wrap;html=1;align=left;rounded=1;" vertex="1" parent="-Vg7Qh3w8EWQ6ZvNK3pH-1">
          <mxGeometry x="629" y="40" width="100" height="100" as="geometry" />
        </mxCell>
        <mxCell id="-Vg7Qh3w8EWQ6ZvNK3pH-10" style="edgeStyle=orthogonalEdgeStyle;rounded=1;orthogonalLoop=1;jettySize=auto;html=1;exitX=1;exitY=0;exitDx=0;exitDy=0;entryX=0;entryY=0.5;entryDx=0;entryDy=0;entryPerimeter=0;" edge="1" parent="-Vg7Qh3w8EWQ6ZvNK3pH-1" source="-Vg7Qh3w8EWQ6ZvNK3pH-7" target="-Vg7Qh3w8EWQ6ZvNK3pH-9">
          <mxGeometry relative="1" as="geometry">
            <mxPoint x="579.0000000000041" y="170" as="sourcePoint" />
          </mxGeometry>
        </mxCell>
        <mxCell id="-Vg7Qh3w8EWQ6ZvNK3pH-11" style="edgeStyle=orthogonalEdgeStyle;rounded=1;orthogonalLoop=1;jettySize=auto;html=1;exitX=0;exitY=0.5;exitDx=0;exitDy=0;entryX=1;entryY=0.5;entryDx=0;entryDy=0;" edge="1" parent="-Vg7Qh3w8EWQ6ZvNK3pH-1" source="-Vg7Qh3w8EWQ6ZvNK3pH-74" target="-Vg7Qh3w8EWQ6ZvNK3pH-12">
          <mxGeometry relative="1" as="geometry">
            <mxPoint x="239" y="220" as="sourcePoint" />
            <Array as="points">
              <mxPoint x="140" y="200" />
              <mxPoint x="140" y="200" />
            </Array>
          </mxGeometry>
        </mxCell>
        <mxCell id="-Vg7Qh3w8EWQ6ZvNK3pH-12" value="The Year" style="ellipse;whiteSpace=wrap;html=1;align=center;rounded=1;" vertex="1" parent="-Vg7Qh3w8EWQ6ZvNK3pH-1">
          <mxGeometry x="50" y="180" width="100" height="40" as="geometry" />
        </mxCell>
        <mxCell id="-Vg7Qh3w8EWQ6ZvNK3pH-13" style="edgeStyle=orthogonalEdgeStyle;rounded=1;orthogonalLoop=1;jettySize=auto;html=1;exitX=1;exitY=1;exitDx=0;exitDy=0;entryX=0;entryY=0.5;entryDx=0;entryDy=0;entryPerimeter=0;" edge="1" parent="-Vg7Qh3w8EWQ6ZvNK3pH-1" source="-Vg7Qh3w8EWQ6ZvNK3pH-65" target="-Vg7Qh3w8EWQ6ZvNK3pH-17">
          <mxGeometry relative="1" as="geometry">
            <mxPoint x="524.5735931288071" y="254.14213562373084" as="sourcePoint" />
            <mxPoint x="637.5" y="340" as="targetPoint" />
            <Array as="points">
              <mxPoint x="628" y="260" />
            </Array>
          </mxGeometry>
        </mxCell>
        <mxCell id="-Vg7Qh3w8EWQ6ZvNK3pH-14" style="edgeStyle=orthogonalEdgeStyle;rounded=1;orthogonalLoop=1;jettySize=auto;html=1;exitX=1;exitY=0.5;exitDx=0;exitDy=0;entryX=0;entryY=0.5;entryDx=0;entryDy=0;" edge="1" parent="-Vg7Qh3w8EWQ6ZvNK3pH-1" source="-Vg7Qh3w8EWQ6ZvNK3pH-65" target="-Vg7Qh3w8EWQ6ZvNK3pH-18">
          <mxGeometry relative="1" as="geometry">
            <Array as="points">
              <mxPoint x="650" y="240" />
              <mxPoint x="650" y="280" />
            </Array>
            <mxPoint x="567" y="260" as="sourcePoint" />
          </mxGeometry>
        </mxCell>
        <mxCell id="-Vg7Qh3w8EWQ6ZvNK3pH-15" style="edgeStyle=orthogonalEdgeStyle;rounded=1;orthogonalLoop=1;jettySize=auto;html=1;exitX=1;exitY=0;exitDx=0;exitDy=0;entryX=0;entryY=0.5;entryDx=0;entryDy=0;" edge="1" parent="-Vg7Qh3w8EWQ6ZvNK3pH-1" source="-Vg7Qh3w8EWQ6ZvNK3pH-65" target="-Vg7Qh3w8EWQ6ZvNK3pH-19">
          <mxGeometry relative="1" as="geometry">
            <mxPoint x="609.4264068711929" y="254.14213562373095" as="sourcePoint" />
            <Array as="points">
              <mxPoint x="617" y="230" />
            </Array>
          </mxGeometry>
        </mxCell>
        <mxCell id="-Vg7Qh3w8EWQ6ZvNK3pH-16" style="edgeStyle=orthogonalEdgeStyle;rounded=1;orthogonalLoop=1;jettySize=auto;html=1;exitX=1;exitY=0;exitDx=0;exitDy=0;" edge="1" parent="-Vg7Qh3w8EWQ6ZvNK3pH-1" source="-Vg7Qh3w8EWQ6ZvNK3pH-65" target="-Vg7Qh3w8EWQ6ZvNK3pH-20">
          <mxGeometry relative="1" as="geometry">
            <mxPoint x="627" y="240" as="sourcePoint" />
            <Array as="points">
              <mxPoint x="640" y="220" />
              <mxPoint x="640" y="200" />
              <mxPoint x="709" y="200" />
            </Array>
          </mxGeometry>
        </mxCell>
        <mxCell id="-Vg7Qh3w8EWQ6ZvNK3pH-17" value="HighSchoolCertificate" style="ellipse;whiteSpace=wrap;html=1;align=center;rounded=1;" vertex="1" parent="-Vg7Qh3w8EWQ6ZvNK3pH-1">
          <mxGeometry x="640" y="310" width="140" height="40" as="geometry" />
        </mxCell>
        <mxCell id="-Vg7Qh3w8EWQ6ZvNK3pH-18" value="TrueCopy&lt;span style=&quot;color: rgba(0, 0, 0, 0); font-family: monospace; font-size: 0px; text-align: start; text-wrap: nowrap;&quot;&gt;%3CmxGraphModel%3E%3Croot%3E%3CmxCell%20id%3D%220%22%2F%3E%3CmxCell%20id%3D%221%22%20parent%3D%220%22%2F%3E%3CmxCell%20id%3D%222%22%20value%3D%22grades%22%20style%3D%22ellipse%3Bshape%3DdoubleEllipse%3Bmargin%3D3%3BwhiteSpace%3Dwrap%3Bhtml%3D1%3Balign%3Dcenter%3B%22%20vertex%3D%221%22%20parent%3D%221%22%3E%3CmxGeometry%20x%3D%22200%22%20y%3D%22180%22%20width%3D%22100%22%20height%3D%2240%22%20as%3D%22geometry%22%2F%3E%3C%2FmxCell%3E%3C%2Froot%3E%3C%2FmxGraphModel%3E&lt;/span&gt;" style="ellipse;whiteSpace=wrap;html=1;align=center;rounded=1;" vertex="1" parent="-Vg7Qh3w8EWQ6ZvNK3pH-1">
          <mxGeometry x="677" y="260" width="100" height="40" as="geometry" />
        </mxCell>
        <mxCell id="-Vg7Qh3w8EWQ6ZvNK3pH-19" value="personalPhoto&lt;span style=&quot;color: rgba(0, 0, 0, 0); font-family: monospace; font-size: 0px; text-align: start; text-wrap: nowrap;&quot;&gt;%3CmxGraphModel%3E%3Croot%3E%3CmxCell%20id%3D%220%22%2F%3E%3CmxCell%20id%3D%221%22%20parent%3D%220%22%2F%3E%3CmxCell%20id%3D%222%22%20value%3D%22grades%22%20style%3D%22ellipse%3Bshape%3DdoubleEllipse%3Bmargin%3D3%3BwhiteSpace%3Dwrap%3Bhtml%3D1%3Balign%3Dcenter%3B%22%20vertex%3D%221%22%20parent%3D%221%22%3E%3CmxGeometry%20x%3D%22200%22%20y%3D%22180%22%20width%3D%22100%22%20height%3D%2240%22%20as%3D%22geometry%22%2F%3E%3C%2FmxCell%3E%3C%2Froot%3E%3C%2FmxGraphModel%3E&lt;/span&gt;" style="ellipse;whiteSpace=wrap;html=1;align=center;rounded=1;" vertex="1" parent="-Vg7Qh3w8EWQ6ZvNK3pH-1">
          <mxGeometry x="657.5" y="210" width="100" height="40" as="geometry" />
        </mxCell>
        <mxCell id="-Vg7Qh3w8EWQ6ZvNK3pH-20" value="photoForProofDocuments" style="ellipse;whiteSpace=wrap;html=1;align=center;rounded=1;" vertex="1" parent="-Vg7Qh3w8EWQ6ZvNK3pH-1">
          <mxGeometry x="617" y="150" width="160" height="40" as="geometry" />
        </mxCell>
        <mxCell id="-Vg7Qh3w8EWQ6ZvNK3pH-21" style="edgeStyle=orthogonalEdgeStyle;rounded=1;orthogonalLoop=1;jettySize=auto;html=1;exitX=0;exitY=0;exitDx=0;exitDy=0;entryX=1;entryY=0.5;entryDx=0;entryDy=0;" edge="1" parent="-Vg7Qh3w8EWQ6ZvNK3pH-1" source="-Vg7Qh3w8EWQ6ZvNK3pH-26" target="-Vg7Qh3w8EWQ6ZvNK3pH-28">
          <mxGeometry relative="1" as="geometry" />
        </mxCell>
        <mxCell id="-Vg7Qh3w8EWQ6ZvNK3pH-22" style="edgeStyle=orthogonalEdgeStyle;rounded=1;orthogonalLoop=1;jettySize=auto;html=1;exitX=0;exitY=1;exitDx=0;exitDy=0;entryX=1;entryY=0;entryDx=0;entryDy=0;" edge="1" parent="-Vg7Qh3w8EWQ6ZvNK3pH-1" source="-Vg7Qh3w8EWQ6ZvNK3pH-26" target="-Vg7Qh3w8EWQ6ZvNK3pH-29">
          <mxGeometry relative="1" as="geometry" />
        </mxCell>
        <mxCell id="-Vg7Qh3w8EWQ6ZvNK3pH-23" style="edgeStyle=orthogonalEdgeStyle;rounded=1;orthogonalLoop=1;jettySize=auto;html=1;exitX=0;exitY=0.5;exitDx=0;exitDy=0;entryX=1;entryY=0.5;entryDx=0;entryDy=0;" edge="1" parent="-Vg7Qh3w8EWQ6ZvNK3pH-1" source="-Vg7Qh3w8EWQ6ZvNK3pH-26" target="-Vg7Qh3w8EWQ6ZvNK3pH-27">
          <mxGeometry relative="1" as="geometry" />
        </mxCell>
        <mxCell id="-Vg7Qh3w8EWQ6ZvNK3pH-24" style="edgeStyle=orthogonalEdgeStyle;rounded=1;orthogonalLoop=1;jettySize=auto;html=1;exitX=0.25;exitY=1;exitDx=0;exitDy=0;entryX=1;entryY=0.5;entryDx=0;entryDy=0;" edge="1" parent="-Vg7Qh3w8EWQ6ZvNK3pH-1" source="-Vg7Qh3w8EWQ6ZvNK3pH-26" target="-Vg7Qh3w8EWQ6ZvNK3pH-30">
          <mxGeometry relative="1" as="geometry">
            <Array as="points">
              <mxPoint x="259" y="560" />
            </Array>
          </mxGeometry>
        </mxCell>
        <mxCell id="-Vg7Qh3w8EWQ6ZvNK3pH-25" style="edgeStyle=orthogonalEdgeStyle;rounded=1;orthogonalLoop=1;jettySize=auto;html=1;exitX=0.5;exitY=1;exitDx=0;exitDy=0;entryX=0.5;entryY=0;entryDx=0;entryDy=0;" edge="1" parent="-Vg7Qh3w8EWQ6ZvNK3pH-1" source="-Vg7Qh3w8EWQ6ZvNK3pH-26" target="-Vg7Qh3w8EWQ6ZvNK3pH-31">
          <mxGeometry relative="1" as="geometry" />
        </mxCell>
        <mxCell id="-Vg7Qh3w8EWQ6ZvNK3pH-26" value="&lt;font style=&quot;font-size: 16px;&quot;&gt;&lt;b&gt;Group&lt;/b&gt;&lt;/font&gt;" style="whiteSpace=wrap;html=1;align=center;rounded=1;" vertex="1" parent="-Vg7Qh3w8EWQ6ZvNK3pH-1">
          <mxGeometry x="234" y="420" width="100" height="40" as="geometry" />
        </mxCell>
        <mxCell id="-Vg7Qh3w8EWQ6ZvNK3pH-27" value="LevelNumber" style="ellipse;whiteSpace=wrap;html=1;align=center;rounded=1;" vertex="1" parent="-Vg7Qh3w8EWQ6ZvNK3pH-1">
          <mxGeometry x="105" y="420" width="100" height="40" as="geometry" />
        </mxCell>
        <mxCell id="-Vg7Qh3w8EWQ6ZvNK3pH-28" value="Id" style="ellipse;whiteSpace=wrap;html=1;align=center;fontStyle=4;rounded=1;" vertex="1" parent="-Vg7Qh3w8EWQ6ZvNK3pH-1">
          <mxGeometry x="105" y="360" width="100" height="40" as="geometry" />
        </mxCell>
        <mxCell id="-Vg7Qh3w8EWQ6ZvNK3pH-29" value="section&lt;span style=&quot;color: rgba(0, 0, 0, 0); font-family: monospace; font-size: 0px; text-align: start; text-wrap: nowrap;&quot;&gt;%3CmxGraphModel%3E%3Croot%3E%3CmxCell%20id%3D%220%22%2F%3E%3CmxCell%20id%3D%221%22%20parent%3D%220%22%2F%3E%3CmxCell%20id%3D%222%22%20value%3D%22LevelNumber%22%20style%3D%22ellipse%3BwhiteSpace%3Dwrap%3Bhtml%3D1%3Balign%3Dcenter%3B%22%20vertex%3D%221%22%20parent%3D%221%22%3E%3CmxGeometry%20x%3D%22200%22%20y%3D%22420%22%20width%3D%22100%22%20height%3D%2240%22%20as%3D%22geometry%22%2F%3E%3C%2FmxCell%3E%3C%2Froot%3E%3C%2FmxGraphModel%3E&lt;/span&gt;" style="ellipse;whiteSpace=wrap;html=1;align=center;rounded=1;" vertex="1" parent="-Vg7Qh3w8EWQ6ZvNK3pH-1">
          <mxGeometry x="105" y="490" width="100" height="40" as="geometry" />
        </mxCell>
        <mxCell id="-Vg7Qh3w8EWQ6ZvNK3pH-30" value="specialization" style="ellipse;whiteSpace=wrap;html=1;align=center;rounded=1;" vertex="1" parent="-Vg7Qh3w8EWQ6ZvNK3pH-1">
          <mxGeometry x="79" y="540" width="100" height="40" as="geometry" />
        </mxCell>
        <mxCell id="-Vg7Qh3w8EWQ6ZvNK3pH-31" value="Group" style="ellipse;whiteSpace=wrap;html=1;align=center;rounded=1;" vertex="1" parent="-Vg7Qh3w8EWQ6ZvNK3pH-1">
          <mxGeometry x="169" y="580" width="100" height="40" as="geometry" />
        </mxCell>
        <mxCell id="-Vg7Qh3w8EWQ6ZvNK3pH-32" value="&lt;b&gt;Relationship&lt;/b&gt;" style="shape=rhombus;perimeter=rhombusPerimeter;whiteSpace=wrap;html=1;align=center;rounded=1;" vertex="1" parent="-Vg7Qh3w8EWQ6ZvNK3pH-1">
          <mxGeometry x="285" y="330" width="99" height="50" as="geometry" />
        </mxCell>
        <mxCell id="-Vg7Qh3w8EWQ6ZvNK3pH-33" style="edgeStyle=orthogonalEdgeStyle;rounded=1;orthogonalLoop=1;jettySize=auto;html=1;exitX=0.75;exitY=1;exitDx=0;exitDy=0;entryX=0;entryY=0.5;entryDx=0;entryDy=0;" edge="1" parent="-Vg7Qh3w8EWQ6ZvNK3pH-1" source="-Vg7Qh3w8EWQ6ZvNK3pH-36" target="-Vg7Qh3w8EWQ6ZvNK3pH-47">
          <mxGeometry relative="1" as="geometry">
            <mxPoint x="503.75" y="520" as="targetPoint" />
            <Array as="points">
              <mxPoint x="410.25" y="615" />
              <mxPoint x="483.25" y="615" />
            </Array>
          </mxGeometry>
        </mxCell>
        <mxCell id="-Vg7Qh3w8EWQ6ZvNK3pH-34" style="edgeStyle=orthogonalEdgeStyle;rounded=1;orthogonalLoop=1;jettySize=auto;html=1;exitX=0;exitY=1;exitDx=0;exitDy=0;entryX=1;entryY=0.5;entryDx=0;entryDy=0;" edge="1" parent="-Vg7Qh3w8EWQ6ZvNK3pH-1" source="-Vg7Qh3w8EWQ6ZvNK3pH-36" target="-Vg7Qh3w8EWQ6ZvNK3pH-46">
          <mxGeometry relative="1" as="geometry">
            <Array as="points">
              <mxPoint x="335.25" y="610" />
              <mxPoint x="339.25" y="610" />
              <mxPoint x="339.25" y="640" />
              <mxPoint x="315.25" y="640" />
            </Array>
          </mxGeometry>
        </mxCell>
        <mxCell id="-Vg7Qh3w8EWQ6ZvNK3pH-35" style="edgeStyle=orthogonalEdgeStyle;rounded=1;orthogonalLoop=1;jettySize=auto;html=1;exitX=0.5;exitY=1;exitDx=0;exitDy=0;" edge="1" parent="-Vg7Qh3w8EWQ6ZvNK3pH-1" source="-Vg7Qh3w8EWQ6ZvNK3pH-36" target="-Vg7Qh3w8EWQ6ZvNK3pH-48">
          <mxGeometry relative="1" as="geometry" />
        </mxCell>
        <mxCell id="-Vg7Qh3w8EWQ6ZvNK3pH-36" value="&lt;font style=&quot;font-size: 16px;&quot;&gt;&lt;b&gt;Doctor&lt;/b&gt;&lt;/font&gt;" style="whiteSpace=wrap;html=1;align=center;rounded=1;" vertex="1" parent="-Vg7Qh3w8EWQ6ZvNK3pH-1">
          <mxGeometry x="334.75" y="540" width="100" height="40" as="geometry" />
        </mxCell>
        <mxCell id="-Vg7Qh3w8EWQ6ZvNK3pH-37" style="edgeStyle=orthogonalEdgeStyle;rounded=1;orthogonalLoop=1;jettySize=auto;html=1;exitX=1;exitY=0;exitDx=0;exitDy=0;entryX=0;entryY=0.5;entryDx=0;entryDy=0;" edge="1" parent="-Vg7Qh3w8EWQ6ZvNK3pH-1" source="-Vg7Qh3w8EWQ6ZvNK3pH-39" target="-Vg7Qh3w8EWQ6ZvNK3pH-44">
          <mxGeometry relative="1" as="geometry">
            <Array as="points">
              <mxPoint x="647" y="550" />
              <mxPoint x="700" y="550" />
            </Array>
          </mxGeometry>
        </mxCell>
        <mxCell id="-Vg7Qh3w8EWQ6ZvNK3pH-38" style="edgeStyle=orthogonalEdgeStyle;rounded=1;orthogonalLoop=1;jettySize=auto;html=1;exitX=1;exitY=1;exitDx=0;exitDy=0;entryX=0;entryY=0.5;entryDx=0;entryDy=0;" edge="1" parent="-Vg7Qh3w8EWQ6ZvNK3pH-1" source="-Vg7Qh3w8EWQ6ZvNK3pH-39" target="-Vg7Qh3w8EWQ6ZvNK3pH-45">
          <mxGeometry relative="1" as="geometry">
            <Array as="points">
              <mxPoint x="558.5" y="545" />
              <mxPoint x="558.5" y="545" />
            </Array>
          </mxGeometry>
        </mxCell>
        <mxCell id="-Vg7Qh3w8EWQ6ZvNK3pH-39" value="&lt;font style=&quot;font-size: 16px;&quot;&gt;&lt;b&gt;Subjects&lt;/b&gt;&lt;/font&gt;" style="whiteSpace=wrap;html=1;align=center;rounded=1;" vertex="1" parent="-Vg7Qh3w8EWQ6ZvNK3pH-1">
          <mxGeometry x="546.5" y="530" width="100" height="40" as="geometry" />
        </mxCell>
        <mxCell id="-Vg7Qh3w8EWQ6ZvNK3pH-40" value="" style="endArrow=none;html=1;rounded=1;entryX=0.5;entryY=0;entryDx=0;entryDy=0;exitX=0.5;exitY=1;exitDx=0;exitDy=0;" edge="1" parent="-Vg7Qh3w8EWQ6ZvNK3pH-1" source="-Vg7Qh3w8EWQ6ZvNK3pH-6" target="-Vg7Qh3w8EWQ6ZvNK3pH-32">
          <mxGeometry relative="1" as="geometry">
            <mxPoint x="229" y="250" as="sourcePoint" />
            <mxPoint x="389" y="250" as="targetPoint" />
          </mxGeometry>
        </mxCell>
        <mxCell id="-Vg7Qh3w8EWQ6ZvNK3pH-41" value="1" style="resizable=0;html=1;whiteSpace=wrap;align=right;verticalAlign=bottom;rounded=1;" connectable="0" vertex="1" parent="-Vg7Qh3w8EWQ6ZvNK3pH-40">
          <mxGeometry x="1" relative="1" as="geometry">
            <mxPoint x="-10" y="60" as="offset" />
          </mxGeometry>
        </mxCell>
        <mxCell id="-Vg7Qh3w8EWQ6ZvNK3pH-42" value="" style="endArrow=none;html=1;rounded=1;exitX=0.5;exitY=0;exitDx=0;exitDy=0;entryX=0.5;entryY=1;entryDx=0;entryDy=0;" edge="1" parent="-Vg7Qh3w8EWQ6ZvNK3pH-1" source="-Vg7Qh3w8EWQ6ZvNK3pH-26" target="-Vg7Qh3w8EWQ6ZvNK3pH-32">
          <mxGeometry relative="1" as="geometry">
            <mxPoint x="324" y="380" as="sourcePoint" />
            <mxPoint x="484" y="380" as="targetPoint" />
          </mxGeometry>
        </mxCell>
        <mxCell id="-Vg7Qh3w8EWQ6ZvNK3pH-43" value="N" style="resizable=0;html=1;whiteSpace=wrap;align=right;verticalAlign=bottom;rounded=1;" connectable="0" vertex="1" parent="-Vg7Qh3w8EWQ6ZvNK3pH-42">
          <mxGeometry x="1" relative="1" as="geometry">
            <mxPoint x="16" y="-50" as="offset" />
          </mxGeometry>
        </mxCell>
        <mxCell id="-Vg7Qh3w8EWQ6ZvNK3pH-44" value="&lt;u&gt;id&lt;/u&gt;" style="ellipse;whiteSpace=wrap;html=1;align=center;rounded=1;" vertex="1" parent="-Vg7Qh3w8EWQ6ZvNK3pH-1">
          <mxGeometry x="700" y="564" width="100" height="40" as="geometry" />
        </mxCell>
        <mxCell id="-Vg7Qh3w8EWQ6ZvNK3pH-45" value="Name" style="ellipse;whiteSpace=wrap;html=1;align=center;rounded=1;" vertex="1" parent="-Vg7Qh3w8EWQ6ZvNK3pH-1">
          <mxGeometry x="629" y="604" width="100" height="40" as="geometry" />
        </mxCell>
        <mxCell id="-Vg7Qh3w8EWQ6ZvNK3pH-46" value="name" style="ellipse;whiteSpace=wrap;html=1;align=center;rounded=1;" vertex="1" parent="-Vg7Qh3w8EWQ6ZvNK3pH-1">
          <mxGeometry x="214.75" y="650" width="100" height="40" as="geometry" />
        </mxCell>
        <mxCell id="-Vg7Qh3w8EWQ6ZvNK3pH-47" value="id" style="ellipse;whiteSpace=wrap;html=1;align=center;fontStyle=4;rounded=1;" vertex="1" parent="-Vg7Qh3w8EWQ6ZvNK3pH-1">
          <mxGeometry x="483.25" y="615" width="100" height="40" as="geometry" />
        </mxCell>
        <mxCell id="-Vg7Qh3w8EWQ6ZvNK3pH-48" value="experienceYears" style="ellipse;whiteSpace=wrap;html=1;align=center;rounded=1;" vertex="1" parent="-Vg7Qh3w8EWQ6ZvNK3pH-1">
          <mxGeometry x="334.75" y="655" width="100" height="40" as="geometry" />
        </mxCell>
        <mxCell id="-Vg7Qh3w8EWQ6ZvNK3pH-49" value="&lt;h1 style=&quot;margin-top: 0px;&quot;&gt;ERD:&lt;/h1&gt;&lt;p style=&quot;line-height: 0%;&quot;&gt;this projects for students and doctors orgnzition.&lt;/p&gt;" style="text;html=1;whiteSpace=wrap;overflow=hidden;rounded=1;" vertex="1" parent="-Vg7Qh3w8EWQ6ZvNK3pH-1">
          <mxGeometry x="30" y="890" width="710" height="80" as="geometry" />
        </mxCell>
        <mxCell id="-Vg7Qh3w8EWQ6ZvNK3pH-50" value="&lt;h1 style=&quot;margin-top: 0px; margin-bottom: 8px; line-height: 120%;&quot;&gt;&lt;span style=&quot;background-color: initial;&quot;&gt;Note:&lt;/span&gt;&lt;/h1&gt;&lt;h1 style=&quot;margin-top: 0px; line-height: 0%;&quot;&gt;&lt;ul style=&quot;margin-bottom: 0px; line-height: 0%;&quot;&gt;&lt;li&gt;&lt;span style=&quot;background-color: initial; font-size: 12px; font-weight: normal;&quot;&gt;any note will be here&amp;gt;&lt;/span&gt;&lt;/li&gt;&lt;/ul&gt;&lt;/h1&gt;" style="text;html=1;whiteSpace=wrap;overflow=hidden;rounded=1;" vertex="1" parent="-Vg7Qh3w8EWQ6ZvNK3pH-1">
          <mxGeometry x="30" y="960" width="710" height="80" as="geometry" />
        </mxCell>
        <mxCell id="-Vg7Qh3w8EWQ6ZvNK3pH-51" style="edgeStyle=orthogonalEdgeStyle;rounded=1;orthogonalLoop=1;jettySize=auto;html=1;exitX=0;exitY=0.5;exitDx=0;exitDy=0;entryX=0;entryY=0;entryDx=75;entryDy=20;entryPerimeter=0;" edge="1" parent="-Vg7Qh3w8EWQ6ZvNK3pH-1" source="-Vg7Qh3w8EWQ6ZvNK3pH-52" target="-Vg7Qh3w8EWQ6ZvNK3pH-73">
          <mxGeometry relative="1" as="geometry">
            <mxPoint x="90" y="270" as="targetPoint" />
            <Array as="points">
              <mxPoint x="80" y="260" />
            </Array>
          </mxGeometry>
        </mxCell>
        <mxCell id="-Vg7Qh3w8EWQ6ZvNK3pH-52" value="finalGrades" style="ellipse;whiteSpace=wrap;html=1;align=center;dashed=1;rounded=1;" vertex="1" parent="-Vg7Qh3w8EWQ6ZvNK3pH-1">
          <mxGeometry x="220" y="240" width="100" height="40" as="geometry" />
        </mxCell>
        <mxCell id="-Vg7Qh3w8EWQ6ZvNK3pH-53" style="edgeStyle=orthogonalEdgeStyle;rounded=1;orthogonalLoop=1;jettySize=auto;html=1;exitX=1;exitY=0;exitDx=0;exitDy=0;entryX=0;entryY=0.5;entryDx=0;entryDy=0;" edge="1" parent="-Vg7Qh3w8EWQ6ZvNK3pH-1" source="-Vg7Qh3w8EWQ6ZvNK3pH-54" target="-Vg7Qh3w8EWQ6ZvNK3pH-71">
          <mxGeometry relative="1" as="geometry">
            <Array as="points">
              <mxPoint x="517" y="382" />
            </Array>
          </mxGeometry>
        </mxCell>
        <mxCell id="OKOUaxX6ehHlvi0BNRDA-0" style="edgeStyle=orthogonalEdgeStyle;rounded=0;orthogonalLoop=1;jettySize=auto;html=1;exitX=0;exitY=1;exitDx=0;exitDy=0;entryX=1;entryY=0;entryDx=0;entryDy=0;" edge="1" parent="-Vg7Qh3w8EWQ6ZvNK3pH-1" source="-Vg7Qh3w8EWQ6ZvNK3pH-54" target="-Vg7Qh3w8EWQ6ZvNK3pH-72">
          <mxGeometry relative="1" as="geometry" />
        </mxCell>
        <mxCell id="-Vg7Qh3w8EWQ6ZvNK3pH-54" value="&lt;b style=&quot;&quot;&gt;&lt;font style=&quot;font-size: 13px;&quot;&gt;Education&lt;/font&gt;&lt;/b&gt;" style="shape=rhombus;perimeter=rhombusPerimeter;whiteSpace=wrap;html=1;align=center;rounded=1;" vertex="1" parent="-Vg7Qh3w8EWQ6ZvNK3pH-1">
          <mxGeometry x="450" y="370" width="99" height="50" as="geometry" />
        </mxCell>
        <mxCell id="-Vg7Qh3w8EWQ6ZvNK3pH-55" value="" style="endArrow=none;html=1;rounded=1;exitX=0.5;exitY=0;exitDx=0;exitDy=0;entryX=1;entryY=0.5;entryDx=0;entryDy=0;" edge="1" parent="-Vg7Qh3w8EWQ6ZvNK3pH-1" source="-Vg7Qh3w8EWQ6ZvNK3pH-39" target="-Vg7Qh3w8EWQ6ZvNK3pH-54">
          <mxGeometry relative="1" as="geometry">
            <mxPoint x="450" y="490" as="sourcePoint" />
            <mxPoint x="610" y="490" as="targetPoint" />
            <Array as="points">
              <mxPoint x="597" y="440" />
            </Array>
          </mxGeometry>
        </mxCell>
        <mxCell id="-Vg7Qh3w8EWQ6ZvNK3pH-56" value="M" style="resizable=0;html=1;whiteSpace=wrap;align=right;verticalAlign=bottom;rounded=1;" connectable="0" vertex="1" parent="-Vg7Qh3w8EWQ6ZvNK3pH-55">
          <mxGeometry x="1" relative="1" as="geometry" />
        </mxCell>
        <mxCell id="-Vg7Qh3w8EWQ6ZvNK3pH-57" value="" style="endArrow=none;html=1;rounded=1;exitX=0.75;exitY=1;exitDx=0;exitDy=0;entryX=0.5;entryY=0;entryDx=0;entryDy=0;" edge="1" parent="-Vg7Qh3w8EWQ6ZvNK3pH-1" source="-Vg7Qh3w8EWQ6ZvNK3pH-6" target="-Vg7Qh3w8EWQ6ZvNK3pH-54">
          <mxGeometry relative="1" as="geometry">
            <mxPoint x="508" y="360" as="sourcePoint" />
            <mxPoint x="419" y="330" as="targetPoint" />
          </mxGeometry>
        </mxCell>
        <mxCell id="-Vg7Qh3w8EWQ6ZvNK3pH-58" value="N" style="resizable=0;html=1;whiteSpace=wrap;align=right;verticalAlign=bottom;rounded=1;" connectable="0" vertex="1" parent="-Vg7Qh3w8EWQ6ZvNK3pH-57">
          <mxGeometry x="1" relative="1" as="geometry" />
        </mxCell>
        <mxCell id="-Vg7Qh3w8EWQ6ZvNK3pH-65" value="&lt;b&gt;&lt;font style=&quot;font-size: 16px;&quot;&gt;Documents&lt;/font&gt;&lt;/b&gt;" style="rounded=1;arcSize=10;whiteSpace=wrap;html=1;align=center;" vertex="1" parent="-Vg7Qh3w8EWQ6ZvNK3pH-1">
          <mxGeometry x="529" y="220" width="100" height="40" as="geometry" />
        </mxCell>
        <mxCell id="-Vg7Qh3w8EWQ6ZvNK3pH-66" value="Has" style="shape=rhombus;perimeter=rhombusPerimeter;whiteSpace=wrap;html=1;align=center;rounded=1;" vertex="1" parent="-Vg7Qh3w8EWQ6ZvNK3pH-1">
          <mxGeometry x="429" y="225" width="80" height="30" as="geometry" />
        </mxCell>
        <mxCell id="-Vg7Qh3w8EWQ6ZvNK3pH-67" value="" style="endArrow=none;html=1;rounded=1;exitX=1;exitY=1;exitDx=0;exitDy=0;entryX=0;entryY=0.5;entryDx=0;entryDy=0;" edge="1" parent="-Vg7Qh3w8EWQ6ZvNK3pH-1" source="-Vg7Qh3w8EWQ6ZvNK3pH-6" target="-Vg7Qh3w8EWQ6ZvNK3pH-66">
          <mxGeometry relative="1" as="geometry">
            <mxPoint x="440" y="280" as="sourcePoint" />
            <mxPoint x="600" y="280" as="targetPoint" />
          </mxGeometry>
        </mxCell>
        <mxCell id="-Vg7Qh3w8EWQ6ZvNK3pH-68" value="1" style="resizable=0;html=1;whiteSpace=wrap;align=right;verticalAlign=bottom;rounded=1;" connectable="0" vertex="1" parent="-Vg7Qh3w8EWQ6ZvNK3pH-67">
          <mxGeometry x="1" relative="1" as="geometry" />
        </mxCell>
        <mxCell id="-Vg7Qh3w8EWQ6ZvNK3pH-69" value="" style="endArrow=none;html=1;rounded=1;entryX=1;entryY=0.5;entryDx=0;entryDy=0;exitX=0;exitY=0.5;exitDx=0;exitDy=0;" edge="1" parent="-Vg7Qh3w8EWQ6ZvNK3pH-1" source="-Vg7Qh3w8EWQ6ZvNK3pH-65" target="-Vg7Qh3w8EWQ6ZvNK3pH-66">
          <mxGeometry relative="1" as="geometry">
            <mxPoint x="490" y="290" as="sourcePoint" />
            <mxPoint x="650" y="290" as="targetPoint" />
          </mxGeometry>
        </mxCell>
        <mxCell id="-Vg7Qh3w8EWQ6ZvNK3pH-70" value="1" style="resizable=0;html=1;whiteSpace=wrap;align=right;verticalAlign=bottom;rounded=1;" connectable="0" vertex="1" parent="-Vg7Qh3w8EWQ6ZvNK3pH-69">
          <mxGeometry x="1" relative="1" as="geometry" />
        </mxCell>
        <mxCell id="-Vg7Qh3w8EWQ6ZvNK3pH-71" value="degree" style="ellipse;whiteSpace=wrap;html=1;align=center;rounded=1;" vertex="1" parent="-Vg7Qh3w8EWQ6ZvNK3pH-1">
          <mxGeometry x="517" y="290" width="100" height="40" as="geometry" />
        </mxCell>
        <mxCell id="-Vg7Qh3w8EWQ6ZvNK3pH-72" value="The Year Of teach" style="ellipse;whiteSpace=wrap;html=1;align=center;rounded=1;" vertex="1" parent="-Vg7Qh3w8EWQ6ZvNK3pH-1">
          <mxGeometry x="417" y="470" width="100" height="40" as="geometry" />
        </mxCell>
        <mxCell id="-Vg7Qh3w8EWQ6ZvNK3pH-73" value="finalGrads= (gradslevelone+ ...)/4" style="shape=note;size=20;whiteSpace=wrap;html=1;rounded=1;" vertex="1" parent="-Vg7Qh3w8EWQ6ZvNK3pH-1">
          <mxGeometry x="5" y="230" width="75" height="80" as="geometry" />
        </mxCell>
        <mxCell id="-Vg7Qh3w8EWQ6ZvNK3pH-74" value="Grade" style="ellipse;shape=doubleEllipse;margin=3;whiteSpace=wrap;html=1;align=center;rounded=1;" vertex="1" parent="-Vg7Qh3w8EWQ6ZvNK3pH-1">
          <mxGeometry x="189" y="180" width="100" height="40" as="geometry" />
        </mxCell>
        <mxCell id="OKOUaxX6ehHlvi0BNRDA-1" value="" style="endArrow=none;html=1;rounded=0;entryX=0;entryY=0.5;entryDx=0;entryDy=0;exitX=0.5;exitY=0;exitDx=0;exitDy=0;" edge="1" parent="-Vg7Qh3w8EWQ6ZvNK3pH-1" source="-Vg7Qh3w8EWQ6ZvNK3pH-36" target="-Vg7Qh3w8EWQ6ZvNK3pH-54">
          <mxGeometry relative="1" as="geometry">
            <mxPoint x="340" y="480" as="sourcePoint" />
            <mxPoint x="500" y="480" as="targetPoint" />
            <Array as="points">
              <mxPoint x="385" y="460" />
            </Array>
          </mxGeometry>
        </mxCell>
        <mxCell id="OKOUaxX6ehHlvi0BNRDA-2" value="N" style="resizable=0;html=1;whiteSpace=wrap;align=right;verticalAlign=bottom;" connectable="0" vertex="1" parent="OKOUaxX6ehHlvi0BNRDA-1">
          <mxGeometry x="1" relative="1" as="geometry" />
        </mxCell>
      </root>
    </mxGraphModel>
  </diagram>
  <diagram name="Copy of Copy of Page-2" id="n8LsEwogAgyVHSPVyxXX">
    <mxGraphModel dx="880" dy="572" grid="1" gridSize="10" guides="1" tooltips="1" connect="1" arrows="1" fold="1" page="1" pageScale="1" pageWidth="827" pageHeight="1169" math="0" shadow="0">
      <root>
        <mxCell id="p3qqd_D9KfPlKefBA1SR-0" />
        <mxCell id="p3qqd_D9KfPlKefBA1SR-1" parent="p3qqd_D9KfPlKefBA1SR-0" />
        <mxCell id="p3qqd_D9KfPlKefBA1SR-2" value="&lt;b&gt;&lt;font style=&quot;font-size: 16px;&quot;&gt;Students&lt;/font&gt;&lt;/b&gt;" style="text;html=1;align=left;verticalAlign=middle;whiteSpace=wrap;rounded=0;" parent="p3qqd_D9KfPlKefBA1SR-1" vertex="1">
          <mxGeometry y="40" width="80" height="30" as="geometry" />
        </mxCell>
        <mxCell id="p3qqd_D9KfPlKefBA1SR-3" value="&lt;span style=&quot;text-decoration-line: underline;&quot;&gt;StudentID&lt;/span&gt;" style="rounded=0;whiteSpace=wrap;html=1;" parent="p3qqd_D9KfPlKefBA1SR-1" vertex="1">
          <mxGeometry y="70" width="120" height="30" as="geometry" />
        </mxCell>
        <mxCell id="p3qqd_D9KfPlKefBA1SR-4" value="name" style="rounded=0;whiteSpace=wrap;html=1;" parent="p3qqd_D9KfPlKefBA1SR-1" vertex="1">
          <mxGeometry x="120" y="70" width="120" height="30" as="geometry" />
        </mxCell>
        <mxCell id="p3qqd_D9KfPlKefBA1SR-5" value="birthDate" style="rounded=0;whiteSpace=wrap;html=1;" parent="p3qqd_D9KfPlKefBA1SR-1" vertex="1">
          <mxGeometry x="240" y="70" width="120" height="30" as="geometry" />
        </mxCell>
        <mxCell id="p3qqd_D9KfPlKefBA1SR-6" style="edgeStyle=orthogonalEdgeStyle;rounded=0;orthogonalLoop=1;jettySize=auto;html=1;exitX=0.5;exitY=1;exitDx=0;exitDy=0;entryX=0.75;entryY=0;entryDx=0;entryDy=0;" parent="p3qqd_D9KfPlKefBA1SR-1" source="p3qqd_D9KfPlKefBA1SR-7" target="p3qqd_D9KfPlKefBA1SR-22" edge="1">
          <mxGeometry relative="1" as="geometry">
            <Array as="points">
              <mxPoint x="420" y="240" />
              <mxPoint x="630" y="240" />
              <mxPoint x="630" y="290" />
              <mxPoint x="90" y="290" />
            </Array>
          </mxGeometry>
        </mxCell>
        <mxCell id="p3qqd_D9KfPlKefBA1SR-7" value="groupID" style="rounded=0;whiteSpace=wrap;html=1;" parent="p3qqd_D9KfPlKefBA1SR-1" vertex="1">
          <mxGeometry x="360" y="70" width="120" height="30" as="geometry" />
        </mxCell>
        <mxCell id="p3qqd_D9KfPlKefBA1SR-8" value="&lt;span style=&quot;text-align: center;&quot;&gt;&lt;b&gt;&lt;font style=&quot;font-size: 16px;&quot;&gt;Grade&lt;/font&gt;&lt;/b&gt;&lt;/span&gt;" style="text;html=1;align=left;verticalAlign=middle;whiteSpace=wrap;rounded=0;" parent="p3qqd_D9KfPlKefBA1SR-1" vertex="1">
          <mxGeometry y="140" width="80" height="30" as="geometry" />
        </mxCell>
        <mxCell id="p3qqd_D9KfPlKefBA1SR-9" style="edgeStyle=orthogonalEdgeStyle;rounded=1;orthogonalLoop=1;jettySize=auto;html=1;exitX=0.75;exitY=0;exitDx=0;exitDy=0;entryX=0.75;entryY=1;entryDx=0;entryDy=0;" parent="p3qqd_D9KfPlKefBA1SR-1" source="p3qqd_D9KfPlKefBA1SR-10" target="p3qqd_D9KfPlKefBA1SR-3" edge="1">
          <mxGeometry relative="1" as="geometry" />
        </mxCell>
        <mxCell id="p3qqd_D9KfPlKefBA1SR-10" value="&lt;span style=&quot;text-decoration-line: underline;&quot;&gt;StudentID&lt;/span&gt;" style="rounded=0;whiteSpace=wrap;html=1;" parent="p3qqd_D9KfPlKefBA1SR-1" vertex="1">
          <mxGeometry y="170" width="120" height="30" as="geometry" />
        </mxCell>
        <mxCell id="p3qqd_D9KfPlKefBA1SR-11" value="&lt;u&gt;LevelNumber&lt;/u&gt;" style="rounded=0;whiteSpace=wrap;html=1;" parent="p3qqd_D9KfPlKefBA1SR-1" vertex="1">
          <mxGeometry x="120" y="170" width="120" height="30" as="geometry" />
        </mxCell>
        <mxCell id="p3qqd_D9KfPlKefBA1SR-12" value="degree" style="rounded=0;whiteSpace=wrap;html=1;" parent="p3qqd_D9KfPlKefBA1SR-1" vertex="1">
          <mxGeometry x="240" y="170" width="120" height="30" as="geometry" />
        </mxCell>
        <mxCell id="p3qqd_D9KfPlKefBA1SR-13" value="&lt;b style=&quot;text-align: center;&quot;&gt;&lt;font style=&quot;font-size: 15px;&quot;&gt;Documents&lt;/font&gt;&lt;/b&gt;" style="text;html=1;align=left;verticalAlign=middle;whiteSpace=wrap;rounded=0;" parent="p3qqd_D9KfPlKefBA1SR-1" vertex="1">
          <mxGeometry y="220" width="80" height="30" as="geometry" />
        </mxCell>
        <mxCell id="p3qqd_D9KfPlKefBA1SR-14" style="edgeStyle=orthogonalEdgeStyle;rounded=0;orthogonalLoop=1;jettySize=auto;html=1;exitX=0.75;exitY=0;exitDx=0;exitDy=0;entryX=0.5;entryY=1;entryDx=0;entryDy=0;" parent="p3qqd_D9KfPlKefBA1SR-1" source="p3qqd_D9KfPlKefBA1SR-15" target="p3qqd_D9KfPlKefBA1SR-3" edge="1">
          <mxGeometry relative="1" as="geometry">
            <Array as="points">
              <mxPoint x="90" y="210" />
              <mxPoint x="380" y="210" />
              <mxPoint x="380" y="160" />
              <mxPoint x="60" y="160" />
            </Array>
          </mxGeometry>
        </mxCell>
        <mxCell id="p3qqd_D9KfPlKefBA1SR-15" value="&lt;span style=&quot;text-decoration-line: underline;&quot;&gt;StudentID&lt;/span&gt;" style="rounded=0;whiteSpace=wrap;html=1;" parent="p3qqd_D9KfPlKefBA1SR-1" vertex="1">
          <mxGeometry y="250" width="120" height="30" as="geometry" />
        </mxCell>
        <mxCell id="p3qqd_D9KfPlKefBA1SR-16" value="photoForProof-&lt;span style=&quot;background-color: initial;&quot;&gt;Documents&lt;/span&gt;" style="rounded=0;whiteSpace=wrap;html=1;" parent="p3qqd_D9KfPlKefBA1SR-1" vertex="1">
          <mxGeometry x="120" y="250" width="120" height="30" as="geometry" />
        </mxCell>
        <mxCell id="p3qqd_D9KfPlKefBA1SR-17" value="personalPhoto" style="rounded=0;whiteSpace=wrap;html=1;" parent="p3qqd_D9KfPlKefBA1SR-1" vertex="1">
          <mxGeometry x="240" y="250" width="120" height="30" as="geometry" />
        </mxCell>
        <mxCell id="p3qqd_D9KfPlKefBA1SR-18" value="TrueCopy" style="rounded=0;whiteSpace=wrap;html=1;" parent="p3qqd_D9KfPlKefBA1SR-1" vertex="1">
          <mxGeometry x="360" y="250" width="120" height="30" as="geometry" />
        </mxCell>
        <mxCell id="p3qqd_D9KfPlKefBA1SR-19" value="HighSchoolCertificate" style="rounded=0;whiteSpace=wrap;html=1;" parent="p3qqd_D9KfPlKefBA1SR-1" vertex="1">
          <mxGeometry x="480" y="250" width="120" height="30" as="geometry" />
        </mxCell>
        <mxCell id="p3qqd_D9KfPlKefBA1SR-20" value="" style="line;strokeWidth=1;rotatable=0;dashed=0;labelPosition=right;align=left;verticalAlign=middle;spacingTop=0;spacingLeft=6;points=[];portConstraint=eastwest;rounded=1;" parent="p3qqd_D9KfPlKefBA1SR-1" vertex="1">
          <mxGeometry x="30" y="85" width="60" height="10" as="geometry" />
        </mxCell>
        <mxCell id="p3qqd_D9KfPlKefBA1SR-21" value="&lt;span style=&quot;text-align: center;&quot;&gt;&lt;b&gt;&lt;font style=&quot;font-size: 16px;&quot;&gt;Group&lt;/font&gt;&lt;/b&gt;&lt;/span&gt;" style="text;html=1;align=left;verticalAlign=middle;whiteSpace=wrap;rounded=0;" parent="p3qqd_D9KfPlKefBA1SR-1" vertex="1">
          <mxGeometry y="300" width="80" height="30" as="geometry" />
        </mxCell>
        <mxCell id="p3qqd_D9KfPlKefBA1SR-22" value="groupID" style="rounded=0;whiteSpace=wrap;html=1;fontStyle=4" parent="p3qqd_D9KfPlKefBA1SR-1" vertex="1">
          <mxGeometry y="330" width="120" height="30" as="geometry" />
        </mxCell>
        <mxCell id="p3qqd_D9KfPlKefBA1SR-23" value="LevelNumber" style="rounded=0;whiteSpace=wrap;html=1;" parent="p3qqd_D9KfPlKefBA1SR-1" vertex="1">
          <mxGeometry x="120" y="330" width="120" height="30" as="geometry" />
        </mxCell>
        <mxCell id="p3qqd_D9KfPlKefBA1SR-24" value="section" style="rounded=0;whiteSpace=wrap;html=1;" parent="p3qqd_D9KfPlKefBA1SR-1" vertex="1">
          <mxGeometry x="240" y="330" width="120" height="30" as="geometry" />
        </mxCell>
        <mxCell id="p3qqd_D9KfPlKefBA1SR-25" value="specialization" style="rounded=0;whiteSpace=wrap;html=1;" parent="p3qqd_D9KfPlKefBA1SR-1" vertex="1">
          <mxGeometry x="360" y="330" width="120" height="30" as="geometry" />
        </mxCell>
        <mxCell id="p3qqd_D9KfPlKefBA1SR-26" value="Group" style="rounded=0;whiteSpace=wrap;html=1;" parent="p3qqd_D9KfPlKefBA1SR-1" vertex="1">
          <mxGeometry x="480" y="330" width="120" height="30" as="geometry" />
        </mxCell>
        <mxCell id="p3qqd_D9KfPlKefBA1SR-27" value="&lt;font style=&quot;font-size: 16px;&quot;&gt;&lt;b&gt;Subjects&lt;/b&gt;&lt;/font&gt;" style="text;html=1;align=left;verticalAlign=middle;whiteSpace=wrap;rounded=0;" parent="p3qqd_D9KfPlKefBA1SR-1" vertex="1">
          <mxGeometry y="460" width="80" height="30" as="geometry" />
        </mxCell>
        <mxCell id="p3qqd_D9KfPlKefBA1SR-28" value="&lt;u&gt;subjectID&lt;/u&gt;" style="rounded=0;whiteSpace=wrap;html=1;" parent="p3qqd_D9KfPlKefBA1SR-1" vertex="1">
          <mxGeometry y="490" width="120" height="30" as="geometry" />
        </mxCell>
        <mxCell id="p3qqd_D9KfPlKefBA1SR-29" value="Name" style="rounded=0;whiteSpace=wrap;html=1;" parent="p3qqd_D9KfPlKefBA1SR-1" vertex="1">
          <mxGeometry x="120" y="490" width="120" height="30" as="geometry" />
        </mxCell>
        <mxCell id="p3qqd_D9KfPlKefBA1SR-30" value="&lt;b&gt;&lt;font style=&quot;font-size: 16px;&quot;&gt;Doctor&lt;/font&gt;&lt;/b&gt;" style="text;html=1;align=left;verticalAlign=middle;whiteSpace=wrap;rounded=0;" parent="p3qqd_D9KfPlKefBA1SR-1" vertex="1">
          <mxGeometry y="555" width="80" height="30" as="geometry" />
        </mxCell>
        <mxCell id="p3qqd_D9KfPlKefBA1SR-31" value="&lt;div style=&quot;text-align: left;&quot;&gt;&lt;span style=&quot;background-color: initial;&quot;&gt;&lt;font style=&quot;font-size: 12px;&quot;&gt;&lt;u&gt;doctorID&lt;/u&gt;&lt;/font&gt;&lt;/span&gt;&lt;/div&gt;" style="rounded=0;whiteSpace=wrap;html=1;" parent="p3qqd_D9KfPlKefBA1SR-1" vertex="1">
          <mxGeometry y="585" width="120" height="30" as="geometry" />
        </mxCell>
        <mxCell id="p3qqd_D9KfPlKefBA1SR-32" value="name" style="rounded=0;whiteSpace=wrap;html=1;" parent="p3qqd_D9KfPlKefBA1SR-1" vertex="1">
          <mxGeometry x="120" y="585" width="120" height="30" as="geometry" />
        </mxCell>
        <mxCell id="p3qqd_D9KfPlKefBA1SR-33" value="experienceYears" style="rounded=0;whiteSpace=wrap;html=1;" parent="p3qqd_D9KfPlKefBA1SR-1" vertex="1">
          <mxGeometry x="240" y="585" width="120" height="30" as="geometry" />
        </mxCell>
        <mxCell id="p3qqd_D9KfPlKefBA1SR-34" value="&lt;div style=&quot;text-align: center;&quot;&gt;&lt;b&gt;&lt;font style=&quot;font-size: 16px;&quot;&gt;Education&lt;/font&gt;&lt;/b&gt;&lt;br&gt;&lt;/div&gt;" style="text;html=1;align=left;verticalAlign=middle;whiteSpace=wrap;rounded=0;" parent="p3qqd_D9KfPlKefBA1SR-1" vertex="1">
          <mxGeometry y="380" width="230" height="30" as="geometry" />
        </mxCell>
        <mxCell id="p3qqd_D9KfPlKefBA1SR-35" style="edgeStyle=orthogonalEdgeStyle;rounded=0;orthogonalLoop=1;jettySize=auto;html=1;exitX=0.75;exitY=1;exitDx=0;exitDy=0;entryX=0.75;entryY=0;entryDx=0;entryDy=0;" parent="p3qqd_D9KfPlKefBA1SR-1" source="p3qqd_D9KfPlKefBA1SR-36" target="p3qqd_D9KfPlKefBA1SR-28" edge="1">
          <mxGeometry relative="1" as="geometry" />
        </mxCell>
        <mxCell id="p3qqd_D9KfPlKefBA1SR-36" value="&lt;u&gt;subjectID&lt;/u&gt;" style="rounded=0;whiteSpace=wrap;html=1;" parent="p3qqd_D9KfPlKefBA1SR-1" vertex="1">
          <mxGeometry y="410" width="120" height="30" as="geometry" />
        </mxCell>
        <mxCell id="p3qqd_D9KfPlKefBA1SR-37" style="edgeStyle=orthogonalEdgeStyle;rounded=0;orthogonalLoop=1;jettySize=auto;html=1;exitX=0.75;exitY=0;exitDx=0;exitDy=0;" parent="p3qqd_D9KfPlKefBA1SR-1" source="p3qqd_D9KfPlKefBA1SR-38" edge="1">
          <mxGeometry relative="1" as="geometry">
            <Array as="points">
              <mxPoint x="230" y="410" />
              <mxPoint x="230" y="370" />
              <mxPoint x="660" y="370" />
              <mxPoint x="660" y="150" />
              <mxPoint x="110" y="150" />
              <mxPoint x="110" y="100" />
            </Array>
            <mxPoint x="110" y="100" as="targetPoint" />
          </mxGeometry>
        </mxCell>
        <mxCell id="p3qqd_D9KfPlKefBA1SR-38" value="&lt;span style=&quot;text-decoration-line: underline;&quot;&gt;StudentID&lt;/span&gt;" style="rounded=0;whiteSpace=wrap;html=1;" parent="p3qqd_D9KfPlKefBA1SR-1" vertex="1">
          <mxGeometry x="120" y="410" width="120" height="30" as="geometry" />
        </mxCell>
        <mxCell id="p3qqd_D9KfPlKefBA1SR-39" value="degree" style="rounded=0;whiteSpace=wrap;html=1;" parent="p3qqd_D9KfPlKefBA1SR-1" vertex="1">
          <mxGeometry x="360" y="410" width="120" height="30" as="geometry" />
        </mxCell>
        <mxCell id="p3qqd_D9KfPlKefBA1SR-43" style="edgeStyle=orthogonalEdgeStyle;rounded=0;orthogonalLoop=1;jettySize=auto;html=1;exitX=0.25;exitY=1;exitDx=0;exitDy=0;entryX=0.75;entryY=0;entryDx=0;entryDy=0;" parent="p3qqd_D9KfPlKefBA1SR-1" source="p3qqd_D9KfPlKefBA1SR-44" target="p3qqd_D9KfPlKefBA1SR-31" edge="1">
          <mxGeometry relative="1" as="geometry">
            <Array as="points">
              <mxPoint x="270" y="540" />
              <mxPoint x="90" y="540" />
            </Array>
          </mxGeometry>
        </mxCell>
        <mxCell id="p3qqd_D9KfPlKefBA1SR-44" value="&lt;u style=&quot;text-align: left;&quot;&gt;doctorID&lt;/u&gt;" style="rounded=0;whiteSpace=wrap;html=1;" parent="p3qqd_D9KfPlKefBA1SR-1" vertex="1">
          <mxGeometry x="240" y="410" width="120" height="30" as="geometry" />
        </mxCell>
        <mxCell id="p3qqd_D9KfPlKefBA1SR-45" value="theTeacgYear" style="rounded=0;whiteSpace=wrap;html=1;" parent="p3qqd_D9KfPlKefBA1SR-1" vertex="1">
          <mxGeometry x="480" y="410" width="120" height="30" as="geometry" />
        </mxCell>
      </root>
    </mxGraphModel>
  </diagram>
  <diagram name="Page-1" id="1Q5ZYspSmMg4kzvYdaaz">
    <mxGraphModel dx="1035" dy="673" grid="1" gridSize="10" guides="1" tooltips="1" connect="1" arrows="1" fold="1" page="1" pageScale="1" pageWidth="827" pageHeight="1169" math="0" shadow="0">
      <root>
        <mxCell id="0" />
        <mxCell id="1" parent="0" />
        <mxCell id="DYGue_wnSeGB_7utoe8J-4" style="edgeStyle=orthogonalEdgeStyle;rounded=1;orthogonalLoop=1;jettySize=auto;html=1;exitX=1;exitY=0.5;exitDx=0;exitDy=0;" parent="1" source="DYGue_wnSeGB_7utoe8J-2" target="DYGue_wnSeGB_7utoe8J-3" edge="1">
          <mxGeometry relative="1" as="geometry" />
        </mxCell>
        <mxCell id="DYGue_wnSeGB_7utoe8J-7" style="edgeStyle=orthogonalEdgeStyle;rounded=1;orthogonalLoop=1;jettySize=auto;html=1;exitX=1;exitY=0;exitDx=0;exitDy=0;entryX=0;entryY=0.5;entryDx=0;entryDy=0;" parent="1" source="DYGue_wnSeGB_7utoe8J-2" target="DYGue_wnSeGB_7utoe8J-5" edge="1">
          <mxGeometry relative="1" as="geometry" />
        </mxCell>
        <mxCell id="DYGue_wnSeGB_7utoe8J-16" style="edgeStyle=orthogonalEdgeStyle;rounded=1;orthogonalLoop=1;jettySize=auto;html=1;exitX=0;exitY=0.5;exitDx=0;exitDy=0;entryX=1;entryY=0.5;entryDx=0;entryDy=0;" parent="1" source="DYGue_wnSeGB_7utoe8J-2" target="jzODhcx-SWoq1ewXhHUn-1" edge="1">
          <mxGeometry relative="1" as="geometry">
            <mxPoint x="289" y="200" as="targetPoint" />
          </mxGeometry>
        </mxCell>
        <mxCell id="sTprscXMMJViJRH6MjqY-2" style="edgeStyle=orthogonalEdgeStyle;rounded=1;orthogonalLoop=1;jettySize=auto;html=1;exitX=0.25;exitY=1;exitDx=0;exitDy=0;entryX=0.5;entryY=0;entryDx=0;entryDy=0;" edge="1" parent="1" source="DYGue_wnSeGB_7utoe8J-2" target="sTprscXMMJViJRH6MjqY-5">
          <mxGeometry relative="1" as="geometry">
            <mxPoint x="319" y="240" as="targetPoint" />
          </mxGeometry>
        </mxCell>
        <mxCell id="DYGue_wnSeGB_7utoe8J-2" value="&lt;b&gt;Students&lt;/b&gt;" style="rounded=1;arcSize=10;whiteSpace=wrap;html=1;align=center;" parent="1" vertex="1">
          <mxGeometry x="329" y="160" width="100" height="40" as="geometry" />
        </mxCell>
        <mxCell id="DYGue_wnSeGB_7utoe8J-3" value="StudentID" style="ellipse;whiteSpace=wrap;html=1;align=center;fontStyle=4;rounded=1;" parent="1" vertex="1">
          <mxGeometry x="479" y="160" width="120" height="40" as="geometry" />
        </mxCell>
        <mxCell id="DYGue_wnSeGB_7utoe8J-5" value="name" style="ellipse;whiteSpace=wrap;html=1;align=center;rounded=1;" parent="1" vertex="1">
          <mxGeometry x="449" y="110" width="100" height="40" as="geometry" />
        </mxCell>
        <mxCell id="DYGue_wnSeGB_7utoe8J-9" value="&lt;b&gt;Note:&lt;/b&gt;&lt;div&gt;It could be here Siting number&lt;/div&gt;" style="shape=note;size=20;whiteSpace=wrap;html=1;align=left;rounded=1;" parent="1" vertex="1">
          <mxGeometry x="629" y="40" width="100" height="100" as="geometry" />
        </mxCell>
        <mxCell id="DYGue_wnSeGB_7utoe8J-10" style="edgeStyle=orthogonalEdgeStyle;rounded=1;orthogonalLoop=1;jettySize=auto;html=1;exitX=1;exitY=0;exitDx=0;exitDy=0;entryX=0;entryY=0.5;entryDx=0;entryDy=0;entryPerimeter=0;" parent="1" source="DYGue_wnSeGB_7utoe8J-3" target="DYGue_wnSeGB_7utoe8J-9" edge="1">
          <mxGeometry relative="1" as="geometry">
            <mxPoint x="579.0000000000041" y="170" as="sourcePoint" />
          </mxGeometry>
        </mxCell>
        <mxCell id="DYGue_wnSeGB_7utoe8J-24" style="edgeStyle=orthogonalEdgeStyle;rounded=1;orthogonalLoop=1;jettySize=auto;html=1;exitX=0;exitY=0.5;exitDx=0;exitDy=0;entryX=1;entryY=0.5;entryDx=0;entryDy=0;" parent="1" source="jzODhcx-SWoq1ewXhHUn-1" target="DYGue_wnSeGB_7utoe8J-20" edge="1">
          <mxGeometry relative="1" as="geometry">
            <mxPoint x="239" y="220" as="sourcePoint" />
            <Array as="points">
              <mxPoint x="140" y="200" />
              <mxPoint x="140" y="200" />
            </Array>
          </mxGeometry>
        </mxCell>
        <mxCell id="DYGue_wnSeGB_7utoe8J-20" value="The Year" style="ellipse;whiteSpace=wrap;html=1;align=center;rounded=1;" parent="1" vertex="1">
          <mxGeometry x="50" y="180" width="100" height="40" as="geometry" />
        </mxCell>
        <mxCell id="DYGue_wnSeGB_7utoe8J-28" style="edgeStyle=orthogonalEdgeStyle;rounded=1;orthogonalLoop=1;jettySize=auto;html=1;exitX=1;exitY=1;exitDx=0;exitDy=0;entryX=0;entryY=0.5;entryDx=0;entryDy=0;entryPerimeter=0;" parent="1" source="az-qgfYNR2RreYzCIfDl-1" target="DYGue_wnSeGB_7utoe8J-27" edge="1">
          <mxGeometry relative="1" as="geometry">
            <mxPoint x="524.5735931288071" y="254.14213562373084" as="sourcePoint" />
            <mxPoint x="637.5" y="340" as="targetPoint" />
            <Array as="points">
              <mxPoint x="628" y="260" />
            </Array>
          </mxGeometry>
        </mxCell>
        <mxCell id="DYGue_wnSeGB_7utoe8J-31" style="edgeStyle=orthogonalEdgeStyle;rounded=1;orthogonalLoop=1;jettySize=auto;html=1;exitX=1;exitY=0.5;exitDx=0;exitDy=0;entryX=0;entryY=0.5;entryDx=0;entryDy=0;" parent="1" source="az-qgfYNR2RreYzCIfDl-1" target="DYGue_wnSeGB_7utoe8J-29" edge="1">
          <mxGeometry relative="1" as="geometry">
            <Array as="points">
              <mxPoint x="650" y="240" />
              <mxPoint x="650" y="280" />
            </Array>
            <mxPoint x="567" y="260" as="sourcePoint" />
          </mxGeometry>
        </mxCell>
        <mxCell id="DYGue_wnSeGB_7utoe8J-32" style="edgeStyle=orthogonalEdgeStyle;rounded=1;orthogonalLoop=1;jettySize=auto;html=1;exitX=1;exitY=0;exitDx=0;exitDy=0;entryX=0;entryY=0.5;entryDx=0;entryDy=0;" parent="1" source="az-qgfYNR2RreYzCIfDl-1" target="DYGue_wnSeGB_7utoe8J-30" edge="1">
          <mxGeometry relative="1" as="geometry">
            <mxPoint x="609.4264068711929" y="254.14213562373095" as="sourcePoint" />
            <Array as="points">
              <mxPoint x="617" y="230" />
            </Array>
          </mxGeometry>
        </mxCell>
        <mxCell id="DYGue_wnSeGB_7utoe8J-34" style="edgeStyle=orthogonalEdgeStyle;rounded=1;orthogonalLoop=1;jettySize=auto;html=1;exitX=1;exitY=0;exitDx=0;exitDy=0;" parent="1" source="az-qgfYNR2RreYzCIfDl-1" target="DYGue_wnSeGB_7utoe8J-33" edge="1">
          <mxGeometry relative="1" as="geometry">
            <mxPoint x="627" y="240" as="sourcePoint" />
            <Array as="points">
              <mxPoint x="640" y="220" />
              <mxPoint x="640" y="200" />
              <mxPoint x="709" y="200" />
            </Array>
          </mxGeometry>
        </mxCell>
        <mxCell id="DYGue_wnSeGB_7utoe8J-27" value="HighSchoolCertificate" style="ellipse;whiteSpace=wrap;html=1;align=center;rounded=1;" parent="1" vertex="1">
          <mxGeometry x="640" y="310" width="140" height="40" as="geometry" />
        </mxCell>
        <mxCell id="DYGue_wnSeGB_7utoe8J-29" value="TrueCopy&lt;span style=&quot;color: rgba(0, 0, 0, 0); font-family: monospace; font-size: 0px; text-align: start; text-wrap: nowrap;&quot;&gt;%3CmxGraphModel%3E%3Croot%3E%3CmxCell%20id%3D%220%22%2F%3E%3CmxCell%20id%3D%221%22%20parent%3D%220%22%2F%3E%3CmxCell%20id%3D%222%22%20value%3D%22grades%22%20style%3D%22ellipse%3Bshape%3DdoubleEllipse%3Bmargin%3D3%3BwhiteSpace%3Dwrap%3Bhtml%3D1%3Balign%3Dcenter%3B%22%20vertex%3D%221%22%20parent%3D%221%22%3E%3CmxGeometry%20x%3D%22200%22%20y%3D%22180%22%20width%3D%22100%22%20height%3D%2240%22%20as%3D%22geometry%22%2F%3E%3C%2FmxCell%3E%3C%2Froot%3E%3C%2FmxGraphModel%3E&lt;/span&gt;" style="ellipse;whiteSpace=wrap;html=1;align=center;rounded=1;" parent="1" vertex="1">
          <mxGeometry x="677" y="260" width="100" height="40" as="geometry" />
        </mxCell>
        <mxCell id="DYGue_wnSeGB_7utoe8J-30" value="personalPhoto&lt;span style=&quot;color: rgba(0, 0, 0, 0); font-family: monospace; font-size: 0px; text-align: start; text-wrap: nowrap;&quot;&gt;%3CmxGraphModel%3E%3Croot%3E%3CmxCell%20id%3D%220%22%2F%3E%3CmxCell%20id%3D%221%22%20parent%3D%220%22%2F%3E%3CmxCell%20id%3D%222%22%20value%3D%22grades%22%20style%3D%22ellipse%3Bshape%3DdoubleEllipse%3Bmargin%3D3%3BwhiteSpace%3Dwrap%3Bhtml%3D1%3Balign%3Dcenter%3B%22%20vertex%3D%221%22%20parent%3D%221%22%3E%3CmxGeometry%20x%3D%22200%22%20y%3D%22180%22%20width%3D%22100%22%20height%3D%2240%22%20as%3D%22geometry%22%2F%3E%3C%2FmxCell%3E%3C%2Froot%3E%3C%2FmxGraphModel%3E&lt;/span&gt;" style="ellipse;whiteSpace=wrap;html=1;align=center;rounded=1;" parent="1" vertex="1">
          <mxGeometry x="657.5" y="210" width="100" height="40" as="geometry" />
        </mxCell>
        <mxCell id="DYGue_wnSeGB_7utoe8J-33" value="photoForProofDocuments" style="ellipse;whiteSpace=wrap;html=1;align=center;rounded=1;" parent="1" vertex="1">
          <mxGeometry x="617" y="150" width="160" height="40" as="geometry" />
        </mxCell>
        <mxCell id="DYGue_wnSeGB_7utoe8J-50" style="edgeStyle=orthogonalEdgeStyle;rounded=1;orthogonalLoop=1;jettySize=auto;html=1;exitX=0;exitY=0;exitDx=0;exitDy=0;entryX=1;entryY=0.5;entryDx=0;entryDy=0;" parent="1" source="DYGue_wnSeGB_7utoe8J-43" target="DYGue_wnSeGB_7utoe8J-45" edge="1">
          <mxGeometry relative="1" as="geometry" />
        </mxCell>
        <mxCell id="DYGue_wnSeGB_7utoe8J-51" style="edgeStyle=orthogonalEdgeStyle;rounded=1;orthogonalLoop=1;jettySize=auto;html=1;exitX=0;exitY=1;exitDx=0;exitDy=0;entryX=1;entryY=0;entryDx=0;entryDy=0;" parent="1" source="DYGue_wnSeGB_7utoe8J-43" target="DYGue_wnSeGB_7utoe8J-46" edge="1">
          <mxGeometry relative="1" as="geometry" />
        </mxCell>
        <mxCell id="DYGue_wnSeGB_7utoe8J-52" style="edgeStyle=orthogonalEdgeStyle;rounded=1;orthogonalLoop=1;jettySize=auto;html=1;exitX=0;exitY=0.5;exitDx=0;exitDy=0;entryX=1;entryY=0.5;entryDx=0;entryDy=0;" parent="1" source="DYGue_wnSeGB_7utoe8J-43" target="DYGue_wnSeGB_7utoe8J-44" edge="1">
          <mxGeometry relative="1" as="geometry" />
        </mxCell>
        <mxCell id="DYGue_wnSeGB_7utoe8J-53" style="edgeStyle=orthogonalEdgeStyle;rounded=1;orthogonalLoop=1;jettySize=auto;html=1;exitX=0.25;exitY=1;exitDx=0;exitDy=0;entryX=1;entryY=0.5;entryDx=0;entryDy=0;" parent="1" source="DYGue_wnSeGB_7utoe8J-43" target="DYGue_wnSeGB_7utoe8J-47" edge="1">
          <mxGeometry relative="1" as="geometry">
            <Array as="points">
              <mxPoint x="259" y="560" />
            </Array>
          </mxGeometry>
        </mxCell>
        <mxCell id="DYGue_wnSeGB_7utoe8J-54" style="edgeStyle=orthogonalEdgeStyle;rounded=1;orthogonalLoop=1;jettySize=auto;html=1;exitX=0.5;exitY=1;exitDx=0;exitDy=0;entryX=0.5;entryY=0;entryDx=0;entryDy=0;" parent="1" source="DYGue_wnSeGB_7utoe8J-43" target="DYGue_wnSeGB_7utoe8J-48" edge="1">
          <mxGeometry relative="1" as="geometry" />
        </mxCell>
        <mxCell id="DYGue_wnSeGB_7utoe8J-43" value="Group" style="whiteSpace=wrap;html=1;align=center;rounded=1;" parent="1" vertex="1">
          <mxGeometry x="234" y="420" width="100" height="40" as="geometry" />
        </mxCell>
        <mxCell id="DYGue_wnSeGB_7utoe8J-44" value="LevelNumber" style="ellipse;whiteSpace=wrap;html=1;align=center;rounded=1;" parent="1" vertex="1">
          <mxGeometry x="105" y="420" width="100" height="40" as="geometry" />
        </mxCell>
        <mxCell id="DYGue_wnSeGB_7utoe8J-45" value="Id" style="ellipse;whiteSpace=wrap;html=1;align=center;fontStyle=4;rounded=1;" parent="1" vertex="1">
          <mxGeometry x="105" y="360" width="100" height="40" as="geometry" />
        </mxCell>
        <mxCell id="DYGue_wnSeGB_7utoe8J-46" value="section&lt;span style=&quot;color: rgba(0, 0, 0, 0); font-family: monospace; font-size: 0px; text-align: start; text-wrap: nowrap;&quot;&gt;%3CmxGraphModel%3E%3Croot%3E%3CmxCell%20id%3D%220%22%2F%3E%3CmxCell%20id%3D%221%22%20parent%3D%220%22%2F%3E%3CmxCell%20id%3D%222%22%20value%3D%22LevelNumber%22%20style%3D%22ellipse%3BwhiteSpace%3Dwrap%3Bhtml%3D1%3Balign%3Dcenter%3B%22%20vertex%3D%221%22%20parent%3D%221%22%3E%3CmxGeometry%20x%3D%22200%22%20y%3D%22420%22%20width%3D%22100%22%20height%3D%2240%22%20as%3D%22geometry%22%2F%3E%3C%2FmxCell%3E%3C%2Froot%3E%3C%2FmxGraphModel%3E&lt;/span&gt;" style="ellipse;whiteSpace=wrap;html=1;align=center;rounded=1;" parent="1" vertex="1">
          <mxGeometry x="105" y="490" width="100" height="40" as="geometry" />
        </mxCell>
        <mxCell id="DYGue_wnSeGB_7utoe8J-47" value="specialization" style="ellipse;whiteSpace=wrap;html=1;align=center;rounded=1;" parent="1" vertex="1">
          <mxGeometry x="79" y="540" width="100" height="40" as="geometry" />
        </mxCell>
        <mxCell id="DYGue_wnSeGB_7utoe8J-48" value="Group" style="ellipse;whiteSpace=wrap;html=1;align=center;rounded=1;" parent="1" vertex="1">
          <mxGeometry x="169" y="580" width="100" height="40" as="geometry" />
        </mxCell>
        <mxCell id="DYGue_wnSeGB_7utoe8J-58" value="Relationship" style="shape=rhombus;perimeter=rhombusPerimeter;whiteSpace=wrap;html=1;align=center;rounded=1;" parent="1" vertex="1">
          <mxGeometry x="285" y="330" width="99" height="50" as="geometry" />
        </mxCell>
        <mxCell id="8GcGdIb9RUcMbgS2LS7q-34" style="edgeStyle=orthogonalEdgeStyle;rounded=1;orthogonalLoop=1;jettySize=auto;html=1;exitX=0.75;exitY=1;exitDx=0;exitDy=0;entryX=0;entryY=0.5;entryDx=0;entryDy=0;" parent="1" source="8GcGdIb9RUcMbgS2LS7q-1" target="8GcGdIb9RUcMbgS2LS7q-31" edge="1">
          <mxGeometry relative="1" as="geometry">
            <mxPoint x="559.5" y="585" as="targetPoint" />
            <Array as="points">
              <mxPoint x="466" y="680" />
              <mxPoint x="539" y="680" />
            </Array>
          </mxGeometry>
        </mxCell>
        <mxCell id="8GcGdIb9RUcMbgS2LS7q-35" style="edgeStyle=orthogonalEdgeStyle;rounded=1;orthogonalLoop=1;jettySize=auto;html=1;exitX=0;exitY=1;exitDx=0;exitDy=0;entryX=1;entryY=0.5;entryDx=0;entryDy=0;" parent="1" source="8GcGdIb9RUcMbgS2LS7q-1" target="8GcGdIb9RUcMbgS2LS7q-28" edge="1">
          <mxGeometry relative="1" as="geometry">
            <Array as="points">
              <mxPoint x="391" y="675" />
              <mxPoint x="395" y="675" />
              <mxPoint x="395" y="705" />
              <mxPoint x="371" y="705" />
            </Array>
          </mxGeometry>
        </mxCell>
        <mxCell id="8GcGdIb9RUcMbgS2LS7q-39" style="edgeStyle=orthogonalEdgeStyle;rounded=1;orthogonalLoop=1;jettySize=auto;html=1;exitX=0.5;exitY=1;exitDx=0;exitDy=0;" parent="1" source="8GcGdIb9RUcMbgS2LS7q-1" target="8GcGdIb9RUcMbgS2LS7q-33" edge="1">
          <mxGeometry relative="1" as="geometry" />
        </mxCell>
        <mxCell id="8GcGdIb9RUcMbgS2LS7q-1" value="Doctor" style="whiteSpace=wrap;html=1;align=center;rounded=1;" parent="1" vertex="1">
          <mxGeometry x="390.5" y="605" width="100" height="40" as="geometry" />
        </mxCell>
        <mxCell id="8GcGdIb9RUcMbgS2LS7q-21" style="edgeStyle=orthogonalEdgeStyle;rounded=1;orthogonalLoop=1;jettySize=auto;html=1;exitX=1;exitY=0;exitDx=0;exitDy=0;entryX=0;entryY=0.5;entryDx=0;entryDy=0;" parent="1" source="8GcGdIb9RUcMbgS2LS7q-2" target="8GcGdIb9RUcMbgS2LS7q-19" edge="1">
          <mxGeometry relative="1" as="geometry">
            <Array as="points">
              <mxPoint x="539" y="420" />
            </Array>
          </mxGeometry>
        </mxCell>
        <mxCell id="8GcGdIb9RUcMbgS2LS7q-22" style="edgeStyle=orthogonalEdgeStyle;rounded=1;orthogonalLoop=1;jettySize=auto;html=1;exitX=1;exitY=1;exitDx=0;exitDy=0;entryX=0;entryY=0.5;entryDx=0;entryDy=0;" parent="1" source="8GcGdIb9RUcMbgS2LS7q-2" target="8GcGdIb9RUcMbgS2LS7q-20" edge="1">
          <mxGeometry relative="1" as="geometry">
            <Array as="points">
              <mxPoint x="530" y="460" />
              <mxPoint x="530" y="460" />
            </Array>
          </mxGeometry>
        </mxCell>
        <mxCell id="8GcGdIb9RUcMbgS2LS7q-2" value="Subjects" style="whiteSpace=wrap;html=1;align=center;rounded=1;" parent="1" vertex="1">
          <mxGeometry x="420" y="420" width="100" height="40" as="geometry" />
        </mxCell>
        <mxCell id="8GcGdIb9RUcMbgS2LS7q-5" value="" style="endArrow=none;html=1;rounded=1;entryX=0.5;entryY=0;entryDx=0;entryDy=0;exitX=0.5;exitY=1;exitDx=0;exitDy=0;" parent="1" source="DYGue_wnSeGB_7utoe8J-2" target="DYGue_wnSeGB_7utoe8J-58" edge="1">
          <mxGeometry relative="1" as="geometry">
            <mxPoint x="229" y="250" as="sourcePoint" />
            <mxPoint x="389" y="250" as="targetPoint" />
          </mxGeometry>
        </mxCell>
        <mxCell id="8GcGdIb9RUcMbgS2LS7q-6" value="1" style="resizable=0;html=1;whiteSpace=wrap;align=right;verticalAlign=bottom;rounded=1;" parent="8GcGdIb9RUcMbgS2LS7q-5" connectable="0" vertex="1">
          <mxGeometry x="1" relative="1" as="geometry">
            <mxPoint x="-10" y="60" as="offset" />
          </mxGeometry>
        </mxCell>
        <mxCell id="8GcGdIb9RUcMbgS2LS7q-7" value="" style="endArrow=none;html=1;rounded=1;exitX=0.5;exitY=0;exitDx=0;exitDy=0;entryX=0.5;entryY=1;entryDx=0;entryDy=0;" parent="1" source="DYGue_wnSeGB_7utoe8J-43" target="DYGue_wnSeGB_7utoe8J-58" edge="1">
          <mxGeometry relative="1" as="geometry">
            <mxPoint x="324" y="380" as="sourcePoint" />
            <mxPoint x="484" y="380" as="targetPoint" />
          </mxGeometry>
        </mxCell>
        <mxCell id="8GcGdIb9RUcMbgS2LS7q-8" value="N" style="resizable=0;html=1;whiteSpace=wrap;align=right;verticalAlign=bottom;rounded=1;" parent="8GcGdIb9RUcMbgS2LS7q-7" connectable="0" vertex="1">
          <mxGeometry x="1" relative="1" as="geometry">
            <mxPoint x="16" y="-50" as="offset" />
          </mxGeometry>
        </mxCell>
        <mxCell id="8GcGdIb9RUcMbgS2LS7q-19" value="&lt;u&gt;id&lt;/u&gt;" style="ellipse;whiteSpace=wrap;html=1;align=center;rounded=1;" parent="1" vertex="1">
          <mxGeometry x="539" y="370" width="100" height="40" as="geometry" />
        </mxCell>
        <mxCell id="8GcGdIb9RUcMbgS2LS7q-20" value="Name" style="ellipse;whiteSpace=wrap;html=1;align=center;rounded=1;" parent="1" vertex="1">
          <mxGeometry x="540" y="440" width="100" height="40" as="geometry" />
        </mxCell>
        <mxCell id="8GcGdIb9RUcMbgS2LS7q-28" value="name" style="ellipse;whiteSpace=wrap;html=1;align=center;rounded=1;" parent="1" vertex="1">
          <mxGeometry x="270.5" y="715" width="100" height="40" as="geometry" />
        </mxCell>
        <mxCell id="8GcGdIb9RUcMbgS2LS7q-31" value="id" style="ellipse;whiteSpace=wrap;html=1;align=center;fontStyle=4;rounded=1;" parent="1" vertex="1">
          <mxGeometry x="539" y="680" width="100" height="40" as="geometry" />
        </mxCell>
        <mxCell id="8GcGdIb9RUcMbgS2LS7q-33" value="experienceYears" style="ellipse;whiteSpace=wrap;html=1;align=center;rounded=1;" parent="1" vertex="1">
          <mxGeometry x="390.5" y="720" width="100" height="40" as="geometry" />
        </mxCell>
        <mxCell id="ydSG-vQqMq0Kg8QW4YPG-2" value="&lt;h1 style=&quot;margin-top: 0px;&quot;&gt;ERD:&lt;/h1&gt;&lt;p style=&quot;line-height: 0%;&quot;&gt;this projects for students and doctors orgnzition.&lt;/p&gt;" style="text;html=1;whiteSpace=wrap;overflow=hidden;rounded=1;" parent="1" vertex="1">
          <mxGeometry x="30" y="890" width="710" height="80" as="geometry" />
        </mxCell>
        <mxCell id="ydSG-vQqMq0Kg8QW4YPG-3" value="&lt;h1 style=&quot;margin-top: 0px; margin-bottom: 8px; line-height: 120%;&quot;&gt;&lt;span style=&quot;background-color: initial;&quot;&gt;Note:&lt;/span&gt;&lt;/h1&gt;&lt;h1 style=&quot;margin-top: 0px; line-height: 0%;&quot;&gt;&lt;ul style=&quot;margin-bottom: 0px; line-height: 0%;&quot;&gt;&lt;li&gt;&lt;span style=&quot;background-color: initial; font-size: 12px; font-weight: normal;&quot;&gt;any note will be here&amp;gt;&lt;/span&gt;&lt;/li&gt;&lt;/ul&gt;&lt;/h1&gt;" style="text;html=1;whiteSpace=wrap;overflow=hidden;rounded=1;" parent="1" vertex="1">
          <mxGeometry x="30" y="960" width="710" height="80" as="geometry" />
        </mxCell>
        <mxCell id="az-qgfYNR2RreYzCIfDl-12" style="edgeStyle=orthogonalEdgeStyle;rounded=1;orthogonalLoop=1;jettySize=auto;html=1;exitX=0;exitY=0.5;exitDx=0;exitDy=0;entryX=0;entryY=0;entryDx=75;entryDy=20;entryPerimeter=0;" edge="1" parent="1" source="sTprscXMMJViJRH6MjqY-5" target="az-qgfYNR2RreYzCIfDl-13">
          <mxGeometry relative="1" as="geometry">
            <mxPoint x="90" y="270" as="targetPoint" />
            <Array as="points">
              <mxPoint x="80" y="260" />
            </Array>
          </mxGeometry>
        </mxCell>
        <mxCell id="sTprscXMMJViJRH6MjqY-5" value="finalGrades" style="ellipse;whiteSpace=wrap;html=1;align=center;dashed=1;rounded=1;" vertex="1" parent="1">
          <mxGeometry x="220" y="240" width="100" height="40" as="geometry" />
        </mxCell>
        <mxCell id="az-qgfYNR2RreYzCIfDl-9" style="edgeStyle=orthogonalEdgeStyle;rounded=1;orthogonalLoop=1;jettySize=auto;html=1;exitX=0.969;exitY=0.498;exitDx=0;exitDy=0;entryX=0;entryY=0.5;entryDx=0;entryDy=0;exitPerimeter=0;" edge="1" parent="1" source="sTprscXMMJViJRH6MjqY-6" target="az-qgfYNR2RreYzCIfDl-8">
          <mxGeometry relative="1" as="geometry">
            <Array as="points">
              <mxPoint x="486" y="340" />
            </Array>
          </mxGeometry>
        </mxCell>
        <mxCell id="sTprscXMMJViJRH6MjqY-6" value="Study" style="shape=rhombus;perimeter=rhombusPerimeter;whiteSpace=wrap;html=1;align=center;rounded=1;" vertex="1" parent="1">
          <mxGeometry x="390" y="330" width="99" height="50" as="geometry" />
        </mxCell>
        <mxCell id="sTprscXMMJViJRH6MjqY-9" value="" style="endArrow=none;html=1;rounded=1;exitX=0.5;exitY=0;exitDx=0;exitDy=0;entryX=0.5;entryY=1;entryDx=0;entryDy=0;" edge="1" parent="1" source="8GcGdIb9RUcMbgS2LS7q-2" target="sTprscXMMJViJRH6MjqY-6">
          <mxGeometry relative="1" as="geometry">
            <mxPoint x="450" y="490" as="sourcePoint" />
            <mxPoint x="610" y="490" as="targetPoint" />
          </mxGeometry>
        </mxCell>
        <mxCell id="sTprscXMMJViJRH6MjqY-10" value="M" style="resizable=0;html=1;whiteSpace=wrap;align=right;verticalAlign=bottom;rounded=1;" connectable="0" vertex="1" parent="sTprscXMMJViJRH6MjqY-9">
          <mxGeometry x="1" relative="1" as="geometry" />
        </mxCell>
        <mxCell id="sTprscXMMJViJRH6MjqY-11" value="" style="endArrow=none;html=1;rounded=1;exitX=0.75;exitY=1;exitDx=0;exitDy=0;entryX=0.5;entryY=0;entryDx=0;entryDy=0;" edge="1" parent="1" source="DYGue_wnSeGB_7utoe8J-2" target="sTprscXMMJViJRH6MjqY-6">
          <mxGeometry relative="1" as="geometry">
            <mxPoint x="508" y="360" as="sourcePoint" />
            <mxPoint x="419" y="330" as="targetPoint" />
          </mxGeometry>
        </mxCell>
        <mxCell id="sTprscXMMJViJRH6MjqY-12" value="N" style="resizable=0;html=1;whiteSpace=wrap;align=right;verticalAlign=bottom;rounded=1;" connectable="0" vertex="1" parent="sTprscXMMJViJRH6MjqY-11">
          <mxGeometry x="1" relative="1" as="geometry" />
        </mxCell>
        <mxCell id="az-qgfYNR2RreYzCIfDl-11" style="edgeStyle=orthogonalEdgeStyle;rounded=1;orthogonalLoop=1;jettySize=auto;html=1;exitX=0;exitY=0.5;exitDx=0;exitDy=0;entryX=1;entryY=0.5;entryDx=0;entryDy=0;" edge="1" parent="1" source="sTprscXMMJViJRH6MjqY-15" target="az-qgfYNR2RreYzCIfDl-10">
          <mxGeometry relative="1" as="geometry" />
        </mxCell>
        <mxCell id="sTprscXMMJViJRH6MjqY-15" value="Teach" style="shape=rhombus;perimeter=rhombusPerimeter;whiteSpace=wrap;html=1;align=center;rounded=1;" vertex="1" parent="1">
          <mxGeometry x="420" y="510" width="90" height="40" as="geometry" />
        </mxCell>
        <mxCell id="sTprscXMMJViJRH6MjqY-17" value="" style="endArrow=none;html=1;rounded=1;exitX=0.5;exitY=1;exitDx=0;exitDy=0;entryX=0.5;entryY=0;entryDx=0;entryDy=0;" edge="1" parent="1" source="8GcGdIb9RUcMbgS2LS7q-2" target="sTprscXMMJViJRH6MjqY-15">
          <mxGeometry relative="1" as="geometry">
            <mxPoint x="510" y="550" as="sourcePoint" />
            <mxPoint x="670" y="550" as="targetPoint" />
          </mxGeometry>
        </mxCell>
        <mxCell id="sTprscXMMJViJRH6MjqY-18" value="N" style="resizable=0;html=1;whiteSpace=wrap;align=right;verticalAlign=bottom;rounded=1;" connectable="0" vertex="1" parent="sTprscXMMJViJRH6MjqY-17">
          <mxGeometry x="1" relative="1" as="geometry" />
        </mxCell>
        <mxCell id="sTprscXMMJViJRH6MjqY-19" value="" style="endArrow=none;html=1;rounded=1;exitX=0.5;exitY=0;exitDx=0;exitDy=0;entryX=0.5;entryY=1;entryDx=0;entryDy=0;" edge="1" parent="1" source="8GcGdIb9RUcMbgS2LS7q-1" target="sTprscXMMJViJRH6MjqY-15">
          <mxGeometry relative="1" as="geometry">
            <mxPoint x="270" y="670" as="sourcePoint" />
            <mxPoint x="465" y="530" as="targetPoint" />
          </mxGeometry>
        </mxCell>
        <mxCell id="sTprscXMMJViJRH6MjqY-20" value="M" style="resizable=0;html=1;whiteSpace=wrap;align=right;verticalAlign=bottom;rounded=1;" connectable="0" vertex="1" parent="sTprscXMMJViJRH6MjqY-19">
          <mxGeometry x="1" relative="1" as="geometry" />
        </mxCell>
        <mxCell id="az-qgfYNR2RreYzCIfDl-1" value="&lt;b&gt;Documents&lt;/b&gt;" style="rounded=1;arcSize=10;whiteSpace=wrap;html=1;align=center;" vertex="1" parent="1">
          <mxGeometry x="529" y="220" width="100" height="40" as="geometry" />
        </mxCell>
        <mxCell id="az-qgfYNR2RreYzCIfDl-2" value="Has" style="shape=rhombus;perimeter=rhombusPerimeter;whiteSpace=wrap;html=1;align=center;rounded=1;" vertex="1" parent="1">
          <mxGeometry x="429" y="225" width="80" height="30" as="geometry" />
        </mxCell>
        <mxCell id="az-qgfYNR2RreYzCIfDl-3" value="" style="endArrow=none;html=1;rounded=1;exitX=1;exitY=1;exitDx=0;exitDy=0;entryX=0;entryY=0.5;entryDx=0;entryDy=0;" edge="1" parent="1" source="DYGue_wnSeGB_7utoe8J-2" target="az-qgfYNR2RreYzCIfDl-2">
          <mxGeometry relative="1" as="geometry">
            <mxPoint x="440" y="280" as="sourcePoint" />
            <mxPoint x="600" y="280" as="targetPoint" />
          </mxGeometry>
        </mxCell>
        <mxCell id="az-qgfYNR2RreYzCIfDl-4" value="1" style="resizable=0;html=1;whiteSpace=wrap;align=right;verticalAlign=bottom;rounded=1;" connectable="0" vertex="1" parent="az-qgfYNR2RreYzCIfDl-3">
          <mxGeometry x="1" relative="1" as="geometry" />
        </mxCell>
        <mxCell id="az-qgfYNR2RreYzCIfDl-5" value="" style="endArrow=none;html=1;rounded=1;entryX=1;entryY=0.5;entryDx=0;entryDy=0;exitX=0;exitY=0.5;exitDx=0;exitDy=0;" edge="1" parent="1" source="az-qgfYNR2RreYzCIfDl-1" target="az-qgfYNR2RreYzCIfDl-2">
          <mxGeometry relative="1" as="geometry">
            <mxPoint x="490" y="290" as="sourcePoint" />
            <mxPoint x="650" y="290" as="targetPoint" />
          </mxGeometry>
        </mxCell>
        <mxCell id="az-qgfYNR2RreYzCIfDl-6" value="1" style="resizable=0;html=1;whiteSpace=wrap;align=right;verticalAlign=bottom;rounded=1;" connectable="0" vertex="1" parent="az-qgfYNR2RreYzCIfDl-5">
          <mxGeometry x="1" relative="1" as="geometry" />
        </mxCell>
        <mxCell id="az-qgfYNR2RreYzCIfDl-8" value="degree" style="ellipse;whiteSpace=wrap;html=1;align=center;rounded=1;" vertex="1" parent="1">
          <mxGeometry x="510" y="300" width="100" height="40" as="geometry" />
        </mxCell>
        <mxCell id="az-qgfYNR2RreYzCIfDl-10" value="The Year Of teach" style="ellipse;whiteSpace=wrap;html=1;align=center;rounded=1;" vertex="1" parent="1">
          <mxGeometry x="300" y="510" width="100" height="40" as="geometry" />
        </mxCell>
        <mxCell id="az-qgfYNR2RreYzCIfDl-13" value="finalGrads= (gradslevelone+ ...)/4" style="shape=note;size=20;whiteSpace=wrap;html=1;rounded=1;" vertex="1" parent="1">
          <mxGeometry x="5" y="230" width="75" height="80" as="geometry" />
        </mxCell>
        <mxCell id="jzODhcx-SWoq1ewXhHUn-1" value="Grade" style="ellipse;shape=doubleEllipse;margin=3;whiteSpace=wrap;html=1;align=center;rounded=1;" vertex="1" parent="1">
          <mxGeometry x="189" y="180" width="100" height="40" as="geometry" />
        </mxCell>
      </root>
    </mxGraphModel>
  </diagram>
  <diagram name="Copy of Page-2" id="hhOfDQZ0_BYze4ZTd-FH">
    <mxGraphModel dx="1035" dy="673" grid="1" gridSize="10" guides="1" tooltips="1" connect="1" arrows="1" fold="1" page="1" pageScale="1" pageWidth="827" pageHeight="1169" math="0" shadow="0">
      <root>
        <mxCell id="WsfQ0gJqeW1RcLuzfs2A-0" />
        <mxCell id="WsfQ0gJqeW1RcLuzfs2A-1" parent="WsfQ0gJqeW1RcLuzfs2A-0" />
        <mxCell id="WsfQ0gJqeW1RcLuzfs2A-2" value="&lt;b&gt;&lt;font style=&quot;font-size: 16px;&quot;&gt;Students&lt;/font&gt;&lt;/b&gt;" style="text;html=1;align=left;verticalAlign=middle;whiteSpace=wrap;rounded=0;" vertex="1" parent="WsfQ0gJqeW1RcLuzfs2A-1">
          <mxGeometry y="40" width="80" height="30" as="geometry" />
        </mxCell>
        <mxCell id="WsfQ0gJqeW1RcLuzfs2A-3" value="&lt;span style=&quot;text-decoration-line: underline;&quot;&gt;StudentID&lt;/span&gt;" style="rounded=0;whiteSpace=wrap;html=1;" vertex="1" parent="WsfQ0gJqeW1RcLuzfs2A-1">
          <mxGeometry y="70" width="120" height="30" as="geometry" />
        </mxCell>
        <mxCell id="WsfQ0gJqeW1RcLuzfs2A-4" value="name" style="rounded=0;whiteSpace=wrap;html=1;" vertex="1" parent="WsfQ0gJqeW1RcLuzfs2A-1">
          <mxGeometry x="120" y="70" width="120" height="30" as="geometry" />
        </mxCell>
        <mxCell id="WsfQ0gJqeW1RcLuzfs2A-5" value="birthDate" style="rounded=0;whiteSpace=wrap;html=1;" vertex="1" parent="WsfQ0gJqeW1RcLuzfs2A-1">
          <mxGeometry x="240" y="70" width="120" height="30" as="geometry" />
        </mxCell>
        <mxCell id="P2bT3adQXJ-uKcDImtXQ-0" style="edgeStyle=orthogonalEdgeStyle;rounded=0;orthogonalLoop=1;jettySize=auto;html=1;exitX=0.5;exitY=1;exitDx=0;exitDy=0;entryX=0.75;entryY=0;entryDx=0;entryDy=0;" edge="1" parent="WsfQ0gJqeW1RcLuzfs2A-1" source="WsfQ0gJqeW1RcLuzfs2A-6" target="WsfQ0gJqeW1RcLuzfs2A-27">
          <mxGeometry relative="1" as="geometry">
            <Array as="points">
              <mxPoint x="420" y="240" />
              <mxPoint x="630" y="240" />
              <mxPoint x="630" y="290" />
              <mxPoint x="90" y="290" />
            </Array>
          </mxGeometry>
        </mxCell>
        <mxCell id="WsfQ0gJqeW1RcLuzfs2A-6" value="groupID" style="rounded=0;whiteSpace=wrap;html=1;" vertex="1" parent="WsfQ0gJqeW1RcLuzfs2A-1">
          <mxGeometry x="360" y="70" width="120" height="30" as="geometry" />
        </mxCell>
        <mxCell id="WsfQ0gJqeW1RcLuzfs2A-9" value="&lt;span style=&quot;text-align: center;&quot;&gt;&lt;b&gt;&lt;font style=&quot;font-size: 16px;&quot;&gt;Grade&lt;/font&gt;&lt;/b&gt;&lt;/span&gt;" style="text;html=1;align=left;verticalAlign=middle;whiteSpace=wrap;rounded=0;" vertex="1" parent="WsfQ0gJqeW1RcLuzfs2A-1">
          <mxGeometry y="140" width="80" height="30" as="geometry" />
        </mxCell>
        <mxCell id="WsfQ0gJqeW1RcLuzfs2A-10" style="edgeStyle=orthogonalEdgeStyle;rounded=1;orthogonalLoop=1;jettySize=auto;html=1;exitX=0.75;exitY=0;exitDx=0;exitDy=0;entryX=0.75;entryY=1;entryDx=0;entryDy=0;" edge="1" parent="WsfQ0gJqeW1RcLuzfs2A-1" source="WsfQ0gJqeW1RcLuzfs2A-11" target="WsfQ0gJqeW1RcLuzfs2A-3">
          <mxGeometry relative="1" as="geometry" />
        </mxCell>
        <mxCell id="WsfQ0gJqeW1RcLuzfs2A-11" value="&lt;span style=&quot;text-decoration-line: underline;&quot;&gt;StudentID&lt;/span&gt;" style="rounded=0;whiteSpace=wrap;html=1;" vertex="1" parent="WsfQ0gJqeW1RcLuzfs2A-1">
          <mxGeometry y="170" width="120" height="30" as="geometry" />
        </mxCell>
        <mxCell id="WsfQ0gJqeW1RcLuzfs2A-12" value="&lt;u&gt;LevelNumber&lt;/u&gt;" style="rounded=0;whiteSpace=wrap;html=1;" vertex="1" parent="WsfQ0gJqeW1RcLuzfs2A-1">
          <mxGeometry x="120" y="170" width="120" height="30" as="geometry" />
        </mxCell>
        <mxCell id="WsfQ0gJqeW1RcLuzfs2A-13" value="degree" style="rounded=0;whiteSpace=wrap;html=1;" vertex="1" parent="WsfQ0gJqeW1RcLuzfs2A-1">
          <mxGeometry x="240" y="170" width="120" height="30" as="geometry" />
        </mxCell>
        <mxCell id="WsfQ0gJqeW1RcLuzfs2A-16" value="&lt;b style=&quot;text-align: center;&quot;&gt;&lt;font style=&quot;font-size: 15px;&quot;&gt;Documents&lt;/font&gt;&lt;/b&gt;" style="text;html=1;align=left;verticalAlign=middle;whiteSpace=wrap;rounded=0;" vertex="1" parent="WsfQ0gJqeW1RcLuzfs2A-1">
          <mxGeometry y="220" width="80" height="30" as="geometry" />
        </mxCell>
        <mxCell id="uQSBsNQwAcZU9StJjGcH-0" style="edgeStyle=orthogonalEdgeStyle;rounded=0;orthogonalLoop=1;jettySize=auto;html=1;exitX=0.75;exitY=0;exitDx=0;exitDy=0;entryX=0.5;entryY=1;entryDx=0;entryDy=0;" edge="1" parent="WsfQ0gJqeW1RcLuzfs2A-1" source="WsfQ0gJqeW1RcLuzfs2A-18" target="WsfQ0gJqeW1RcLuzfs2A-3">
          <mxGeometry relative="1" as="geometry">
            <Array as="points">
              <mxPoint x="90" y="210" />
              <mxPoint x="380" y="210" />
              <mxPoint x="380" y="160" />
              <mxPoint x="60" y="160" />
            </Array>
          </mxGeometry>
        </mxCell>
        <mxCell id="WsfQ0gJqeW1RcLuzfs2A-18" value="&lt;span style=&quot;text-decoration-line: underline;&quot;&gt;StudentID&lt;/span&gt;" style="rounded=0;whiteSpace=wrap;html=1;" vertex="1" parent="WsfQ0gJqeW1RcLuzfs2A-1">
          <mxGeometry y="250" width="120" height="30" as="geometry" />
        </mxCell>
        <mxCell id="WsfQ0gJqeW1RcLuzfs2A-19" value="photoForProof-&lt;span style=&quot;background-color: initial;&quot;&gt;Documents&lt;/span&gt;" style="rounded=0;whiteSpace=wrap;html=1;" vertex="1" parent="WsfQ0gJqeW1RcLuzfs2A-1">
          <mxGeometry x="120" y="250" width="120" height="30" as="geometry" />
        </mxCell>
        <mxCell id="WsfQ0gJqeW1RcLuzfs2A-20" value="personalPhoto" style="rounded=0;whiteSpace=wrap;html=1;" vertex="1" parent="WsfQ0gJqeW1RcLuzfs2A-1">
          <mxGeometry x="240" y="250" width="120" height="30" as="geometry" />
        </mxCell>
        <mxCell id="WsfQ0gJqeW1RcLuzfs2A-21" value="TrueCopy" style="rounded=0;whiteSpace=wrap;html=1;" vertex="1" parent="WsfQ0gJqeW1RcLuzfs2A-1">
          <mxGeometry x="360" y="250" width="120" height="30" as="geometry" />
        </mxCell>
        <mxCell id="WsfQ0gJqeW1RcLuzfs2A-22" value="HighSchoolCertificate" style="rounded=0;whiteSpace=wrap;html=1;" vertex="1" parent="WsfQ0gJqeW1RcLuzfs2A-1">
          <mxGeometry x="480" y="250" width="120" height="30" as="geometry" />
        </mxCell>
        <mxCell id="WsfQ0gJqeW1RcLuzfs2A-23" value="" style="line;strokeWidth=1;rotatable=0;dashed=0;labelPosition=right;align=left;verticalAlign=middle;spacingTop=0;spacingLeft=6;points=[];portConstraint=eastwest;rounded=1;" vertex="1" parent="WsfQ0gJqeW1RcLuzfs2A-1">
          <mxGeometry x="30" y="85" width="60" height="10" as="geometry" />
        </mxCell>
        <mxCell id="WsfQ0gJqeW1RcLuzfs2A-26" value="&lt;span style=&quot;text-align: center;&quot;&gt;&lt;b&gt;&lt;font style=&quot;font-size: 16px;&quot;&gt;Group&lt;/font&gt;&lt;/b&gt;&lt;/span&gt;" style="text;html=1;align=left;verticalAlign=middle;whiteSpace=wrap;rounded=0;" vertex="1" parent="WsfQ0gJqeW1RcLuzfs2A-1">
          <mxGeometry y="300" width="80" height="30" as="geometry" />
        </mxCell>
        <mxCell id="WsfQ0gJqeW1RcLuzfs2A-27" value="groupID" style="rounded=0;whiteSpace=wrap;html=1;fontStyle=4" vertex="1" parent="WsfQ0gJqeW1RcLuzfs2A-1">
          <mxGeometry y="330" width="120" height="30" as="geometry" />
        </mxCell>
        <mxCell id="WsfQ0gJqeW1RcLuzfs2A-28" value="LevelNumber" style="rounded=0;whiteSpace=wrap;html=1;" vertex="1" parent="WsfQ0gJqeW1RcLuzfs2A-1">
          <mxGeometry x="120" y="330" width="120" height="30" as="geometry" />
        </mxCell>
        <mxCell id="WsfQ0gJqeW1RcLuzfs2A-29" value="section" style="rounded=0;whiteSpace=wrap;html=1;" vertex="1" parent="WsfQ0gJqeW1RcLuzfs2A-1">
          <mxGeometry x="240" y="330" width="120" height="30" as="geometry" />
        </mxCell>
        <mxCell id="WsfQ0gJqeW1RcLuzfs2A-30" value="specialization" style="rounded=0;whiteSpace=wrap;html=1;" vertex="1" parent="WsfQ0gJqeW1RcLuzfs2A-1">
          <mxGeometry x="360" y="330" width="120" height="30" as="geometry" />
        </mxCell>
        <mxCell id="WsfQ0gJqeW1RcLuzfs2A-31" value="Group" style="rounded=0;whiteSpace=wrap;html=1;" vertex="1" parent="WsfQ0gJqeW1RcLuzfs2A-1">
          <mxGeometry x="480" y="330" width="120" height="30" as="geometry" />
        </mxCell>
        <mxCell id="WsfQ0gJqeW1RcLuzfs2A-32" value="&lt;font style=&quot;font-size: 16px;&quot;&gt;&lt;b&gt;Subjects&lt;/b&gt;&lt;/font&gt;" style="text;html=1;align=left;verticalAlign=middle;whiteSpace=wrap;rounded=0;" vertex="1" parent="WsfQ0gJqeW1RcLuzfs2A-1">
          <mxGeometry y="460" width="80" height="30" as="geometry" />
        </mxCell>
        <mxCell id="WsfQ0gJqeW1RcLuzfs2A-33" value="&lt;u&gt;subjectID&lt;/u&gt;" style="rounded=0;whiteSpace=wrap;html=1;" vertex="1" parent="WsfQ0gJqeW1RcLuzfs2A-1">
          <mxGeometry y="490" width="120" height="30" as="geometry" />
        </mxCell>
        <mxCell id="WsfQ0gJqeW1RcLuzfs2A-34" value="Name" style="rounded=0;whiteSpace=wrap;html=1;" vertex="1" parent="WsfQ0gJqeW1RcLuzfs2A-1">
          <mxGeometry x="120" y="490" width="120" height="30" as="geometry" />
        </mxCell>
        <mxCell id="WsfQ0gJqeW1RcLuzfs2A-43" value="&lt;b&gt;&lt;font style=&quot;font-size: 16px;&quot;&gt;Doctor&lt;/font&gt;&lt;/b&gt;" style="text;html=1;align=left;verticalAlign=middle;whiteSpace=wrap;rounded=0;" vertex="1" parent="WsfQ0gJqeW1RcLuzfs2A-1">
          <mxGeometry y="650" width="80" height="30" as="geometry" />
        </mxCell>
        <mxCell id="WsfQ0gJqeW1RcLuzfs2A-44" value="&lt;div style=&quot;text-align: left;&quot;&gt;&lt;span style=&quot;background-color: initial;&quot;&gt;&lt;font style=&quot;font-size: 12px;&quot;&gt;&lt;u&gt;doctorID&lt;/u&gt;&lt;/font&gt;&lt;/span&gt;&lt;/div&gt;" style="rounded=0;whiteSpace=wrap;html=1;" vertex="1" parent="WsfQ0gJqeW1RcLuzfs2A-1">
          <mxGeometry y="680" width="120" height="30" as="geometry" />
        </mxCell>
        <mxCell id="WsfQ0gJqeW1RcLuzfs2A-45" value="name" style="rounded=0;whiteSpace=wrap;html=1;" vertex="1" parent="WsfQ0gJqeW1RcLuzfs2A-1">
          <mxGeometry x="120" y="680" width="120" height="30" as="geometry" />
        </mxCell>
        <mxCell id="WsfQ0gJqeW1RcLuzfs2A-49" value="experienceYears" style="rounded=0;whiteSpace=wrap;html=1;" vertex="1" parent="WsfQ0gJqeW1RcLuzfs2A-1">
          <mxGeometry x="240" y="680" width="120" height="30" as="geometry" />
        </mxCell>
        <mxCell id="sOu7exPHcrD0Afpc5wsP-0" value="&lt;span style=&quot;text-align: center;&quot;&gt;&lt;b&gt;&lt;font style=&quot;font-size: 16px;&quot;&gt;Study&lt;/font&gt;&lt;/b&gt;&lt;/span&gt;" style="text;html=1;align=left;verticalAlign=middle;whiteSpace=wrap;rounded=0;" vertex="1" parent="WsfQ0gJqeW1RcLuzfs2A-1">
          <mxGeometry y="380" width="80" height="30" as="geometry" />
        </mxCell>
        <mxCell id="YIlISEspFnnWIcvAnudL-4" style="edgeStyle=orthogonalEdgeStyle;rounded=0;orthogonalLoop=1;jettySize=auto;html=1;exitX=0.75;exitY=1;exitDx=0;exitDy=0;entryX=0.75;entryY=0;entryDx=0;entryDy=0;" edge="1" parent="WsfQ0gJqeW1RcLuzfs2A-1" source="sOu7exPHcrD0Afpc5wsP-1" target="WsfQ0gJqeW1RcLuzfs2A-33">
          <mxGeometry relative="1" as="geometry" />
        </mxCell>
        <mxCell id="sOu7exPHcrD0Afpc5wsP-1" value="&lt;u&gt;subjectID&lt;/u&gt;" style="rounded=0;whiteSpace=wrap;html=1;" vertex="1" parent="WsfQ0gJqeW1RcLuzfs2A-1">
          <mxGeometry y="410" width="120" height="30" as="geometry" />
        </mxCell>
        <mxCell id="YIlISEspFnnWIcvAnudL-5" style="edgeStyle=orthogonalEdgeStyle;rounded=0;orthogonalLoop=1;jettySize=auto;html=1;exitX=0.75;exitY=0;exitDx=0;exitDy=0;entryX=1;entryY=1;entryDx=0;entryDy=0;" edge="1" parent="WsfQ0gJqeW1RcLuzfs2A-1" source="sOu7exPHcrD0Afpc5wsP-2" target="WsfQ0gJqeW1RcLuzfs2A-3">
          <mxGeometry relative="1" as="geometry">
            <Array as="points">
              <mxPoint x="210" y="370" />
              <mxPoint x="660" y="370" />
              <mxPoint x="660" y="150" />
              <mxPoint x="120" y="150" />
            </Array>
          </mxGeometry>
        </mxCell>
        <mxCell id="sOu7exPHcrD0Afpc5wsP-2" value="&lt;span style=&quot;text-decoration-line: underline;&quot;&gt;StudentID&lt;/span&gt;" style="rounded=0;whiteSpace=wrap;html=1;" vertex="1" parent="WsfQ0gJqeW1RcLuzfs2A-1">
          <mxGeometry x="120" y="410" width="120" height="30" as="geometry" />
        </mxCell>
        <mxCell id="ESYM8fDvkff8mfmpoxNC-0" value="degree" style="rounded=0;whiteSpace=wrap;html=1;" vertex="1" parent="WsfQ0gJqeW1RcLuzfs2A-1">
          <mxGeometry x="240" y="410" width="120" height="30" as="geometry" />
        </mxCell>
        <mxCell id="YIlISEspFnnWIcvAnudL-0" value="&lt;span style=&quot;text-align: center;&quot;&gt;&lt;b&gt;&lt;font style=&quot;font-size: 16px;&quot;&gt;Teach&lt;/font&gt;&lt;/b&gt;&lt;/span&gt;" style="text;html=1;align=left;verticalAlign=middle;whiteSpace=wrap;rounded=0;" vertex="1" parent="WsfQ0gJqeW1RcLuzfs2A-1">
          <mxGeometry y="554" width="80" height="30" as="geometry" />
        </mxCell>
        <mxCell id="YIlISEspFnnWIcvAnudL-6" style="edgeStyle=orthogonalEdgeStyle;rounded=0;orthogonalLoop=1;jettySize=auto;html=1;exitX=0.75;exitY=0;exitDx=0;exitDy=0;entryX=0.75;entryY=1;entryDx=0;entryDy=0;" edge="1" parent="WsfQ0gJqeW1RcLuzfs2A-1" source="YIlISEspFnnWIcvAnudL-1" target="WsfQ0gJqeW1RcLuzfs2A-33">
          <mxGeometry relative="1" as="geometry" />
        </mxCell>
        <mxCell id="YIlISEspFnnWIcvAnudL-1" value="&lt;u&gt;subjectID&lt;/u&gt;" style="rounded=0;whiteSpace=wrap;html=1;" vertex="1" parent="WsfQ0gJqeW1RcLuzfs2A-1">
          <mxGeometry y="584" width="120" height="30" as="geometry" />
        </mxCell>
        <mxCell id="YIlISEspFnnWIcvAnudL-8" style="edgeStyle=orthogonalEdgeStyle;rounded=0;orthogonalLoop=1;jettySize=auto;html=1;exitX=0.25;exitY=1;exitDx=0;exitDy=0;entryX=0.75;entryY=0;entryDx=0;entryDy=0;" edge="1" parent="WsfQ0gJqeW1RcLuzfs2A-1" source="YIlISEspFnnWIcvAnudL-2" target="WsfQ0gJqeW1RcLuzfs2A-44">
          <mxGeometry relative="1" as="geometry" />
        </mxCell>
        <mxCell id="YIlISEspFnnWIcvAnudL-2" value="&lt;u style=&quot;text-align: left;&quot;&gt;doctorID&lt;/u&gt;" style="rounded=0;whiteSpace=wrap;html=1;" vertex="1" parent="WsfQ0gJqeW1RcLuzfs2A-1">
          <mxGeometry x="120" y="584" width="120" height="30" as="geometry" />
        </mxCell>
        <mxCell id="YIlISEspFnnWIcvAnudL-3" value="theTeacgYear" style="rounded=0;whiteSpace=wrap;html=1;" vertex="1" parent="WsfQ0gJqeW1RcLuzfs2A-1">
          <mxGeometry x="240" y="584" width="120" height="30" as="geometry" />
        </mxCell>
      </root>
    </mxGraphModel>
  </diagram>
  <diagram name="Main" id="PZLiy0tXyMX_XIj_3752">
    <mxGraphModel dx="880" dy="572" grid="1" gridSize="10" guides="1" tooltips="1" connect="1" arrows="1" fold="1" page="1" pageScale="1" pageWidth="827" pageHeight="1169" math="0" shadow="0">
      <root>
        <mxCell id="QedrWJMTYycE3XkB9jnO-0" />
        <mxCell id="QedrWJMTYycE3XkB9jnO-1" parent="QedrWJMTYycE3XkB9jnO-0" />
        <mxCell id="QedrWJMTYycE3XkB9jnO-2" style="edgeStyle=orthogonalEdgeStyle;rounded=0;orthogonalLoop=1;jettySize=auto;html=1;exitX=1;exitY=0;exitDx=0;exitDy=0;" parent="QedrWJMTYycE3XkB9jnO-1" source="QedrWJMTYycE3XkB9jnO-9" target="QedrWJMTYycE3XkB9jnO-10" edge="1">
          <mxGeometry relative="1" as="geometry" />
        </mxCell>
        <mxCell id="QedrWJMTYycE3XkB9jnO-3" style="edgeStyle=orthogonalEdgeStyle;rounded=0;orthogonalLoop=1;jettySize=auto;html=1;exitX=0.5;exitY=0;exitDx=0;exitDy=0;entryX=0;entryY=0.5;entryDx=0;entryDy=0;" parent="QedrWJMTYycE3XkB9jnO-1" source="QedrWJMTYycE3XkB9jnO-9" target="QedrWJMTYycE3XkB9jnO-11" edge="1">
          <mxGeometry relative="1" as="geometry" />
        </mxCell>
        <mxCell id="QedrWJMTYycE3XkB9jnO-4" style="edgeStyle=orthogonalEdgeStyle;rounded=0;orthogonalLoop=1;jettySize=auto;html=1;exitX=0;exitY=0.25;exitDx=0;exitDy=0;entryX=0.5;entryY=1;entryDx=0;entryDy=0;" parent="QedrWJMTYycE3XkB9jnO-1" source="QedrWJMTYycE3XkB9jnO-9" target="QedrWJMTYycE3XkB9jnO-12" edge="1">
          <mxGeometry relative="1" as="geometry" />
        </mxCell>
        <mxCell id="QedrWJMTYycE3XkB9jnO-8" style="edgeStyle=orthogonalEdgeStyle;rounded=0;orthogonalLoop=1;jettySize=auto;html=1;exitX=1;exitY=1;exitDx=0;exitDy=0;entryX=0;entryY=0.5;entryDx=0;entryDy=0;" parent="QedrWJMTYycE3XkB9jnO-1" source="QedrWJMTYycE3XkB9jnO-9" target="2UsluAX4Ulqx5-uxyd1X-1" edge="1">
          <mxGeometry relative="1" as="geometry">
            <mxPoint x="439" y="240" as="targetPoint" />
          </mxGeometry>
        </mxCell>
        <mxCell id="QedrWJMTYycE3XkB9jnO-9" value="&lt;b&gt;Students&lt;/b&gt;" style="rounded=0;arcSize=10;whiteSpace=wrap;html=1;align=center;" parent="QedrWJMTYycE3XkB9jnO-1" vertex="1">
          <mxGeometry x="329" y="160" width="100" height="40" as="geometry" />
        </mxCell>
        <mxCell id="QedrWJMTYycE3XkB9jnO-10" value="spicalNumber" style="ellipse;whiteSpace=wrap;html=1;align=center;fontStyle=4;rounded=0;" parent="QedrWJMTYycE3XkB9jnO-1" vertex="1">
          <mxGeometry x="469" y="100" width="120" height="40" as="geometry" />
        </mxCell>
        <mxCell id="QedrWJMTYycE3XkB9jnO-11" value="name" style="ellipse;whiteSpace=wrap;html=1;align=center;rounded=0;" parent="QedrWJMTYycE3XkB9jnO-1" vertex="1">
          <mxGeometry x="335" y="60" width="100" height="40" as="geometry" />
        </mxCell>
        <mxCell id="QedrWJMTYycE3XkB9jnO-12" value="birthDate" style="ellipse;whiteSpace=wrap;html=1;align=center;rounded=0;" parent="QedrWJMTYycE3XkB9jnO-1" vertex="1">
          <mxGeometry x="180" y="130" width="100" height="40" as="geometry" />
        </mxCell>
        <mxCell id="QedrWJMTYycE3XkB9jnO-13" value="&lt;b&gt;Note:&lt;/b&gt;&lt;div&gt;It could be here Siting number&lt;/div&gt;" style="shape=note;size=20;whiteSpace=wrap;html=1;align=left;rounded=0;" parent="QedrWJMTYycE3XkB9jnO-1" vertex="1">
          <mxGeometry x="640" y="70" width="100" height="100" as="geometry" />
        </mxCell>
        <mxCell id="QedrWJMTYycE3XkB9jnO-14" style="edgeStyle=orthogonalEdgeStyle;rounded=0;orthogonalLoop=1;jettySize=auto;html=1;exitX=1;exitY=0;exitDx=0;exitDy=0;entryX=0;entryY=0.5;entryDx=0;entryDy=0;entryPerimeter=0;" parent="QedrWJMTYycE3XkB9jnO-1" source="QedrWJMTYycE3XkB9jnO-10" target="QedrWJMTYycE3XkB9jnO-13" edge="1">
          <mxGeometry relative="1" as="geometry">
            <mxPoint x="579.0000000000041" y="170" as="sourcePoint" />
          </mxGeometry>
        </mxCell>
        <mxCell id="QedrWJMTYycE3XkB9jnO-26" style="edgeStyle=orthogonalEdgeStyle;rounded=0;orthogonalLoop=1;jettySize=auto;html=1;exitX=0;exitY=1;exitDx=0;exitDy=0;entryX=0.5;entryY=0;entryDx=0;entryDy=0;" parent="QedrWJMTYycE3XkB9jnO-1" source="2UsluAX4Ulqx5-uxyd1X-1" target="QedrWJMTYycE3XkB9jnO-31" edge="1">
          <mxGeometry relative="1" as="geometry">
            <mxPoint x="453.64466094067257" y="254.14213562373106" as="sourcePoint" />
          </mxGeometry>
        </mxCell>
        <mxCell id="QedrWJMTYycE3XkB9jnO-27" style="edgeStyle=orthogonalEdgeStyle;rounded=0;orthogonalLoop=1;jettySize=auto;html=1;exitX=0.5;exitY=1;exitDx=0;exitDy=0;entryX=0.5;entryY=0;entryDx=0;entryDy=0;" parent="QedrWJMTYycE3XkB9jnO-1" source="2UsluAX4Ulqx5-uxyd1X-1" target="QedrWJMTYycE3XkB9jnO-32" edge="1">
          <mxGeometry relative="1" as="geometry">
            <Array as="points">
              <mxPoint x="489" y="260" />
              <mxPoint x="489" y="310" />
              <mxPoint x="579" y="310" />
              <mxPoint x="579" y="350" />
              <mxPoint x="589" y="350" />
            </Array>
            <mxPoint x="489" y="260" as="sourcePoint" />
          </mxGeometry>
        </mxCell>
        <mxCell id="QedrWJMTYycE3XkB9jnO-28" style="edgeStyle=orthogonalEdgeStyle;rounded=0;orthogonalLoop=1;jettySize=auto;html=1;exitX=1;exitY=1;exitDx=0;exitDy=0;entryX=0;entryY=0.5;entryDx=0;entryDy=0;" parent="QedrWJMTYycE3XkB9jnO-1" source="2UsluAX4Ulqx5-uxyd1X-1" target="QedrWJMTYycE3XkB9jnO-33" edge="1">
          <mxGeometry relative="1" as="geometry">
            <mxPoint x="524.3553390593274" y="254.14213562373095" as="sourcePoint" />
          </mxGeometry>
        </mxCell>
        <mxCell id="QedrWJMTYycE3XkB9jnO-29" style="edgeStyle=orthogonalEdgeStyle;rounded=0;orthogonalLoop=1;jettySize=auto;html=1;exitX=1;exitY=0;exitDx=0;exitDy=0;" parent="QedrWJMTYycE3XkB9jnO-1" source="2UsluAX4Ulqx5-uxyd1X-1" target="QedrWJMTYycE3XkB9jnO-34" edge="1">
          <mxGeometry relative="1" as="geometry">
            <mxPoint x="539" y="240" as="sourcePoint" />
          </mxGeometry>
        </mxCell>
        <mxCell id="QedrWJMTYycE3XkB9jnO-31" value="HighSchoolCertificate" style="ellipse;whiteSpace=wrap;html=1;align=center;rounded=0;" parent="QedrWJMTYycE3XkB9jnO-1" vertex="1">
          <mxGeometry x="429" y="370" width="140" height="40" as="geometry" />
        </mxCell>
        <mxCell id="QedrWJMTYycE3XkB9jnO-32" value="TrueCopy&lt;span style=&quot;color: rgba(0, 0, 0, 0); font-family: monospace; font-size: 0px; text-align: start; text-wrap: nowrap;&quot;&gt;%3CmxGraphModel%3E%3Croot%3E%3CmxCell%20id%3D%220%22%2F%3E%3CmxCell%20id%3D%221%22%20parent%3D%220%22%2F%3E%3CmxCell%20id%3D%222%22%20value%3D%22grades%22%20style%3D%22ellipse%3Bshape%3DdoubleEllipse%3Bmargin%3D3%3BwhiteSpace%3Dwrap%3Bhtml%3D1%3Balign%3Dcenter%3B%22%20vertex%3D%221%22%20parent%3D%221%22%3E%3CmxGeometry%20x%3D%22200%22%20y%3D%22180%22%20width%3D%22100%22%20height%3D%2240%22%20as%3D%22geometry%22%2F%3E%3C%2FmxCell%3E%3C%2Froot%3E%3C%2FmxGraphModel%3E&lt;/span&gt;" style="ellipse;whiteSpace=wrap;html=1;align=center;rounded=0;" parent="QedrWJMTYycE3XkB9jnO-1" vertex="1">
          <mxGeometry x="549" y="320" width="100" height="40" as="geometry" />
        </mxCell>
        <mxCell id="QedrWJMTYycE3XkB9jnO-33" value="personalPhoto&lt;span style=&quot;color: rgba(0, 0, 0, 0); font-family: monospace; font-size: 0px; text-align: start; text-wrap: nowrap;&quot;&gt;%3CmxGraphModel%3E%3Croot%3E%3CmxCell%20id%3D%220%22%2F%3E%3CmxCell%20id%3D%221%22%20parent%3D%220%22%2F%3E%3CmxCell%20id%3D%222%22%20value%3D%22grades%22%20style%3D%22ellipse%3Bshape%3DdoubleEllipse%3Bmargin%3D3%3BwhiteSpace%3Dwrap%3Bhtml%3D1%3Balign%3Dcenter%3B%22%20vertex%3D%221%22%20parent%3D%221%22%3E%3CmxGeometry%20x%3D%22200%22%20y%3D%22180%22%20width%3D%22100%22%20height%3D%2240%22%20as%3D%22geometry%22%2F%3E%3C%2FmxCell%3E%3C%2Froot%3E%3C%2FmxGraphModel%3E&lt;/span&gt;" style="ellipse;whiteSpace=wrap;html=1;align=center;rounded=0;" parent="QedrWJMTYycE3XkB9jnO-1" vertex="1">
          <mxGeometry x="589" y="260" width="100" height="40" as="geometry" />
        </mxCell>
        <mxCell id="QedrWJMTYycE3XkB9jnO-34" value="photoForProofDocuments" style="ellipse;whiteSpace=wrap;html=1;align=center;rounded=0;" parent="QedrWJMTYycE3XkB9jnO-1" vertex="1">
          <mxGeometry x="569" y="210" width="160" height="40" as="geometry" />
        </mxCell>
        <mxCell id="QedrWJMTYycE3XkB9jnO-40" value="Level" style="whiteSpace=wrap;html=1;align=center;rounded=0;" parent="QedrWJMTYycE3XkB9jnO-1" vertex="1">
          <mxGeometry x="329" y="410" width="100" height="40" as="geometry" />
        </mxCell>
        <mxCell id="QedrWJMTYycE3XkB9jnO-46" value="Relationship" style="shape=rhombus;perimeter=rhombusPerimeter;whiteSpace=wrap;html=1;align=center;rounded=0;" parent="QedrWJMTYycE3XkB9jnO-1" vertex="1">
          <mxGeometry x="319" y="300" width="120" height="60" as="geometry" />
        </mxCell>
        <mxCell id="QedrWJMTYycE3XkB9jnO-47" style="edgeStyle=orthogonalEdgeStyle;rounded=0;orthogonalLoop=1;jettySize=auto;html=1;exitX=0.75;exitY=0;exitDx=0;exitDy=0;entryX=0.5;entryY=1;entryDx=0;entryDy=0;" parent="QedrWJMTYycE3XkB9jnO-1" source="QedrWJMTYycE3XkB9jnO-53" target="QedrWJMTYycE3XkB9jnO-76" edge="1">
          <mxGeometry relative="1" as="geometry">
            <mxPoint x="679" y="610" as="targetPoint" />
            <Array as="points">
              <mxPoint x="634" y="620" />
              <mxPoint x="679" y="620" />
            </Array>
          </mxGeometry>
        </mxCell>
        <mxCell id="QedrWJMTYycE3XkB9jnO-48" style="edgeStyle=orthogonalEdgeStyle;rounded=0;orthogonalLoop=1;jettySize=auto;html=1;exitX=0.25;exitY=0;exitDx=0;exitDy=0;entryX=1;entryY=0.5;entryDx=0;entryDy=0;" parent="QedrWJMTYycE3XkB9jnO-1" source="QedrWJMTYycE3XkB9jnO-53" target="QedrWJMTYycE3XkB9jnO-73" edge="1">
          <mxGeometry relative="1" as="geometry" />
        </mxCell>
        <mxCell id="QedrWJMTYycE3XkB9jnO-49" style="edgeStyle=orthogonalEdgeStyle;rounded=0;orthogonalLoop=1;jettySize=auto;html=1;exitX=0.25;exitY=1;exitDx=0;exitDy=0;entryX=1;entryY=0;entryDx=0;entryDy=0;" parent="QedrWJMTYycE3XkB9jnO-1" source="QedrWJMTYycE3XkB9jnO-53" target="QedrWJMTYycE3XkB9jnO-74" edge="1">
          <mxGeometry relative="1" as="geometry" />
        </mxCell>
        <mxCell id="QedrWJMTYycE3XkB9jnO-50" style="edgeStyle=orthogonalEdgeStyle;rounded=0;orthogonalLoop=1;jettySize=auto;html=1;exitX=0.75;exitY=1;exitDx=0;exitDy=0;entryX=0.5;entryY=0;entryDx=0;entryDy=0;" parent="QedrWJMTYycE3XkB9jnO-1" source="QedrWJMTYycE3XkB9jnO-53" target="QedrWJMTYycE3XkB9jnO-75" edge="1">
          <mxGeometry relative="1" as="geometry" />
        </mxCell>
        <mxCell id="QedrWJMTYycE3XkB9jnO-51" style="edgeStyle=orthogonalEdgeStyle;rounded=0;orthogonalLoop=1;jettySize=auto;html=1;exitX=1;exitY=1;exitDx=0;exitDy=0;entryX=0;entryY=0.5;entryDx=0;entryDy=0;" parent="QedrWJMTYycE3XkB9jnO-1" source="QedrWJMTYycE3XkB9jnO-53" target="QedrWJMTYycE3XkB9jnO-77" edge="1">
          <mxGeometry relative="1" as="geometry" />
        </mxCell>
        <mxCell id="QedrWJMTYycE3XkB9jnO-52" style="edgeStyle=orthogonalEdgeStyle;rounded=0;orthogonalLoop=1;jettySize=auto;html=1;exitX=1;exitY=0.5;exitDx=0;exitDy=0;entryX=0;entryY=0.5;entryDx=0;entryDy=0;" parent="QedrWJMTYycE3XkB9jnO-1" source="QedrWJMTYycE3XkB9jnO-53" target="QedrWJMTYycE3XkB9jnO-78" edge="1">
          <mxGeometry relative="1" as="geometry" />
        </mxCell>
        <mxCell id="QedrWJMTYycE3XkB9jnO-53" value="Doctor" style="whiteSpace=wrap;html=1;align=center;rounded=0;" parent="QedrWJMTYycE3XkB9jnO-1" vertex="1">
          <mxGeometry x="559" y="660" width="100" height="40" as="geometry" />
        </mxCell>
        <mxCell id="QedrWJMTYycE3XkB9jnO-54" style="edgeStyle=orthogonalEdgeStyle;rounded=0;orthogonalLoop=1;jettySize=auto;html=1;exitX=0;exitY=0;exitDx=0;exitDy=0;entryX=1;entryY=0.5;entryDx=0;entryDy=0;" parent="QedrWJMTYycE3XkB9jnO-1" source="QedrWJMTYycE3XkB9jnO-56" target="QedrWJMTYycE3XkB9jnO-66" edge="1">
          <mxGeometry relative="1" as="geometry" />
        </mxCell>
        <mxCell id="QedrWJMTYycE3XkB9jnO-55" style="edgeStyle=orthogonalEdgeStyle;rounded=0;orthogonalLoop=1;jettySize=auto;html=1;exitX=0;exitY=1;exitDx=0;exitDy=0;" parent="QedrWJMTYycE3XkB9jnO-1" source="QedrWJMTYycE3XkB9jnO-56" target="QedrWJMTYycE3XkB9jnO-67" edge="1">
          <mxGeometry relative="1" as="geometry" />
        </mxCell>
        <mxCell id="QedrWJMTYycE3XkB9jnO-56" value="Subjects" style="whiteSpace=wrap;html=1;align=center;rounded=0;" parent="QedrWJMTYycE3XkB9jnO-1" vertex="1">
          <mxGeometry x="189" y="660" width="100" height="40" as="geometry" />
        </mxCell>
        <mxCell id="QedrWJMTYycE3XkB9jnO-57" value="Relationship" style="shape=rhombus;perimeter=rhombusPerimeter;whiteSpace=wrap;html=1;align=center;rounded=0;" parent="QedrWJMTYycE3XkB9jnO-1" vertex="1">
          <mxGeometry x="259" y="550" width="120" height="60" as="geometry" />
        </mxCell>
        <mxCell id="QedrWJMTYycE3XkB9jnO-58" value="" style="endArrow=none;html=1;rounded=0;entryX=0.5;entryY=0;entryDx=0;entryDy=0;exitX=0.5;exitY=1;exitDx=0;exitDy=0;" parent="QedrWJMTYycE3XkB9jnO-1" source="QedrWJMTYycE3XkB9jnO-9" target="QedrWJMTYycE3XkB9jnO-46" edge="1">
          <mxGeometry relative="1" as="geometry">
            <mxPoint x="229" y="250" as="sourcePoint" />
            <mxPoint x="389" y="250" as="targetPoint" />
          </mxGeometry>
        </mxCell>
        <mxCell id="QedrWJMTYycE3XkB9jnO-59" value="1" style="resizable=0;html=1;whiteSpace=wrap;align=right;verticalAlign=bottom;rounded=0;" parent="QedrWJMTYycE3XkB9jnO-58" connectable="0" vertex="1">
          <mxGeometry x="1" relative="1" as="geometry" />
        </mxCell>
        <mxCell id="QedrWJMTYycE3XkB9jnO-60" value="" style="endArrow=none;html=1;rounded=0;exitX=0.5;exitY=0;exitDx=0;exitDy=0;entryX=0.5;entryY=1;entryDx=0;entryDy=0;" parent="QedrWJMTYycE3XkB9jnO-1" source="QedrWJMTYycE3XkB9jnO-40" target="QedrWJMTYycE3XkB9jnO-46" edge="1">
          <mxGeometry relative="1" as="geometry">
            <mxPoint x="359" y="380" as="sourcePoint" />
            <mxPoint x="519" y="380" as="targetPoint" />
          </mxGeometry>
        </mxCell>
        <mxCell id="QedrWJMTYycE3XkB9jnO-61" value="N" style="resizable=0;html=1;whiteSpace=wrap;align=right;verticalAlign=bottom;rounded=0;" parent="QedrWJMTYycE3XkB9jnO-60" connectable="0" vertex="1">
          <mxGeometry x="1" relative="1" as="geometry" />
        </mxCell>
        <mxCell id="QedrWJMTYycE3XkB9jnO-62" value="" style="endArrow=none;html=1;rounded=0;exitX=0.5;exitY=1;exitDx=0;exitDy=0;entryX=0.5;entryY=0;entryDx=0;entryDy=0;" parent="QedrWJMTYycE3XkB9jnO-1" source="QedrWJMTYycE3XkB9jnO-40" target="QedrWJMTYycE3XkB9jnO-57" edge="1">
          <mxGeometry relative="1" as="geometry">
            <mxPoint x="119" y="610" as="sourcePoint" />
            <mxPoint x="279" y="610" as="targetPoint" />
          </mxGeometry>
        </mxCell>
        <mxCell id="QedrWJMTYycE3XkB9jnO-63" value="N" style="resizable=0;html=1;whiteSpace=wrap;align=right;verticalAlign=bottom;rounded=0;" parent="QedrWJMTYycE3XkB9jnO-62" connectable="0" vertex="1">
          <mxGeometry x="1" relative="1" as="geometry" />
        </mxCell>
        <mxCell id="QedrWJMTYycE3XkB9jnO-64" value="" style="endArrow=none;html=1;rounded=0;entryX=0.5;entryY=1;entryDx=0;entryDy=0;exitX=0.5;exitY=0;exitDx=0;exitDy=0;" parent="QedrWJMTYycE3XkB9jnO-1" source="QedrWJMTYycE3XkB9jnO-56" target="QedrWJMTYycE3XkB9jnO-57" edge="1">
          <mxGeometry relative="1" as="geometry">
            <mxPoint x="139" y="640" as="sourcePoint" />
            <mxPoint x="299" y="640" as="targetPoint" />
          </mxGeometry>
        </mxCell>
        <mxCell id="QedrWJMTYycE3XkB9jnO-65" value="N" style="resizable=0;html=1;whiteSpace=wrap;align=right;verticalAlign=bottom;rounded=0;" parent="QedrWJMTYycE3XkB9jnO-64" connectable="0" vertex="1">
          <mxGeometry x="1" relative="1" as="geometry" />
        </mxCell>
        <mxCell id="QedrWJMTYycE3XkB9jnO-66" value="&lt;u&gt;id&lt;/u&gt;" style="ellipse;whiteSpace=wrap;html=1;align=center;rounded=0;" parent="QedrWJMTYycE3XkB9jnO-1" vertex="1">
          <mxGeometry x="69" y="600" width="100" height="40" as="geometry" />
        </mxCell>
        <mxCell id="QedrWJMTYycE3XkB9jnO-67" value="Name" style="ellipse;whiteSpace=wrap;html=1;align=center;rounded=0;" parent="QedrWJMTYycE3XkB9jnO-1" vertex="1">
          <mxGeometry x="69" y="700" width="100" height="40" as="geometry" />
        </mxCell>
        <mxCell id="QedrWJMTYycE3XkB9jnO-68" value="Relationship" style="shape=rhombus;perimeter=rhombusPerimeter;whiteSpace=wrap;html=1;align=center;rounded=0;" parent="QedrWJMTYycE3XkB9jnO-1" vertex="1">
          <mxGeometry x="329" y="650" width="120" height="60" as="geometry" />
        </mxCell>
        <mxCell id="QedrWJMTYycE3XkB9jnO-69" value="" style="endArrow=none;html=1;rounded=0;exitX=1;exitY=0.5;exitDx=0;exitDy=0;entryX=0;entryY=0.5;entryDx=0;entryDy=0;" parent="QedrWJMTYycE3XkB9jnO-1" source="QedrWJMTYycE3XkB9jnO-56" target="QedrWJMTYycE3XkB9jnO-68" edge="1">
          <mxGeometry relative="1" as="geometry">
            <mxPoint x="459" y="770" as="sourcePoint" />
            <mxPoint x="619" y="770" as="targetPoint" />
          </mxGeometry>
        </mxCell>
        <mxCell id="QedrWJMTYycE3XkB9jnO-70" value="N" style="resizable=0;html=1;whiteSpace=wrap;align=right;verticalAlign=bottom;rounded=0;" parent="QedrWJMTYycE3XkB9jnO-69" connectable="0" vertex="1">
          <mxGeometry x="1" relative="1" as="geometry" />
        </mxCell>
        <mxCell id="QedrWJMTYycE3XkB9jnO-71" value="" style="endArrow=none;html=1;rounded=0;entryX=1;entryY=0.5;entryDx=0;entryDy=0;exitX=0;exitY=0.5;exitDx=0;exitDy=0;" parent="QedrWJMTYycE3XkB9jnO-1" source="QedrWJMTYycE3XkB9jnO-53" target="QedrWJMTYycE3XkB9jnO-68" edge="1">
          <mxGeometry relative="1" as="geometry">
            <mxPoint x="179" y="760" as="sourcePoint" />
            <mxPoint x="419" y="670" as="targetPoint" />
          </mxGeometry>
        </mxCell>
        <mxCell id="QedrWJMTYycE3XkB9jnO-72" value="1" style="resizable=0;html=1;whiteSpace=wrap;align=right;verticalAlign=bottom;rounded=0;" parent="QedrWJMTYycE3XkB9jnO-71" connectable="0" vertex="1">
          <mxGeometry x="1" relative="1" as="geometry" />
        </mxCell>
        <mxCell id="QedrWJMTYycE3XkB9jnO-73" value="name" style="ellipse;whiteSpace=wrap;html=1;align=center;rounded=0;" parent="QedrWJMTYycE3XkB9jnO-1" vertex="1">
          <mxGeometry x="469" y="600" width="100" height="40" as="geometry" />
        </mxCell>
        <mxCell id="QedrWJMTYycE3XkB9jnO-74" value="phoneNumber" style="ellipse;whiteSpace=wrap;html=1;align=center;rounded=0;" parent="QedrWJMTYycE3XkB9jnO-1" vertex="1">
          <mxGeometry x="479" y="780" width="100" height="40" as="geometry" />
        </mxCell>
        <mxCell id="QedrWJMTYycE3XkB9jnO-75" value="birthDate" style="ellipse;whiteSpace=wrap;html=1;align=center;rounded=0;" parent="QedrWJMTYycE3XkB9jnO-1" vertex="1">
          <mxGeometry x="599" y="780" width="100" height="40" as="geometry" />
        </mxCell>
        <mxCell id="QedrWJMTYycE3XkB9jnO-76" value="id" style="ellipse;whiteSpace=wrap;html=1;align=center;fontStyle=4;rounded=0;" parent="QedrWJMTYycE3XkB9jnO-1" vertex="1">
          <mxGeometry x="629" y="570" width="100" height="40" as="geometry" />
        </mxCell>
        <mxCell id="QedrWJMTYycE3XkB9jnO-77" value="GraduatYear" style="ellipse;whiteSpace=wrap;html=1;align=center;rounded=0;" parent="QedrWJMTYycE3XkB9jnO-1" vertex="1">
          <mxGeometry x="679" y="730" width="100" height="40" as="geometry" />
        </mxCell>
        <mxCell id="QedrWJMTYycE3XkB9jnO-78" value="experienceYears" style="ellipse;whiteSpace=wrap;html=1;align=center;rounded=0;" parent="QedrWJMTYycE3XkB9jnO-1" vertex="1">
          <mxGeometry x="689" y="660" width="100" height="40" as="geometry" />
        </mxCell>
        <mxCell id="QedrWJMTYycE3XkB9jnO-79" value="&lt;h1 style=&quot;margin-top: 0px;&quot;&gt;ERD:&lt;/h1&gt;&lt;p style=&quot;line-height: 0%;&quot;&gt;this projects for students and doctors orgnzition.&lt;/p&gt;" style="text;html=1;whiteSpace=wrap;overflow=hidden;rounded=0;" parent="QedrWJMTYycE3XkB9jnO-1" vertex="1">
          <mxGeometry x="30" y="890" width="710" height="80" as="geometry" />
        </mxCell>
        <mxCell id="QedrWJMTYycE3XkB9jnO-80" value="&lt;h1 style=&quot;margin-top: 0px; margin-bottom: 8px; line-height: 120%;&quot;&gt;&lt;span style=&quot;background-color: initial;&quot;&gt;Note:&lt;/span&gt;&lt;/h1&gt;&lt;h1 style=&quot;margin-top: 0px; line-height: 0%;&quot;&gt;&lt;ul style=&quot;margin-bottom: 0px; line-height: 0%;&quot;&gt;&lt;li&gt;&lt;span style=&quot;background-color: initial; font-size: 12px; font-weight: normal;&quot;&gt;any note will be here&amp;gt;&lt;/span&gt;&lt;/li&gt;&lt;/ul&gt;&lt;/h1&gt;" style="text;html=1;whiteSpace=wrap;overflow=hidden;rounded=0;" parent="QedrWJMTYycE3XkB9jnO-1" vertex="1">
          <mxGeometry x="30" y="960" width="710" height="80" as="geometry" />
        </mxCell>
        <mxCell id="2UsluAX4Ulqx5-uxyd1X-1" value="requirements" style="ellipse;whiteSpace=wrap;html=1;align=center;rounded=0;" parent="QedrWJMTYycE3XkB9jnO-1" vertex="1">
          <mxGeometry x="449" y="220" width="100" height="40" as="geometry" />
        </mxCell>
        <mxCell id="BkBrN1QWOU9gNyagIazo-1" value="Level" style="ellipse;whiteSpace=wrap;html=1;align=center;" vertex="1" parent="QedrWJMTYycE3XkB9jnO-1">
          <mxGeometry x="169" y="380" width="100" height="40" as="geometry" />
        </mxCell>
        <mxCell id="BkBrN1QWOU9gNyagIazo-2" value="Attribute" style="ellipse;whiteSpace=wrap;html=1;align=center;" vertex="1" parent="QedrWJMTYycE3XkB9jnO-1">
          <mxGeometry x="169" y="440" width="100" height="40" as="geometry" />
        </mxCell>
      </root>
    </mxGraphModel>
  </diagram>
  <diagram name="Copy of Page-1" id="yRMAt98dUs5y-tbXIh4K">
    <mxGraphModel grid="1" page="1" gridSize="10" guides="1" tooltips="1" connect="1" arrows="1" fold="1" pageScale="1" pageWidth="827" pageHeight="1169" math="0" shadow="0">
      <root>
        <mxCell id="rJDct_ABrdIP4V36XZtq-0" />
        <mxCell id="rJDct_ABrdIP4V36XZtq-1" parent="rJDct_ABrdIP4V36XZtq-0" />
        <mxCell id="rJDct_ABrdIP4V36XZtq-2" style="edgeStyle=orthogonalEdgeStyle;rounded=1;orthogonalLoop=1;jettySize=auto;html=1;exitX=1;exitY=0.5;exitDx=0;exitDy=0;" edge="1" parent="rJDct_ABrdIP4V36XZtq-1" source="rJDct_ABrdIP4V36XZtq-9" target="rJDct_ABrdIP4V36XZtq-10">
          <mxGeometry relative="1" as="geometry" />
        </mxCell>
        <mxCell id="rJDct_ABrdIP4V36XZtq-3" style="edgeStyle=orthogonalEdgeStyle;rounded=1;orthogonalLoop=1;jettySize=auto;html=1;exitX=1;exitY=0;exitDx=0;exitDy=0;entryX=0;entryY=0.5;entryDx=0;entryDy=0;" edge="1" parent="rJDct_ABrdIP4V36XZtq-1" source="rJDct_ABrdIP4V36XZtq-9" target="rJDct_ABrdIP4V36XZtq-11">
          <mxGeometry relative="1" as="geometry" />
        </mxCell>
        <mxCell id="rJDct_ABrdIP4V36XZtq-4" style="edgeStyle=orthogonalEdgeStyle;rounded=1;orthogonalLoop=1;jettySize=auto;html=1;exitX=0.75;exitY=0;exitDx=0;exitDy=0;entryX=0.5;entryY=1;entryDx=0;entryDy=0;" edge="1" parent="rJDct_ABrdIP4V36XZtq-1" source="rJDct_ABrdIP4V36XZtq-9" target="rJDct_ABrdIP4V36XZtq-12">
          <mxGeometry relative="1" as="geometry" />
        </mxCell>
        <mxCell id="rJDct_ABrdIP4V36XZtq-5" style="edgeStyle=orthogonalEdgeStyle;rounded=1;orthogonalLoop=1;jettySize=auto;html=1;exitX=0.5;exitY=0;exitDx=0;exitDy=0;entryX=0.5;entryY=1;entryDx=0;entryDy=0;" edge="1" parent="rJDct_ABrdIP4V36XZtq-1" source="rJDct_ABrdIP4V36XZtq-9" target="rJDct_ABrdIP4V36XZtq-15">
          <mxGeometry relative="1" as="geometry" />
        </mxCell>
        <mxCell id="rJDct_ABrdIP4V36XZtq-6" style="edgeStyle=orthogonalEdgeStyle;rounded=1;orthogonalLoop=1;jettySize=auto;html=1;exitX=0.25;exitY=0;exitDx=0;exitDy=0;entryX=0.5;entryY=1;entryDx=0;entryDy=0;" edge="1" parent="rJDct_ABrdIP4V36XZtq-1" source="rJDct_ABrdIP4V36XZtq-9" target="rJDct_ABrdIP4V36XZtq-16">
          <mxGeometry relative="1" as="geometry">
            <Array as="points">
              <mxPoint x="354" y="170" />
              <mxPoint x="329" y="170" />
              <mxPoint x="329" y="140" />
              <mxPoint x="299" y="140" />
              <mxPoint x="299" y="160" />
              <mxPoint x="209" y="160" />
            </Array>
          </mxGeometry>
        </mxCell>
        <mxCell id="rJDct_ABrdIP4V36XZtq-7" style="edgeStyle=orthogonalEdgeStyle;rounded=1;orthogonalLoop=1;jettySize=auto;html=1;exitX=0;exitY=0.5;exitDx=0;exitDy=0;entryX=1;entryY=0.5;entryDx=0;entryDy=0;" edge="1" parent="rJDct_ABrdIP4V36XZtq-1" source="rJDct_ABrdIP4V36XZtq-9" target="rJDct_ABrdIP4V36XZtq-21">
          <mxGeometry relative="1" as="geometry" />
        </mxCell>
        <mxCell id="rJDct_ABrdIP4V36XZtq-8" style="edgeStyle=orthogonalEdgeStyle;rounded=1;orthogonalLoop=1;jettySize=auto;html=1;exitX=1;exitY=1;exitDx=0;exitDy=0;entryX=0;entryY=0.5;entryDx=0;entryDy=0;" edge="1" parent="rJDct_ABrdIP4V36XZtq-1" source="rJDct_ABrdIP4V36XZtq-9" target="rJDct_ABrdIP4V36XZtq-30">
          <mxGeometry relative="1" as="geometry" />
        </mxCell>
        <mxCell id="rJDct_ABrdIP4V36XZtq-9" value="&lt;b&gt;Students&lt;/b&gt;" style="rounded=1;arcSize=10;whiteSpace=wrap;html=1;align=center;" vertex="1" parent="rJDct_ABrdIP4V36XZtq-1">
          <mxGeometry x="329" y="160" width="100" height="40" as="geometry" />
        </mxCell>
        <mxCell id="rJDct_ABrdIP4V36XZtq-10" value="highSchoolNumber" style="ellipse;whiteSpace=wrap;html=1;align=center;fontStyle=4;rounded=1;" vertex="1" parent="rJDct_ABrdIP4V36XZtq-1">
          <mxGeometry x="479" y="160" width="120" height="40" as="geometry" />
        </mxCell>
        <mxCell id="rJDct_ABrdIP4V36XZtq-11" value="name" style="ellipse;whiteSpace=wrap;html=1;align=center;rounded=1;" vertex="1" parent="rJDct_ABrdIP4V36XZtq-1">
          <mxGeometry x="449" y="110" width="100" height="40" as="geometry" />
        </mxCell>
        <mxCell id="rJDct_ABrdIP4V36XZtq-12" value="birthDate" style="ellipse;whiteSpace=wrap;html=1;align=center;rounded=1;" vertex="1" parent="rJDct_ABrdIP4V36XZtq-1">
          <mxGeometry x="369" y="60" width="100" height="40" as="geometry" />
        </mxCell>
        <mxCell id="rJDct_ABrdIP4V36XZtq-13" value="&lt;b&gt;Note:&lt;/b&gt;&lt;div&gt;It could be here Siting number&lt;/div&gt;" style="shape=note;size=20;whiteSpace=wrap;html=1;align=left;rounded=1;" vertex="1" parent="rJDct_ABrdIP4V36XZtq-1">
          <mxGeometry x="629" y="110" width="100" height="100" as="geometry" />
        </mxCell>
        <mxCell id="rJDct_ABrdIP4V36XZtq-14" style="edgeStyle=orthogonalEdgeStyle;rounded=1;orthogonalLoop=1;jettySize=auto;html=1;exitX=1;exitY=0;exitDx=0;exitDy=0;entryX=0;entryY=0.5;entryDx=0;entryDy=0;entryPerimeter=0;" edge="1" parent="rJDct_ABrdIP4V36XZtq-1" source="rJDct_ABrdIP4V36XZtq-10" target="rJDct_ABrdIP4V36XZtq-13">
          <mxGeometry relative="1" as="geometry">
            <mxPoint x="579.0000000000041" y="170" as="sourcePoint" />
          </mxGeometry>
        </mxCell>
        <mxCell id="rJDct_ABrdIP4V36XZtq-15" value="phoneNumber" style="ellipse;whiteSpace=wrap;html=1;align=center;rounded=1;" vertex="1" parent="rJDct_ABrdIP4V36XZtq-1">
          <mxGeometry x="259" y="60" width="100" height="40" as="geometry" />
        </mxCell>
        <mxCell id="rJDct_ABrdIP4V36XZtq-16" value="highSchoolDegree" style="ellipse;whiteSpace=wrap;html=1;align=center;rounded=1;" vertex="1" parent="rJDct_ABrdIP4V36XZtq-1">
          <mxGeometry x="149" y="100" width="120" height="40" as="geometry" />
        </mxCell>
        <mxCell id="rJDct_ABrdIP4V36XZtq-17" style="edgeStyle=orthogonalEdgeStyle;rounded=1;orthogonalLoop=1;jettySize=auto;html=1;exitX=0;exitY=0;exitDx=0;exitDy=0;entryX=1;entryY=0.5;entryDx=0;entryDy=0;" edge="1" parent="rJDct_ABrdIP4V36XZtq-1" source="rJDct_ABrdIP4V36XZtq-21" target="rJDct_ABrdIP4V36XZtq-22">
          <mxGeometry relative="1" as="geometry" />
        </mxCell>
        <mxCell id="rJDct_ABrdIP4V36XZtq-18" style="edgeStyle=orthogonalEdgeStyle;rounded=1;orthogonalLoop=1;jettySize=auto;html=1;exitX=0;exitY=0.5;exitDx=0;exitDy=0;entryX=1;entryY=0.5;entryDx=0;entryDy=0;" edge="1" parent="rJDct_ABrdIP4V36XZtq-1" source="rJDct_ABrdIP4V36XZtq-21" target="rJDct_ABrdIP4V36XZtq-23">
          <mxGeometry relative="1" as="geometry" />
        </mxCell>
        <mxCell id="rJDct_ABrdIP4V36XZtq-19" style="edgeStyle=orthogonalEdgeStyle;rounded=1;orthogonalLoop=1;jettySize=auto;html=1;exitX=0;exitY=1;exitDx=0;exitDy=0;" edge="1" parent="rJDct_ABrdIP4V36XZtq-1" source="rJDct_ABrdIP4V36XZtq-21" target="rJDct_ABrdIP4V36XZtq-24">
          <mxGeometry relative="1" as="geometry" />
        </mxCell>
        <mxCell id="rJDct_ABrdIP4V36XZtq-20" style="edgeStyle=orthogonalEdgeStyle;rounded=1;orthogonalLoop=1;jettySize=auto;html=1;exitX=0.5;exitY=1;exitDx=0;exitDy=0;entryX=0.5;entryY=0;entryDx=0;entryDy=0;" edge="1" parent="rJDct_ABrdIP4V36XZtq-1" source="rJDct_ABrdIP4V36XZtq-21" target="rJDct_ABrdIP4V36XZtq-25">
          <mxGeometry relative="1" as="geometry" />
        </mxCell>
        <mxCell id="rJDct_ABrdIP4V36XZtq-21" value="grades" style="ellipse;shape=doubleEllipse;margin=3;whiteSpace=wrap;html=1;align=center;rounded=1;" vertex="1" parent="rJDct_ABrdIP4V36XZtq-1">
          <mxGeometry x="189" y="180" width="100" height="40" as="geometry" />
        </mxCell>
        <mxCell id="rJDct_ABrdIP4V36XZtq-22" value="levelOne" style="ellipse;whiteSpace=wrap;html=1;align=center;rounded=1;" vertex="1" parent="rJDct_ABrdIP4V36XZtq-1">
          <mxGeometry x="69" y="150" width="100" height="40" as="geometry" />
        </mxCell>
        <mxCell id="rJDct_ABrdIP4V36XZtq-23" value="levelTow" style="ellipse;whiteSpace=wrap;html=1;align=center;rounded=1;" vertex="1" parent="rJDct_ABrdIP4V36XZtq-1">
          <mxGeometry x="59" y="200" width="100" height="40" as="geometry" />
        </mxCell>
        <mxCell id="rJDct_ABrdIP4V36XZtq-24" value="levelThree" style="ellipse;whiteSpace=wrap;html=1;align=center;rounded=1;" vertex="1" parent="rJDct_ABrdIP4V36XZtq-1">
          <mxGeometry x="99" y="280" width="100" height="40" as="geometry" />
        </mxCell>
        <mxCell id="rJDct_ABrdIP4V36XZtq-25" value="levelFour" style="ellipse;whiteSpace=wrap;html=1;align=center;rounded=1;" vertex="1" parent="rJDct_ABrdIP4V36XZtq-1">
          <mxGeometry x="229" y="280" width="100" height="40" as="geometry" />
        </mxCell>
        <mxCell id="rJDct_ABrdIP4V36XZtq-26" style="edgeStyle=orthogonalEdgeStyle;rounded=1;orthogonalLoop=1;jettySize=auto;html=1;exitX=0;exitY=1;exitDx=0;exitDy=0;entryX=0.5;entryY=0;entryDx=0;entryDy=0;" edge="1" parent="rJDct_ABrdIP4V36XZtq-1" source="rJDct_ABrdIP4V36XZtq-30" target="rJDct_ABrdIP4V36XZtq-31">
          <mxGeometry relative="1" as="geometry" />
        </mxCell>
        <mxCell id="rJDct_ABrdIP4V36XZtq-27" style="edgeStyle=orthogonalEdgeStyle;rounded=1;orthogonalLoop=1;jettySize=auto;html=1;exitX=0.5;exitY=1;exitDx=0;exitDy=0;entryX=0.5;entryY=0;entryDx=0;entryDy=0;" edge="1" parent="rJDct_ABrdIP4V36XZtq-1" source="rJDct_ABrdIP4V36XZtq-30" target="rJDct_ABrdIP4V36XZtq-32">
          <mxGeometry relative="1" as="geometry">
            <Array as="points">
              <mxPoint x="489" y="310" />
              <mxPoint x="579" y="310" />
              <mxPoint x="579" y="350" />
            </Array>
          </mxGeometry>
        </mxCell>
        <mxCell id="rJDct_ABrdIP4V36XZtq-28" style="edgeStyle=orthogonalEdgeStyle;rounded=1;orthogonalLoop=1;jettySize=auto;html=1;exitX=1;exitY=1;exitDx=0;exitDy=0;entryX=0;entryY=0.5;entryDx=0;entryDy=0;" edge="1" parent="rJDct_ABrdIP4V36XZtq-1" source="rJDct_ABrdIP4V36XZtq-30" target="rJDct_ABrdIP4V36XZtq-33">
          <mxGeometry relative="1" as="geometry" />
        </mxCell>
        <mxCell id="rJDct_ABrdIP4V36XZtq-29" style="edgeStyle=orthogonalEdgeStyle;rounded=1;orthogonalLoop=1;jettySize=auto;html=1;exitX=1;exitY=0.5;exitDx=0;exitDy=0;" edge="1" parent="rJDct_ABrdIP4V36XZtq-1" source="rJDct_ABrdIP4V36XZtq-30" target="rJDct_ABrdIP4V36XZtq-34">
          <mxGeometry relative="1" as="geometry" />
        </mxCell>
        <mxCell id="rJDct_ABrdIP4V36XZtq-30" value="requirements" style="ellipse;shape=doubleEllipse;margin=3;whiteSpace=wrap;html=1;align=center;rounded=1;" vertex="1" parent="rJDct_ABrdIP4V36XZtq-1">
          <mxGeometry x="439" y="220" width="100" height="40" as="geometry" />
        </mxCell>
        <mxCell id="rJDct_ABrdIP4V36XZtq-31" value="HighSchoolCertificate" style="ellipse;whiteSpace=wrap;html=1;align=center;rounded=1;" vertex="1" parent="rJDct_ABrdIP4V36XZtq-1">
          <mxGeometry x="429" y="370" width="140" height="40" as="geometry" />
        </mxCell>
        <mxCell id="rJDct_ABrdIP4V36XZtq-32" value="TrueCopy&lt;span style=&quot;color: rgba(0, 0, 0, 0); font-family: monospace; font-size: 0px; text-align: start; text-wrap: nowrap;&quot;&gt;%3CmxGraphModel%3E%3Croot%3E%3CmxCell%20id%3D%220%22%2F%3E%3CmxCell%20id%3D%221%22%20parent%3D%220%22%2F%3E%3CmxCell%20id%3D%222%22%20value%3D%22grades%22%20style%3D%22ellipse%3Bshape%3DdoubleEllipse%3Bmargin%3D3%3BwhiteSpace%3Dwrap%3Bhtml%3D1%3Balign%3Dcenter%3B%22%20vertex%3D%221%22%20parent%3D%221%22%3E%3CmxGeometry%20x%3D%22200%22%20y%3D%22180%22%20width%3D%22100%22%20height%3D%2240%22%20as%3D%22geometry%22%2F%3E%3C%2FmxCell%3E%3C%2Froot%3E%3C%2FmxGraphModel%3E&lt;/span&gt;" style="ellipse;whiteSpace=wrap;html=1;align=center;rounded=1;" vertex="1" parent="rJDct_ABrdIP4V36XZtq-1">
          <mxGeometry x="539" y="320" width="100" height="40" as="geometry" />
        </mxCell>
        <mxCell id="rJDct_ABrdIP4V36XZtq-33" value="personalPhoto&lt;span style=&quot;color: rgba(0, 0, 0, 0); font-family: monospace; font-size: 0px; text-align: start; text-wrap: nowrap;&quot;&gt;%3CmxGraphModel%3E%3Croot%3E%3CmxCell%20id%3D%220%22%2F%3E%3CmxCell%20id%3D%221%22%20parent%3D%220%22%2F%3E%3CmxCell%20id%3D%222%22%20value%3D%22grades%22%20style%3D%22ellipse%3Bshape%3DdoubleEllipse%3Bmargin%3D3%3BwhiteSpace%3Dwrap%3Bhtml%3D1%3Balign%3Dcenter%3B%22%20vertex%3D%221%22%20parent%3D%221%22%3E%3CmxGeometry%20x%3D%22200%22%20y%3D%22180%22%20width%3D%22100%22%20height%3D%2240%22%20as%3D%22geometry%22%2F%3E%3C%2FmxCell%3E%3C%2Froot%3E%3C%2FmxGraphModel%3E&lt;/span&gt;" style="ellipse;whiteSpace=wrap;html=1;align=center;rounded=1;" vertex="1" parent="rJDct_ABrdIP4V36XZtq-1">
          <mxGeometry x="579" y="270" width="100" height="40" as="geometry" />
        </mxCell>
        <mxCell id="rJDct_ABrdIP4V36XZtq-34" value="photoForProofDocuments" style="ellipse;whiteSpace=wrap;html=1;align=center;rounded=1;" vertex="1" parent="rJDct_ABrdIP4V36XZtq-1">
          <mxGeometry x="569" y="220" width="160" height="40" as="geometry" />
        </mxCell>
        <mxCell id="rJDct_ABrdIP4V36XZtq-35" style="edgeStyle=orthogonalEdgeStyle;rounded=1;orthogonalLoop=1;jettySize=auto;html=1;exitX=0;exitY=0;exitDx=0;exitDy=0;entryX=1;entryY=0.5;entryDx=0;entryDy=0;" edge="1" parent="rJDct_ABrdIP4V36XZtq-1" source="rJDct_ABrdIP4V36XZtq-40" target="rJDct_ABrdIP4V36XZtq-42">
          <mxGeometry relative="1" as="geometry" />
        </mxCell>
        <mxCell id="rJDct_ABrdIP4V36XZtq-36" style="edgeStyle=orthogonalEdgeStyle;rounded=1;orthogonalLoop=1;jettySize=auto;html=1;exitX=0;exitY=1;exitDx=0;exitDy=0;entryX=1;entryY=0;entryDx=0;entryDy=0;" edge="1" parent="rJDct_ABrdIP4V36XZtq-1" source="rJDct_ABrdIP4V36XZtq-40" target="rJDct_ABrdIP4V36XZtq-43">
          <mxGeometry relative="1" as="geometry" />
        </mxCell>
        <mxCell id="rJDct_ABrdIP4V36XZtq-37" style="edgeStyle=orthogonalEdgeStyle;rounded=1;orthogonalLoop=1;jettySize=auto;html=1;exitX=0;exitY=0.5;exitDx=0;exitDy=0;entryX=1;entryY=0.5;entryDx=0;entryDy=0;" edge="1" parent="rJDct_ABrdIP4V36XZtq-1" source="rJDct_ABrdIP4V36XZtq-40" target="rJDct_ABrdIP4V36XZtq-41">
          <mxGeometry relative="1" as="geometry" />
        </mxCell>
        <mxCell id="rJDct_ABrdIP4V36XZtq-38" style="edgeStyle=orthogonalEdgeStyle;rounded=1;orthogonalLoop=1;jettySize=auto;html=1;exitX=1;exitY=1;exitDx=0;exitDy=0;entryX=0.5;entryY=0;entryDx=0;entryDy=0;" edge="1" parent="rJDct_ABrdIP4V36XZtq-1" source="rJDct_ABrdIP4V36XZtq-40" target="rJDct_ABrdIP4V36XZtq-44">
          <mxGeometry relative="1" as="geometry" />
        </mxCell>
        <mxCell id="rJDct_ABrdIP4V36XZtq-39" style="edgeStyle=orthogonalEdgeStyle;rounded=1;orthogonalLoop=1;jettySize=auto;html=1;exitX=1;exitY=0.5;exitDx=0;exitDy=0;entryX=0.5;entryY=0;entryDx=0;entryDy=0;" edge="1" parent="rJDct_ABrdIP4V36XZtq-1" source="rJDct_ABrdIP4V36XZtq-40" target="rJDct_ABrdIP4V36XZtq-45">
          <mxGeometry relative="1" as="geometry" />
        </mxCell>
        <mxCell id="rJDct_ABrdIP4V36XZtq-40" value="Level" style="whiteSpace=wrap;html=1;align=center;rounded=1;" vertex="1" parent="rJDct_ABrdIP4V36XZtq-1">
          <mxGeometry x="329" y="410" width="100" height="40" as="geometry" />
        </mxCell>
        <mxCell id="rJDct_ABrdIP4V36XZtq-41" value="LevelNumber" style="ellipse;whiteSpace=wrap;html=1;align=center;rounded=1;" vertex="1" parent="rJDct_ABrdIP4V36XZtq-1">
          <mxGeometry x="189" y="420" width="100" height="40" as="geometry" />
        </mxCell>
        <mxCell id="rJDct_ABrdIP4V36XZtq-42" value="Id" style="ellipse;whiteSpace=wrap;html=1;align=center;fontStyle=4;rounded=1;" vertex="1" parent="rJDct_ABrdIP4V36XZtq-1">
          <mxGeometry x="189" y="360" width="100" height="40" as="geometry" />
        </mxCell>
        <mxCell id="rJDct_ABrdIP4V36XZtq-43" value="section&lt;span style=&quot;color: rgba(0, 0, 0, 0); font-family: monospace; font-size: 0px; text-align: start; text-wrap: nowrap;&quot;&gt;%3CmxGraphModel%3E%3Croot%3E%3CmxCell%20id%3D%220%22%2F%3E%3CmxCell%20id%3D%221%22%20parent%3D%220%22%2F%3E%3CmxCell%20id%3D%222%22%20value%3D%22LevelNumber%22%20style%3D%22ellipse%3BwhiteSpace%3Dwrap%3Bhtml%3D1%3Balign%3Dcenter%3B%22%20vertex%3D%221%22%20parent%3D%221%22%3E%3CmxGeometry%20x%3D%22200%22%20y%3D%22420%22%20width%3D%22100%22%20height%3D%2240%22%20as%3D%22geometry%22%2F%3E%3C%2FmxCell%3E%3C%2Froot%3E%3C%2FmxGraphModel%3E&lt;/span&gt;" style="ellipse;whiteSpace=wrap;html=1;align=center;rounded=1;" vertex="1" parent="rJDct_ABrdIP4V36XZtq-1">
          <mxGeometry x="189" y="490" width="100" height="40" as="geometry" />
        </mxCell>
        <mxCell id="rJDct_ABrdIP4V36XZtq-44" value="specialization" style="ellipse;whiteSpace=wrap;html=1;align=center;rounded=1;" vertex="1" parent="rJDct_ABrdIP4V36XZtq-1">
          <mxGeometry x="429" y="510" width="100" height="40" as="geometry" />
        </mxCell>
        <mxCell id="rJDct_ABrdIP4V36XZtq-45" value="Group" style="ellipse;whiteSpace=wrap;html=1;align=center;rounded=1;" vertex="1" parent="rJDct_ABrdIP4V36XZtq-1">
          <mxGeometry x="479" y="450" width="100" height="40" as="geometry" />
        </mxCell>
        <mxCell id="rJDct_ABrdIP4V36XZtq-46" value="Relationship" style="shape=rhombus;perimeter=rhombusPerimeter;whiteSpace=wrap;html=1;align=center;rounded=1;" vertex="1" parent="rJDct_ABrdIP4V36XZtq-1">
          <mxGeometry x="319" y="300" width="120" height="60" as="geometry" />
        </mxCell>
        <mxCell id="rJDct_ABrdIP4V36XZtq-47" style="edgeStyle=orthogonalEdgeStyle;rounded=1;orthogonalLoop=1;jettySize=auto;html=1;exitX=0.75;exitY=0;exitDx=0;exitDy=0;entryX=0.5;entryY=1;entryDx=0;entryDy=0;" edge="1" parent="rJDct_ABrdIP4V36XZtq-1" source="rJDct_ABrdIP4V36XZtq-53" target="rJDct_ABrdIP4V36XZtq-76">
          <mxGeometry relative="1" as="geometry">
            <mxPoint x="679" y="610" as="targetPoint" />
            <Array as="points">
              <mxPoint x="634" y="620" />
              <mxPoint x="679" y="620" />
            </Array>
          </mxGeometry>
        </mxCell>
        <mxCell id="rJDct_ABrdIP4V36XZtq-48" style="edgeStyle=orthogonalEdgeStyle;rounded=1;orthogonalLoop=1;jettySize=auto;html=1;exitX=0.25;exitY=0;exitDx=0;exitDy=0;entryX=1;entryY=0.5;entryDx=0;entryDy=0;" edge="1" parent="rJDct_ABrdIP4V36XZtq-1" source="rJDct_ABrdIP4V36XZtq-53" target="rJDct_ABrdIP4V36XZtq-73">
          <mxGeometry relative="1" as="geometry" />
        </mxCell>
        <mxCell id="rJDct_ABrdIP4V36XZtq-49" style="edgeStyle=orthogonalEdgeStyle;rounded=1;orthogonalLoop=1;jettySize=auto;html=1;exitX=0.25;exitY=1;exitDx=0;exitDy=0;entryX=1;entryY=0;entryDx=0;entryDy=0;" edge="1" parent="rJDct_ABrdIP4V36XZtq-1" source="rJDct_ABrdIP4V36XZtq-53" target="rJDct_ABrdIP4V36XZtq-74">
          <mxGeometry relative="1" as="geometry" />
        </mxCell>
        <mxCell id="rJDct_ABrdIP4V36XZtq-50" style="edgeStyle=orthogonalEdgeStyle;rounded=1;orthogonalLoop=1;jettySize=auto;html=1;exitX=0.75;exitY=1;exitDx=0;exitDy=0;entryX=0.5;entryY=0;entryDx=0;entryDy=0;" edge="1" parent="rJDct_ABrdIP4V36XZtq-1" source="rJDct_ABrdIP4V36XZtq-53" target="rJDct_ABrdIP4V36XZtq-75">
          <mxGeometry relative="1" as="geometry" />
        </mxCell>
        <mxCell id="rJDct_ABrdIP4V36XZtq-51" style="edgeStyle=orthogonalEdgeStyle;rounded=1;orthogonalLoop=1;jettySize=auto;html=1;exitX=1;exitY=1;exitDx=0;exitDy=0;entryX=0;entryY=0.5;entryDx=0;entryDy=0;" edge="1" parent="rJDct_ABrdIP4V36XZtq-1" source="rJDct_ABrdIP4V36XZtq-53" target="rJDct_ABrdIP4V36XZtq-77">
          <mxGeometry relative="1" as="geometry" />
        </mxCell>
        <mxCell id="rJDct_ABrdIP4V36XZtq-52" style="edgeStyle=orthogonalEdgeStyle;rounded=1;orthogonalLoop=1;jettySize=auto;html=1;exitX=1;exitY=0.5;exitDx=0;exitDy=0;entryX=0;entryY=0.5;entryDx=0;entryDy=0;" edge="1" parent="rJDct_ABrdIP4V36XZtq-1" source="rJDct_ABrdIP4V36XZtq-53" target="rJDct_ABrdIP4V36XZtq-78">
          <mxGeometry relative="1" as="geometry" />
        </mxCell>
        <mxCell id="rJDct_ABrdIP4V36XZtq-53" value="Doctor" style="whiteSpace=wrap;html=1;align=center;rounded=1;" vertex="1" parent="rJDct_ABrdIP4V36XZtq-1">
          <mxGeometry x="559" y="660" width="100" height="40" as="geometry" />
        </mxCell>
        <mxCell id="rJDct_ABrdIP4V36XZtq-54" style="edgeStyle=orthogonalEdgeStyle;rounded=1;orthogonalLoop=1;jettySize=auto;html=1;exitX=0;exitY=0;exitDx=0;exitDy=0;entryX=1;entryY=0.5;entryDx=0;entryDy=0;" edge="1" parent="rJDct_ABrdIP4V36XZtq-1" source="rJDct_ABrdIP4V36XZtq-56" target="rJDct_ABrdIP4V36XZtq-66">
          <mxGeometry relative="1" as="geometry" />
        </mxCell>
        <mxCell id="rJDct_ABrdIP4V36XZtq-55" style="edgeStyle=orthogonalEdgeStyle;rounded=1;orthogonalLoop=1;jettySize=auto;html=1;exitX=0;exitY=1;exitDx=0;exitDy=0;" edge="1" parent="rJDct_ABrdIP4V36XZtq-1" source="rJDct_ABrdIP4V36XZtq-56" target="rJDct_ABrdIP4V36XZtq-67">
          <mxGeometry relative="1" as="geometry" />
        </mxCell>
        <mxCell id="rJDct_ABrdIP4V36XZtq-56" value="Subjects" style="whiteSpace=wrap;html=1;align=center;rounded=1;" vertex="1" parent="rJDct_ABrdIP4V36XZtq-1">
          <mxGeometry x="189" y="660" width="100" height="40" as="geometry" />
        </mxCell>
        <mxCell id="rJDct_ABrdIP4V36XZtq-57" value="Relationship" style="shape=rhombus;perimeter=rhombusPerimeter;whiteSpace=wrap;html=1;align=center;rounded=1;" vertex="1" parent="rJDct_ABrdIP4V36XZtq-1">
          <mxGeometry x="259" y="550" width="120" height="60" as="geometry" />
        </mxCell>
        <mxCell id="rJDct_ABrdIP4V36XZtq-58" value="" style="endArrow=none;html=1;rounded=1;entryX=0.5;entryY=0;entryDx=0;entryDy=0;exitX=0.5;exitY=1;exitDx=0;exitDy=0;" edge="1" parent="rJDct_ABrdIP4V36XZtq-1" source="rJDct_ABrdIP4V36XZtq-9" target="rJDct_ABrdIP4V36XZtq-46">
          <mxGeometry relative="1" as="geometry">
            <mxPoint x="229" y="250" as="sourcePoint" />
            <mxPoint x="389" y="250" as="targetPoint" />
          </mxGeometry>
        </mxCell>
        <mxCell id="rJDct_ABrdIP4V36XZtq-59" value="1" style="resizable=0;html=1;whiteSpace=wrap;align=right;verticalAlign=bottom;rounded=1;" connectable="0" vertex="1" parent="rJDct_ABrdIP4V36XZtq-58">
          <mxGeometry x="1" relative="1" as="geometry" />
        </mxCell>
        <mxCell id="rJDct_ABrdIP4V36XZtq-60" value="" style="endArrow=none;html=1;rounded=1;exitX=0.5;exitY=0;exitDx=0;exitDy=0;entryX=0.5;entryY=1;entryDx=0;entryDy=0;" edge="1" parent="rJDct_ABrdIP4V36XZtq-1" source="rJDct_ABrdIP4V36XZtq-40" target="rJDct_ABrdIP4V36XZtq-46">
          <mxGeometry relative="1" as="geometry">
            <mxPoint x="359" y="380" as="sourcePoint" />
            <mxPoint x="519" y="380" as="targetPoint" />
          </mxGeometry>
        </mxCell>
        <mxCell id="rJDct_ABrdIP4V36XZtq-61" value="N" style="resizable=0;html=1;whiteSpace=wrap;align=right;verticalAlign=bottom;rounded=1;" connectable="0" vertex="1" parent="rJDct_ABrdIP4V36XZtq-60">
          <mxGeometry x="1" relative="1" as="geometry" />
        </mxCell>
        <mxCell id="rJDct_ABrdIP4V36XZtq-62" value="" style="endArrow=none;html=1;rounded=1;exitX=0.5;exitY=1;exitDx=0;exitDy=0;entryX=0.5;entryY=0;entryDx=0;entryDy=0;" edge="1" parent="rJDct_ABrdIP4V36XZtq-1" source="rJDct_ABrdIP4V36XZtq-40" target="rJDct_ABrdIP4V36XZtq-57">
          <mxGeometry relative="1" as="geometry">
            <mxPoint x="119" y="610" as="sourcePoint" />
            <mxPoint x="279" y="610" as="targetPoint" />
          </mxGeometry>
        </mxCell>
        <mxCell id="rJDct_ABrdIP4V36XZtq-63" value="N" style="resizable=0;html=1;whiteSpace=wrap;align=right;verticalAlign=bottom;rounded=1;" connectable="0" vertex="1" parent="rJDct_ABrdIP4V36XZtq-62">
          <mxGeometry x="1" relative="1" as="geometry" />
        </mxCell>
        <mxCell id="rJDct_ABrdIP4V36XZtq-64" value="" style="endArrow=none;html=1;rounded=1;entryX=0.5;entryY=1;entryDx=0;entryDy=0;exitX=0.5;exitY=0;exitDx=0;exitDy=0;" edge="1" parent="rJDct_ABrdIP4V36XZtq-1" source="rJDct_ABrdIP4V36XZtq-56" target="rJDct_ABrdIP4V36XZtq-57">
          <mxGeometry relative="1" as="geometry">
            <mxPoint x="139" y="640" as="sourcePoint" />
            <mxPoint x="299" y="640" as="targetPoint" />
          </mxGeometry>
        </mxCell>
        <mxCell id="rJDct_ABrdIP4V36XZtq-65" value="N" style="resizable=0;html=1;whiteSpace=wrap;align=right;verticalAlign=bottom;rounded=1;" connectable="0" vertex="1" parent="rJDct_ABrdIP4V36XZtq-64">
          <mxGeometry x="1" relative="1" as="geometry" />
        </mxCell>
        <mxCell id="rJDct_ABrdIP4V36XZtq-66" value="&lt;u&gt;id&lt;/u&gt;" style="ellipse;whiteSpace=wrap;html=1;align=center;rounded=1;" vertex="1" parent="rJDct_ABrdIP4V36XZtq-1">
          <mxGeometry x="69" y="600" width="100" height="40" as="geometry" />
        </mxCell>
        <mxCell id="rJDct_ABrdIP4V36XZtq-67" value="Name" style="ellipse;whiteSpace=wrap;html=1;align=center;rounded=1;" vertex="1" parent="rJDct_ABrdIP4V36XZtq-1">
          <mxGeometry x="69" y="700" width="100" height="40" as="geometry" />
        </mxCell>
        <mxCell id="rJDct_ABrdIP4V36XZtq-68" value="Relationship" style="shape=rhombus;perimeter=rhombusPerimeter;whiteSpace=wrap;html=1;align=center;rounded=1;" vertex="1" parent="rJDct_ABrdIP4V36XZtq-1">
          <mxGeometry x="329" y="650" width="120" height="60" as="geometry" />
        </mxCell>
        <mxCell id="rJDct_ABrdIP4V36XZtq-69" value="" style="endArrow=none;html=1;rounded=1;exitX=1;exitY=0.5;exitDx=0;exitDy=0;entryX=0;entryY=0.5;entryDx=0;entryDy=0;" edge="1" parent="rJDct_ABrdIP4V36XZtq-1" source="rJDct_ABrdIP4V36XZtq-56" target="rJDct_ABrdIP4V36XZtq-68">
          <mxGeometry relative="1" as="geometry">
            <mxPoint x="459" y="770" as="sourcePoint" />
            <mxPoint x="619" y="770" as="targetPoint" />
          </mxGeometry>
        </mxCell>
        <mxCell id="rJDct_ABrdIP4V36XZtq-70" value="N" style="resizable=0;html=1;whiteSpace=wrap;align=right;verticalAlign=bottom;rounded=1;" connectable="0" vertex="1" parent="rJDct_ABrdIP4V36XZtq-69">
          <mxGeometry x="1" relative="1" as="geometry" />
        </mxCell>
        <mxCell id="rJDct_ABrdIP4V36XZtq-71" value="" style="endArrow=none;html=1;rounded=1;entryX=1;entryY=0.5;entryDx=0;entryDy=0;exitX=0;exitY=0.5;exitDx=0;exitDy=0;" edge="1" parent="rJDct_ABrdIP4V36XZtq-1" source="rJDct_ABrdIP4V36XZtq-53" target="rJDct_ABrdIP4V36XZtq-68">
          <mxGeometry relative="1" as="geometry">
            <mxPoint x="179" y="760" as="sourcePoint" />
            <mxPoint x="419" y="670" as="targetPoint" />
          </mxGeometry>
        </mxCell>
        <mxCell id="rJDct_ABrdIP4V36XZtq-72" value="1" style="resizable=0;html=1;whiteSpace=wrap;align=right;verticalAlign=bottom;rounded=1;" connectable="0" vertex="1" parent="rJDct_ABrdIP4V36XZtq-71">
          <mxGeometry x="1" relative="1" as="geometry" />
        </mxCell>
        <mxCell id="rJDct_ABrdIP4V36XZtq-73" value="name" style="ellipse;whiteSpace=wrap;html=1;align=center;rounded=1;" vertex="1" parent="rJDct_ABrdIP4V36XZtq-1">
          <mxGeometry x="469" y="600" width="100" height="40" as="geometry" />
        </mxCell>
        <mxCell id="rJDct_ABrdIP4V36XZtq-74" value="phoneNumber" style="ellipse;whiteSpace=wrap;html=1;align=center;rounded=1;" vertex="1" parent="rJDct_ABrdIP4V36XZtq-1">
          <mxGeometry x="479" y="780" width="100" height="40" as="geometry" />
        </mxCell>
        <mxCell id="rJDct_ABrdIP4V36XZtq-75" value="birthDate" style="ellipse;whiteSpace=wrap;html=1;align=center;rounded=1;" vertex="1" parent="rJDct_ABrdIP4V36XZtq-1">
          <mxGeometry x="599" y="780" width="100" height="40" as="geometry" />
        </mxCell>
        <mxCell id="rJDct_ABrdIP4V36XZtq-76" value="id" style="ellipse;whiteSpace=wrap;html=1;align=center;fontStyle=4;rounded=1;" vertex="1" parent="rJDct_ABrdIP4V36XZtq-1">
          <mxGeometry x="629" y="570" width="100" height="40" as="geometry" />
        </mxCell>
        <mxCell id="rJDct_ABrdIP4V36XZtq-77" value="GraduatYear" style="ellipse;whiteSpace=wrap;html=1;align=center;rounded=1;" vertex="1" parent="rJDct_ABrdIP4V36XZtq-1">
          <mxGeometry x="679" y="730" width="100" height="40" as="geometry" />
        </mxCell>
        <mxCell id="rJDct_ABrdIP4V36XZtq-78" value="experienceYears" style="ellipse;whiteSpace=wrap;html=1;align=center;rounded=1;" vertex="1" parent="rJDct_ABrdIP4V36XZtq-1">
          <mxGeometry x="689" y="660" width="100" height="40" as="geometry" />
        </mxCell>
        <mxCell id="rJDct_ABrdIP4V36XZtq-79" value="&lt;h1 style=&quot;margin-top: 0px;&quot;&gt;ERD:&lt;/h1&gt;&lt;p style=&quot;line-height: 0%;&quot;&gt;this projects for students and doctors orgnzition.&lt;/p&gt;" style="text;html=1;whiteSpace=wrap;overflow=hidden;rounded=1;" vertex="1" parent="rJDct_ABrdIP4V36XZtq-1">
          <mxGeometry x="30" y="890" width="710" height="80" as="geometry" />
        </mxCell>
        <mxCell id="rJDct_ABrdIP4V36XZtq-80" value="&lt;h1 style=&quot;margin-top: 0px; margin-bottom: 8px; line-height: 120%;&quot;&gt;&lt;span style=&quot;background-color: initial;&quot;&gt;Note:&lt;/span&gt;&lt;/h1&gt;&lt;h1 style=&quot;margin-top: 0px; line-height: 0%;&quot;&gt;&lt;ul style=&quot;margin-bottom: 0px; line-height: 0%;&quot;&gt;&lt;li&gt;&lt;span style=&quot;background-color: initial; font-size: 12px; font-weight: normal;&quot;&gt;any note will be here&amp;gt;&lt;/span&gt;&lt;/li&gt;&lt;/ul&gt;&lt;/h1&gt;" style="text;html=1;whiteSpace=wrap;overflow=hidden;rounded=1;" vertex="1" parent="rJDct_ABrdIP4V36XZtq-1">
          <mxGeometry x="30" y="960" width="710" height="80" as="geometry" />
        </mxCell>
      </root>
    </mxGraphModel>
  </diagram>
  <diagram id="aifeO9VlgD2j0njkFydK" name="Page-2">
    <mxGraphModel dx="1467" dy="953" grid="1" gridSize="10" guides="1" tooltips="1" connect="1" arrows="1" fold="1" page="1" pageScale="1" pageWidth="827" pageHeight="1169" math="0" shadow="0">
      <root>
        <mxCell id="0" />
        <mxCell id="1" parent="0" />
        <mxCell id="VNVb-TQq0ODYBA_D9zjY-1" value="&lt;b&gt;&lt;font style=&quot;font-size: 16px;&quot;&gt;Students&lt;/font&gt;&lt;/b&gt;" style="text;html=1;align=left;verticalAlign=middle;whiteSpace=wrap;rounded=0;" vertex="1" parent="1">
          <mxGeometry y="40" width="80" height="30" as="geometry" />
        </mxCell>
        <mxCell id="bNlfvv2zElGUJj1mf9xr-1" value="&lt;u&gt;highSchoolNumber&lt;/u&gt;" style="rounded=0;whiteSpace=wrap;html=1;" vertex="1" parent="1">
          <mxGeometry y="70" width="120" height="30" as="geometry" />
        </mxCell>
        <mxCell id="bNlfvv2zElGUJj1mf9xr-5" value="name" style="rounded=0;whiteSpace=wrap;html=1;" vertex="1" parent="1">
          <mxGeometry x="120" y="70" width="120" height="30" as="geometry" />
        </mxCell>
        <mxCell id="bNlfvv2zElGUJj1mf9xr-6" value="birthDate" style="rounded=0;whiteSpace=wrap;html=1;" vertex="1" parent="1">
          <mxGeometry x="240" y="70" width="120" height="30" as="geometry" />
        </mxCell>
        <mxCell id="bNlfvv2zElGUJj1mf9xr-7" value="phoneNumber" style="rounded=0;whiteSpace=wrap;html=1;" vertex="1" parent="1">
          <mxGeometry x="360" y="70" width="120" height="30" as="geometry" />
        </mxCell>
        <mxCell id="bNlfvv2zElGUJj1mf9xr-8" value="highSchoolDegree" style="rounded=0;whiteSpace=wrap;html=1;" vertex="1" parent="1">
          <mxGeometry x="480" y="70" width="120" height="30" as="geometry" />
        </mxCell>
        <mxCell id="t57fGnKwvnuP5-Etaptt-1" value="highSchoolDegree" style="rounded=0;whiteSpace=wrap;html=1;" vertex="1" parent="1">
          <mxGeometry x="600" y="70" width="120" height="30" as="geometry" />
        </mxCell>
        <mxCell id="t57fGnKwvnuP5-Etaptt-2" value="&lt;font style=&quot;font-size: 16px;&quot;&gt;&lt;b&gt;grades&lt;/b&gt;&lt;/font&gt;" style="text;html=1;align=left;verticalAlign=middle;whiteSpace=wrap;rounded=0;" vertex="1" parent="1">
          <mxGeometry y="140" width="80" height="30" as="geometry" />
        </mxCell>
        <mxCell id="t57fGnKwvnuP5-Etaptt-9" style="edgeStyle=orthogonalEdgeStyle;rounded=1;orthogonalLoop=1;jettySize=auto;html=1;exitX=0.75;exitY=0;exitDx=0;exitDy=0;entryX=0.75;entryY=1;entryDx=0;entryDy=0;" edge="1" parent="1" source="t57fGnKwvnuP5-Etaptt-3" target="bNlfvv2zElGUJj1mf9xr-1">
          <mxGeometry relative="1" as="geometry" />
        </mxCell>
        <mxCell id="t57fGnKwvnuP5-Etaptt-3" value="&lt;u&gt;highSchoolNumber&lt;/u&gt;" style="rounded=0;whiteSpace=wrap;html=1;" vertex="1" parent="1">
          <mxGeometry y="170" width="120" height="30" as="geometry" />
        </mxCell>
        <mxCell id="t57fGnKwvnuP5-Etaptt-4" value="&lt;u&gt;levelOne&lt;/u&gt;" style="rounded=0;whiteSpace=wrap;html=1;" vertex="1" parent="1">
          <mxGeometry x="120" y="170" width="120" height="30" as="geometry" />
        </mxCell>
        <mxCell id="t57fGnKwvnuP5-Etaptt-5" value="levelTow" style="rounded=0;whiteSpace=wrap;html=1;" vertex="1" parent="1">
          <mxGeometry x="240" y="170" width="120" height="30" as="geometry" />
        </mxCell>
        <mxCell id="t57fGnKwvnuP5-Etaptt-6" value="levelThree" style="rounded=0;whiteSpace=wrap;html=1;" vertex="1" parent="1">
          <mxGeometry x="360" y="170" width="120" height="30" as="geometry" />
        </mxCell>
        <mxCell id="t57fGnKwvnuP5-Etaptt-7" value="levelFour" style="rounded=0;whiteSpace=wrap;html=1;" vertex="1" parent="1">
          <mxGeometry x="480" y="170" width="120" height="30" as="geometry" />
        </mxCell>
        <mxCell id="t57fGnKwvnuP5-Etaptt-10" value="&lt;font style=&quot;font-size: 16px;&quot;&gt;&lt;b&gt;grades&lt;/b&gt;&lt;/font&gt;" style="text;html=1;align=left;verticalAlign=middle;whiteSpace=wrap;rounded=0;" vertex="1" parent="1">
          <mxGeometry y="220" width="80" height="30" as="geometry" />
        </mxCell>
        <mxCell id="t57fGnKwvnuP5-Etaptt-16" style="edgeStyle=orthogonalEdgeStyle;rounded=1;orthogonalLoop=1;jettySize=auto;html=1;entryX=0.5;entryY=1;entryDx=0;entryDy=0;exitX=0.75;exitY=0;exitDx=0;exitDy=0;" edge="1" parent="1" source="t57fGnKwvnuP5-Etaptt-11" target="t57fGnKwvnuP5-Etaptt-18">
          <mxGeometry relative="1" as="geometry">
            <mxPoint x="90" y="240" as="sourcePoint" />
            <mxPoint x="60" y="90" as="targetPoint" />
            <Array as="points">
              <mxPoint x="90" y="230" />
              <mxPoint x="630" y="230" />
              <mxPoint x="630" y="140" />
              <mxPoint x="60" y="140" />
            </Array>
          </mxGeometry>
        </mxCell>
        <mxCell id="t57fGnKwvnuP5-Etaptt-11" value="&lt;u&gt;highSchoolNumber&lt;/u&gt;" style="rounded=0;whiteSpace=wrap;html=1;" vertex="1" parent="1">
          <mxGeometry y="250" width="120" height="30" as="geometry" />
        </mxCell>
        <mxCell id="t57fGnKwvnuP5-Etaptt-12" value="&lt;u&gt;photoForProof-&lt;span style=&quot;background-color: initial;&quot;&gt;Documents&lt;/span&gt;&lt;/u&gt;" style="rounded=0;whiteSpace=wrap;html=1;" vertex="1" parent="1">
          <mxGeometry x="120" y="250" width="120" height="30" as="geometry" />
        </mxCell>
        <mxCell id="t57fGnKwvnuP5-Etaptt-13" value="personalPhoto" style="rounded=0;whiteSpace=wrap;html=1;" vertex="1" parent="1">
          <mxGeometry x="240" y="250" width="120" height="30" as="geometry" />
        </mxCell>
        <mxCell id="t57fGnKwvnuP5-Etaptt-14" value="TrueCopy" style="rounded=0;whiteSpace=wrap;html=1;" vertex="1" parent="1">
          <mxGeometry x="360" y="250" width="120" height="30" as="geometry" />
        </mxCell>
        <mxCell id="t57fGnKwvnuP5-Etaptt-15" value="HighSchoolCertificate" style="rounded=0;whiteSpace=wrap;html=1;" vertex="1" parent="1">
          <mxGeometry x="480" y="250" width="120" height="30" as="geometry" />
        </mxCell>
        <mxCell id="t57fGnKwvnuP5-Etaptt-18" value="" style="line;strokeWidth=1;rotatable=0;dashed=0;labelPosition=right;align=left;verticalAlign=middle;spacingTop=0;spacingLeft=6;points=[];portConstraint=eastwest;rounded=1;" vertex="1" parent="1">
          <mxGeometry x="30" y="85" width="60" height="10" as="geometry" />
        </mxCell>
        <mxCell id="t57fGnKwvnuP5-Etaptt-32" style="edgeStyle=orthogonalEdgeStyle;rounded=1;orthogonalLoop=1;jettySize=auto;html=1;exitX=0.75;exitY=1;exitDx=0;exitDy=0;entryX=0.75;entryY=0;entryDx=0;entryDy=0;" edge="1" parent="1" source="t57fGnKwvnuP5-Etaptt-22" target="t57fGnKwvnuP5-Etaptt-27">
          <mxGeometry relative="1" as="geometry">
            <Array as="points">
              <mxPoint x="810" y="300" />
              <mxPoint x="90" y="300" />
            </Array>
          </mxGeometry>
        </mxCell>
        <mxCell id="t57fGnKwvnuP5-Etaptt-22" value="LevelID" style="rounded=0;whiteSpace=wrap;html=1;" vertex="1" parent="1">
          <mxGeometry x="720" y="70" width="100" height="30" as="geometry" />
        </mxCell>
        <mxCell id="t57fGnKwvnuP5-Etaptt-26" value="&lt;font style=&quot;font-size: 16px;&quot;&gt;&lt;b&gt;Level&lt;/b&gt;&lt;/font&gt;" style="text;html=1;align=left;verticalAlign=middle;whiteSpace=wrap;rounded=0;" vertex="1" parent="1">
          <mxGeometry y="300" width="80" height="30" as="geometry" />
        </mxCell>
        <mxCell id="t57fGnKwvnuP5-Etaptt-27" value="&lt;u&gt;Id&lt;/u&gt;" style="rounded=0;whiteSpace=wrap;html=1;" vertex="1" parent="1">
          <mxGeometry y="330" width="120" height="30" as="geometry" />
        </mxCell>
        <mxCell id="t57fGnKwvnuP5-Etaptt-28" value="studentsLevel" style="rounded=0;whiteSpace=wrap;html=1;" vertex="1" parent="1">
          <mxGeometry x="120" y="330" width="120" height="30" as="geometry" />
        </mxCell>
        <mxCell id="t57fGnKwvnuP5-Etaptt-29" value="section" style="rounded=0;whiteSpace=wrap;html=1;" vertex="1" parent="1">
          <mxGeometry x="240" y="330" width="120" height="30" as="geometry" />
        </mxCell>
        <mxCell id="t57fGnKwvnuP5-Etaptt-30" value="specialization" style="rounded=0;whiteSpace=wrap;html=1;" vertex="1" parent="1">
          <mxGeometry x="360" y="330" width="120" height="30" as="geometry" />
        </mxCell>
        <mxCell id="t57fGnKwvnuP5-Etaptt-31" value="Group" style="rounded=0;whiteSpace=wrap;html=1;" vertex="1" parent="1">
          <mxGeometry x="480" y="330" width="120" height="30" as="geometry" />
        </mxCell>
        <mxCell id="t57fGnKwvnuP5-Etaptt-33" value="&lt;font style=&quot;font-size: 16px;&quot;&gt;&lt;b&gt;Subjects&lt;/b&gt;&lt;/font&gt;" style="text;html=1;align=left;verticalAlign=middle;whiteSpace=wrap;rounded=0;" vertex="1" parent="1">
          <mxGeometry y="384" width="80" height="30" as="geometry" />
        </mxCell>
        <mxCell id="t57fGnKwvnuP5-Etaptt-34" value="&lt;u&gt;Id&lt;/u&gt;" style="rounded=0;whiteSpace=wrap;html=1;" vertex="1" parent="1">
          <mxGeometry y="414" width="120" height="30" as="geometry" />
        </mxCell>
        <mxCell id="t57fGnKwvnuP5-Etaptt-35" value="Name" style="rounded=0;whiteSpace=wrap;html=1;" vertex="1" parent="1">
          <mxGeometry x="120" y="414" width="120" height="30" as="geometry" />
        </mxCell>
        <mxCell id="t57fGnKwvnuP5-Etaptt-36" value="section" style="rounded=0;whiteSpace=wrap;html=1;" vertex="1" parent="1">
          <mxGeometry x="240" y="414" width="120" height="30" as="geometry" />
        </mxCell>
        <mxCell id="t57fGnKwvnuP5-Etaptt-37" value="&lt;font style=&quot;font-size: 16px;&quot;&gt;&lt;b&gt;SubLev&lt;/b&gt;&lt;/font&gt;" style="text;html=1;align=left;verticalAlign=middle;whiteSpace=wrap;rounded=0;" vertex="1" parent="1">
          <mxGeometry y="480" width="80" height="30" as="geometry" />
        </mxCell>
        <mxCell id="t57fGnKwvnuP5-Etaptt-42" style="edgeStyle=orthogonalEdgeStyle;rounded=1;orthogonalLoop=1;jettySize=auto;html=1;exitX=0.75;exitY=0;exitDx=0;exitDy=0;entryX=0.75;entryY=1;entryDx=0;entryDy=0;" edge="1" parent="1" source="t57fGnKwvnuP5-Etaptt-38" target="t57fGnKwvnuP5-Etaptt-27">
          <mxGeometry relative="1" as="geometry">
            <Array as="points">
              <mxPoint x="90" y="460" />
              <mxPoint x="530" y="460" />
              <mxPoint x="530" y="390" />
              <mxPoint x="90" y="390" />
            </Array>
          </mxGeometry>
        </mxCell>
        <mxCell id="t57fGnKwvnuP5-Etaptt-38" value="&lt;u&gt;LevelId&lt;/u&gt;" style="rounded=0;whiteSpace=wrap;html=1;" vertex="1" parent="1">
          <mxGeometry y="510" width="120" height="30" as="geometry" />
        </mxCell>
        <mxCell id="t57fGnKwvnuP5-Etaptt-41" style="edgeStyle=orthogonalEdgeStyle;rounded=1;orthogonalLoop=1;jettySize=auto;html=1;exitX=0.25;exitY=0;exitDx=0;exitDy=0;entryX=0.5;entryY=1;entryDx=0;entryDy=0;" edge="1" parent="1" source="t57fGnKwvnuP5-Etaptt-39" target="t57fGnKwvnuP5-Etaptt-34">
          <mxGeometry relative="1" as="geometry">
            <Array as="points">
              <mxPoint x="150" y="470" />
              <mxPoint x="60" y="470" />
            </Array>
          </mxGeometry>
        </mxCell>
        <mxCell id="t57fGnKwvnuP5-Etaptt-39" value="&lt;u&gt;SubjectId&lt;/u&gt;" style="rounded=0;whiteSpace=wrap;html=1;" vertex="1" parent="1">
          <mxGeometry x="120" y="510" width="120" height="30" as="geometry" />
        </mxCell>
        <mxCell id="t57fGnKwvnuP5-Etaptt-50" style="edgeStyle=orthogonalEdgeStyle;rounded=1;orthogonalLoop=1;jettySize=auto;html=1;exitX=0.25;exitY=1;exitDx=0;exitDy=0;entryX=0.75;entryY=0;entryDx=0;entryDy=0;" edge="1" parent="1" source="t57fGnKwvnuP5-Etaptt-40" target="t57fGnKwvnuP5-Etaptt-44">
          <mxGeometry relative="1" as="geometry" />
        </mxCell>
        <mxCell id="t57fGnKwvnuP5-Etaptt-40" value="DoctorId" style="rounded=0;whiteSpace=wrap;html=1;" vertex="1" parent="1">
          <mxGeometry x="120" y="600" width="120" height="30" as="geometry" />
        </mxCell>
        <mxCell id="t57fGnKwvnuP5-Etaptt-43" value="&lt;b&gt;&lt;font style=&quot;font-size: 16px;&quot;&gt;Doctor&lt;/font&gt;&lt;/b&gt;" style="text;html=1;align=left;verticalAlign=middle;whiteSpace=wrap;rounded=0;" vertex="1" parent="1">
          <mxGeometry y="680" width="80" height="30" as="geometry" />
        </mxCell>
        <mxCell id="t57fGnKwvnuP5-Etaptt-44" value="&lt;u&gt;Id&lt;/u&gt;" style="rounded=0;whiteSpace=wrap;html=1;" vertex="1" parent="1">
          <mxGeometry y="710" width="120" height="30" as="geometry" />
        </mxCell>
        <mxCell id="t57fGnKwvnuP5-Etaptt-45" value="name" style="rounded=0;whiteSpace=wrap;html=1;" vertex="1" parent="1">
          <mxGeometry x="120" y="710" width="120" height="30" as="geometry" />
        </mxCell>
        <mxCell id="t57fGnKwvnuP5-Etaptt-46" value="phoneNumber" style="rounded=0;whiteSpace=wrap;html=1;" vertex="1" parent="1">
          <mxGeometry x="240" y="710" width="120" height="30" as="geometry" />
        </mxCell>
        <mxCell id="t57fGnKwvnuP5-Etaptt-47" value="birthDate" style="rounded=0;whiteSpace=wrap;html=1;" vertex="1" parent="1">
          <mxGeometry x="360" y="710" width="120" height="30" as="geometry" />
        </mxCell>
        <mxCell id="t57fGnKwvnuP5-Etaptt-48" value="GraduatYear" style="rounded=0;whiteSpace=wrap;html=1;" vertex="1" parent="1">
          <mxGeometry x="480" y="710" width="120" height="30" as="geometry" />
        </mxCell>
        <mxCell id="t57fGnKwvnuP5-Etaptt-49" value="experienceYears" style="rounded=0;whiteSpace=wrap;html=1;" vertex="1" parent="1">
          <mxGeometry x="600" y="710" width="120" height="30" as="geometry" />
        </mxCell>
        <mxCell id="wkKkkOtAbl1wiGdaWRtV-1" value="&lt;font style=&quot;font-size: 16px;&quot;&gt;&lt;b&gt;SubDr&lt;/b&gt;&lt;/font&gt;" style="text;html=1;align=left;verticalAlign=middle;whiteSpace=wrap;rounded=0;" vertex="1" parent="1">
          <mxGeometry y="570" width="80" height="30" as="geometry" />
        </mxCell>
        <mxCell id="wkKkkOtAbl1wiGdaWRtV-3" style="edgeStyle=orthogonalEdgeStyle;rounded=1;orthogonalLoop=1;jettySize=auto;html=1;exitX=0.75;exitY=0;exitDx=0;exitDy=0;entryX=0.25;entryY=1;entryDx=0;entryDy=0;" edge="1" parent="1" source="wkKkkOtAbl1wiGdaWRtV-2" target="t57fGnKwvnuP5-Etaptt-34">
          <mxGeometry relative="1" as="geometry">
            <Array as="points">
              <mxPoint x="90" y="580" />
              <mxPoint x="340" y="580" />
              <mxPoint x="340" y="480" />
              <mxPoint x="30" y="480" />
            </Array>
          </mxGeometry>
        </mxCell>
        <mxCell id="wkKkkOtAbl1wiGdaWRtV-2" value="&lt;u&gt;SubjectId&lt;/u&gt;" style="rounded=0;whiteSpace=wrap;html=1;" vertex="1" parent="1">
          <mxGeometry y="600" width="120" height="30" as="geometry" />
        </mxCell>
      </root>
    </mxGraphModel>
  </diagram>
  <diagram id="8qfuSIjsGEaR9Kkk63Zm" name="Page-3">
    <mxGraphModel dx="733" dy="477" grid="1" gridSize="10" guides="1" tooltips="1" connect="1" arrows="1" fold="1" page="1" pageScale="1" pageWidth="827" pageHeight="1169" math="0" shadow="0">
      <root>
        <mxCell id="0" />
        <mxCell id="1" parent="0" />
        <mxCell id="QzKkgihHC34Ydbw4-Xmt-1" style="edgeStyle=orthogonalEdgeStyle;rounded=0;orthogonalLoop=1;jettySize=auto;html=1;exitX=1;exitY=0;exitDx=0;exitDy=0;" parent="1" source="QzKkgihHC34Ydbw4-Xmt-8" target="QzKkgihHC34Ydbw4-Xmt-9" edge="1">
          <mxGeometry relative="1" as="geometry" />
        </mxCell>
        <mxCell id="QzKkgihHC34Ydbw4-Xmt-2" style="edgeStyle=orthogonalEdgeStyle;rounded=0;orthogonalLoop=1;jettySize=auto;html=1;exitX=0.25;exitY=1;exitDx=0;exitDy=0;entryX=0.5;entryY=0;entryDx=0;entryDy=0;" parent="1" source="QzKkgihHC34Ydbw4-Xmt-8" target="QzKkgihHC34Ydbw4-Xmt-10" edge="1">
          <mxGeometry relative="1" as="geometry" />
        </mxCell>
        <mxCell id="QzKkgihHC34Ydbw4-Xmt-3" style="edgeStyle=orthogonalEdgeStyle;rounded=0;orthogonalLoop=1;jettySize=auto;html=1;exitX=0.75;exitY=0;exitDx=0;exitDy=0;entryX=0.5;entryY=1;entryDx=0;entryDy=0;" parent="1" source="QzKkgihHC34Ydbw4-Xmt-8" target="QzKkgihHC34Ydbw4-Xmt-11" edge="1">
          <mxGeometry relative="1" as="geometry" />
        </mxCell>
        <mxCell id="QzKkgihHC34Ydbw4-Xmt-4" style="edgeStyle=orthogonalEdgeStyle;rounded=0;orthogonalLoop=1;jettySize=auto;html=1;exitX=0.5;exitY=0;exitDx=0;exitDy=0;entryX=0.5;entryY=1;entryDx=0;entryDy=0;" parent="1" source="QzKkgihHC34Ydbw4-Xmt-8" target="QzKkgihHC34Ydbw4-Xmt-14" edge="1">
          <mxGeometry relative="1" as="geometry" />
        </mxCell>
        <mxCell id="QzKkgihHC34Ydbw4-Xmt-5" style="edgeStyle=orthogonalEdgeStyle;rounded=0;orthogonalLoop=1;jettySize=auto;html=1;exitX=0.25;exitY=0;exitDx=0;exitDy=0;entryX=0.5;entryY=1;entryDx=0;entryDy=0;" parent="1" source="QzKkgihHC34Ydbw4-Xmt-8" target="QzKkgihHC34Ydbw4-Xmt-15" edge="1">
          <mxGeometry relative="1" as="geometry">
            <Array as="points">
              <mxPoint x="365" y="170" />
              <mxPoint x="340" y="170" />
              <mxPoint x="340" y="140" />
              <mxPoint x="280" y="140" />
            </Array>
          </mxGeometry>
        </mxCell>
        <mxCell id="Tz9WGJfX8sxah9d-_37B-5" style="edgeStyle=orthogonalEdgeStyle;rounded=0;orthogonalLoop=1;jettySize=auto;html=1;exitX=0;exitY=0.5;exitDx=0;exitDy=0;entryX=1;entryY=0.5;entryDx=0;entryDy=0;" edge="1" parent="1" source="QzKkgihHC34Ydbw4-Xmt-8" target="Tz9WGJfX8sxah9d-_37B-4">
          <mxGeometry relative="1" as="geometry" />
        </mxCell>
        <mxCell id="V3adxpmWXk5NQW3F7DUS-1" style="edgeStyle=orthogonalEdgeStyle;rounded=0;orthogonalLoop=1;jettySize=auto;html=1;exitX=1;exitY=1;exitDx=0;exitDy=0;entryX=0;entryY=0.5;entryDx=0;entryDy=0;" edge="1" parent="1" source="QzKkgihHC34Ydbw4-Xmt-8" target="Tz9WGJfX8sxah9d-_37B-3">
          <mxGeometry relative="1" as="geometry" />
        </mxCell>
        <mxCell id="QzKkgihHC34Ydbw4-Xmt-8" value="&lt;b&gt;Students&lt;/b&gt;" style="rounded=1;arcSize=10;whiteSpace=wrap;html=1;align=center;" parent="1" vertex="1">
          <mxGeometry x="340" y="160" width="100" height="40" as="geometry" />
        </mxCell>
        <mxCell id="QzKkgihHC34Ydbw4-Xmt-9" value="highSchoolNumber" style="ellipse;whiteSpace=wrap;html=1;align=center;fontStyle=4;" parent="1" vertex="1">
          <mxGeometry x="530" y="100" width="120" height="40" as="geometry" />
        </mxCell>
        <mxCell id="QzKkgihHC34Ydbw4-Xmt-10" value="name" style="ellipse;whiteSpace=wrap;html=1;align=center;" parent="1" vertex="1">
          <mxGeometry x="160" y="260" width="100" height="40" as="geometry" />
        </mxCell>
        <mxCell id="QzKkgihHC34Ydbw4-Xmt-11" value="birthDate" style="ellipse;whiteSpace=wrap;html=1;align=center;" parent="1" vertex="1">
          <mxGeometry x="450" y="60" width="100" height="40" as="geometry" />
        </mxCell>
        <mxCell id="QzKkgihHC34Ydbw4-Xmt-12" value="&lt;b&gt;Note:&lt;/b&gt;&lt;div&gt;It could be here Siting number&lt;/div&gt;" style="shape=note;size=20;whiteSpace=wrap;html=1;align=left;" parent="1" vertex="1">
          <mxGeometry x="680" width="100" height="100" as="geometry" />
        </mxCell>
        <mxCell id="QzKkgihHC34Ydbw4-Xmt-13" style="edgeStyle=orthogonalEdgeStyle;rounded=0;orthogonalLoop=1;jettySize=auto;html=1;exitX=1;exitY=0.5;exitDx=0;exitDy=0;entryX=0;entryY=0.5;entryDx=0;entryDy=0;entryPerimeter=0;" parent="1" source="QzKkgihHC34Ydbw4-Xmt-9" target="QzKkgihHC34Ydbw4-Xmt-12" edge="1">
          <mxGeometry relative="1" as="geometry" />
        </mxCell>
        <mxCell id="QzKkgihHC34Ydbw4-Xmt-14" value="phoneNumber" style="ellipse;whiteSpace=wrap;html=1;align=center;" parent="1" vertex="1">
          <mxGeometry x="350" y="50" width="100" height="40" as="geometry" />
        </mxCell>
        <mxCell id="QzKkgihHC34Ydbw4-Xmt-15" value="highSchoolDegree" style="ellipse;whiteSpace=wrap;html=1;align=center;" parent="1" vertex="1">
          <mxGeometry x="220" y="60" width="120" height="40" as="geometry" />
        </mxCell>
        <mxCell id="QzKkgihHC34Ydbw4-Xmt-16" style="edgeStyle=orthogonalEdgeStyle;rounded=0;orthogonalLoop=1;jettySize=auto;html=1;exitX=0.5;exitY=0;exitDx=0;exitDy=0;entryX=1;entryY=0.5;entryDx=0;entryDy=0;" parent="1" source="Tz9WGJfX8sxah9d-_37B-4" target="QzKkgihHC34Ydbw4-Xmt-21" edge="1">
          <mxGeometry relative="1" as="geometry">
            <mxPoint x="214.64466094067245" y="185.85786437626905" as="sourcePoint" />
          </mxGeometry>
        </mxCell>
        <mxCell id="QzKkgihHC34Ydbw4-Xmt-17" style="edgeStyle=orthogonalEdgeStyle;rounded=0;orthogonalLoop=1;jettySize=auto;html=1;exitX=0;exitY=0;exitDx=0;exitDy=0;entryX=1;entryY=0.5;entryDx=0;entryDy=0;" parent="1" source="Tz9WGJfX8sxah9d-_37B-4" target="QzKkgihHC34Ydbw4-Xmt-22" edge="1">
          <mxGeometry relative="1" as="geometry">
            <mxPoint x="200" y="200" as="sourcePoint" />
          </mxGeometry>
        </mxCell>
        <mxCell id="QzKkgihHC34Ydbw4-Xmt-18" style="edgeStyle=orthogonalEdgeStyle;rounded=0;orthogonalLoop=1;jettySize=auto;html=1;exitX=0;exitY=1;exitDx=0;exitDy=0;" parent="1" source="Tz9WGJfX8sxah9d-_37B-4" target="QzKkgihHC34Ydbw4-Xmt-23" edge="1">
          <mxGeometry relative="1" as="geometry">
            <mxPoint x="214.64466094067245" y="214.14213562373095" as="sourcePoint" />
            <Array as="points">
              <mxPoint x="245" y="190" />
            </Array>
          </mxGeometry>
        </mxCell>
        <mxCell id="QzKkgihHC34Ydbw4-Xmt-19" style="edgeStyle=orthogonalEdgeStyle;rounded=0;orthogonalLoop=1;jettySize=auto;html=1;entryX=1;entryY=0.5;entryDx=0;entryDy=0;exitX=0.5;exitY=1;exitDx=0;exitDy=0;" parent="1" source="Tz9WGJfX8sxah9d-_37B-4" target="QzKkgihHC34Ydbw4-Xmt-24" edge="1">
          <mxGeometry relative="1" as="geometry">
            <mxPoint x="357" y="200" as="sourcePoint" />
            <Array as="points">
              <mxPoint x="290" y="200" />
              <mxPoint x="290" y="220" />
              <mxPoint x="200" y="220" />
            </Array>
          </mxGeometry>
        </mxCell>
        <mxCell id="QzKkgihHC34Ydbw4-Xmt-21" value="levelOne" style="ellipse;whiteSpace=wrap;html=1;align=center;" parent="1" vertex="1">
          <mxGeometry x="80" y="90" width="100" height="40" as="geometry" />
        </mxCell>
        <mxCell id="QzKkgihHC34Ydbw4-Xmt-22" value="levelTow" style="ellipse;whiteSpace=wrap;html=1;align=center;" parent="1" vertex="1">
          <mxGeometry x="90" y="140" width="100" height="40" as="geometry" />
        </mxCell>
        <mxCell id="QzKkgihHC34Ydbw4-Xmt-23" value="levelThree" style="ellipse;whiteSpace=wrap;html=1;align=center;" parent="1" vertex="1">
          <mxGeometry x="30" y="170" width="100" height="40" as="geometry" />
        </mxCell>
        <mxCell id="QzKkgihHC34Ydbw4-Xmt-24" value="levelFour" style="ellipse;whiteSpace=wrap;html=1;align=center;" parent="1" vertex="1">
          <mxGeometry x="60" y="220" width="100" height="40" as="geometry" />
        </mxCell>
        <mxCell id="QzKkgihHC34Ydbw4-Xmt-25" style="edgeStyle=orthogonalEdgeStyle;rounded=0;orthogonalLoop=1;jettySize=auto;html=1;exitX=0.5;exitY=1;exitDx=0;exitDy=0;entryX=0.5;entryY=0;entryDx=0;entryDy=0;" parent="1" source="Tz9WGJfX8sxah9d-_37B-3" target="QzKkgihHC34Ydbw4-Xmt-30" edge="1">
          <mxGeometry relative="1" as="geometry">
            <mxPoint x="464.64466094067257" y="254.14213562373106" as="sourcePoint" />
          </mxGeometry>
        </mxCell>
        <mxCell id="QzKkgihHC34Ydbw4-Xmt-26" style="edgeStyle=orthogonalEdgeStyle;rounded=0;orthogonalLoop=1;jettySize=auto;html=1;exitX=1;exitY=1;exitDx=0;exitDy=0;entryX=0;entryY=0.5;entryDx=0;entryDy=0;" parent="1" source="Tz9WGJfX8sxah9d-_37B-3" target="QzKkgihHC34Ydbw4-Xmt-31" edge="1">
          <mxGeometry relative="1" as="geometry">
            <Array as="points">
              <mxPoint x="485" y="224" />
              <mxPoint x="485" y="224" />
              <mxPoint x="485" y="230" />
              <mxPoint x="640" y="230" />
            </Array>
            <mxPoint x="500" y="260" as="sourcePoint" />
          </mxGeometry>
        </mxCell>
        <mxCell id="QzKkgihHC34Ydbw4-Xmt-27" style="edgeStyle=orthogonalEdgeStyle;rounded=0;orthogonalLoop=1;jettySize=auto;html=1;exitX=1;exitY=0.5;exitDx=0;exitDy=0;entryX=0;entryY=0.5;entryDx=0;entryDy=0;" parent="1" source="Tz9WGJfX8sxah9d-_37B-3" target="QzKkgihHC34Ydbw4-Xmt-32" edge="1">
          <mxGeometry relative="1" as="geometry">
            <mxPoint x="535.3553390593274" y="254.14213562373095" as="sourcePoint" />
            <Array as="points">
              <mxPoint x="530" y="220" />
              <mxPoint x="530" y="220" />
            </Array>
          </mxGeometry>
        </mxCell>
        <mxCell id="QzKkgihHC34Ydbw4-Xmt-28" style="edgeStyle=orthogonalEdgeStyle;rounded=0;orthogonalLoop=1;jettySize=auto;html=1;exitX=0.5;exitY=0;exitDx=0;exitDy=0;entryX=0;entryY=0.5;entryDx=0;entryDy=0;" parent="1" source="Tz9WGJfX8sxah9d-_37B-3" target="QzKkgihHC34Ydbw4-Xmt-33" edge="1">
          <mxGeometry relative="1" as="geometry">
            <mxPoint x="550" y="240" as="sourcePoint" />
            <Array as="points">
              <mxPoint x="500" y="170" />
            </Array>
          </mxGeometry>
        </mxCell>
        <mxCell id="QzKkgihHC34Ydbw4-Xmt-30" value="HighSchoolCertificate" style="ellipse;whiteSpace=wrap;html=1;align=center;" parent="1" vertex="1">
          <mxGeometry x="520" y="290" width="140" height="40" as="geometry" />
        </mxCell>
        <mxCell id="QzKkgihHC34Ydbw4-Xmt-31" value="TrueCopy&lt;span style=&quot;color: rgba(0, 0, 0, 0); font-family: monospace; font-size: 0px; text-align: start; text-wrap: nowrap;&quot;&gt;%3CmxGraphModel%3E%3Croot%3E%3CmxCell%20id%3D%220%22%2F%3E%3CmxCell%20id%3D%221%22%20parent%3D%220%22%2F%3E%3CmxCell%20id%3D%222%22%20value%3D%22grades%22%20style%3D%22ellipse%3Bshape%3DdoubleEllipse%3Bmargin%3D3%3BwhiteSpace%3Dwrap%3Bhtml%3D1%3Balign%3Dcenter%3B%22%20vertex%3D%221%22%20parent%3D%221%22%3E%3CmxGeometry%20x%3D%22200%22%20y%3D%22180%22%20width%3D%22100%22%20height%3D%2240%22%20as%3D%22geometry%22%2F%3E%3C%2FmxCell%3E%3C%2Froot%3E%3C%2FmxGraphModel%3E&lt;/span&gt;" style="ellipse;whiteSpace=wrap;html=1;align=center;" parent="1" vertex="1">
          <mxGeometry x="640" y="250" width="100" height="40" as="geometry" />
        </mxCell>
        <mxCell id="QzKkgihHC34Ydbw4-Xmt-32" value="personalPhoto&lt;span style=&quot;color: rgba(0, 0, 0, 0); font-family: monospace; font-size: 0px; text-align: start; text-wrap: nowrap;&quot;&gt;%3CmxGraphModel%3E%3Croot%3E%3CmxCell%20id%3D%220%22%2F%3E%3CmxCell%20id%3D%221%22%20parent%3D%220%22%2F%3E%3CmxCell%20id%3D%222%22%20value%3D%22grades%22%20style%3D%22ellipse%3Bshape%3DdoubleEllipse%3Bmargin%3D3%3BwhiteSpace%3Dwrap%3Bhtml%3D1%3Balign%3Dcenter%3B%22%20vertex%3D%221%22%20parent%3D%221%22%3E%3CmxGeometry%20x%3D%22200%22%20y%3D%22180%22%20width%3D%22100%22%20height%3D%2240%22%20as%3D%22geometry%22%2F%3E%3C%2FmxCell%3E%3C%2Froot%3E%3C%2FmxGraphModel%3E&lt;/span&gt;" style="ellipse;whiteSpace=wrap;html=1;align=center;" parent="1" vertex="1">
          <mxGeometry x="650" y="200" width="100" height="40" as="geometry" />
        </mxCell>
        <mxCell id="QzKkgihHC34Ydbw4-Xmt-33" value="photoForProofDocuments" style="ellipse;whiteSpace=wrap;html=1;align=center;" parent="1" vertex="1">
          <mxGeometry x="600" y="150" width="160" height="40" as="geometry" />
        </mxCell>
        <mxCell id="QzKkgihHC34Ydbw4-Xmt-34" style="edgeStyle=orthogonalEdgeStyle;rounded=0;orthogonalLoop=1;jettySize=auto;html=1;exitX=0;exitY=0;exitDx=0;exitDy=0;entryX=1;entryY=0.5;entryDx=0;entryDy=0;" parent="1" source="QzKkgihHC34Ydbw4-Xmt-39" target="QzKkgihHC34Ydbw4-Xmt-41" edge="1">
          <mxGeometry relative="1" as="geometry">
            <Array as="points">
              <mxPoint x="280" y="410" />
              <mxPoint x="280" y="410" />
            </Array>
          </mxGeometry>
        </mxCell>
        <mxCell id="QzKkgihHC34Ydbw4-Xmt-36" style="edgeStyle=orthogonalEdgeStyle;rounded=0;orthogonalLoop=1;jettySize=auto;html=1;exitX=0;exitY=1;exitDx=0;exitDy=0;entryX=1;entryY=0.5;entryDx=0;entryDy=0;" parent="1" source="QzKkgihHC34Ydbw4-Xmt-39" target="QzKkgihHC34Ydbw4-Xmt-40" edge="1">
          <mxGeometry relative="1" as="geometry">
            <Array as="points">
              <mxPoint x="280" y="450" />
              <mxPoint x="280" y="450" />
            </Array>
          </mxGeometry>
        </mxCell>
        <mxCell id="QzKkgihHC34Ydbw4-Xmt-39" value="Level" style="whiteSpace=wrap;html=1;align=center;" parent="1" vertex="1">
          <mxGeometry x="290" y="410" width="100" height="40" as="geometry" />
        </mxCell>
        <mxCell id="QzKkgihHC34Ydbw4-Xmt-40" value="LevelNumber" style="ellipse;whiteSpace=wrap;html=1;align=center;" parent="1" vertex="1">
          <mxGeometry x="150" y="430" width="100" height="40" as="geometry" />
        </mxCell>
        <mxCell id="QzKkgihHC34Ydbw4-Xmt-41" value="Id" style="ellipse;whiteSpace=wrap;html=1;align=center;fontStyle=4;" parent="1" vertex="1">
          <mxGeometry x="150" y="390" width="100" height="40" as="geometry" />
        </mxCell>
        <mxCell id="QzKkgihHC34Ydbw4-Xmt-45" value="Relationship" style="shape=rhombus;perimeter=rhombusPerimeter;whiteSpace=wrap;html=1;align=center;" parent="1" vertex="1">
          <mxGeometry x="280" y="300" width="120" height="60" as="geometry" />
        </mxCell>
        <mxCell id="QzKkgihHC34Ydbw4-Xmt-46" style="edgeStyle=orthogonalEdgeStyle;rounded=0;orthogonalLoop=1;jettySize=auto;html=1;exitX=0.75;exitY=0;exitDx=0;exitDy=0;entryX=0.5;entryY=1;entryDx=0;entryDy=0;" parent="1" source="QzKkgihHC34Ydbw4-Xmt-52" target="QzKkgihHC34Ydbw4-Xmt-75" edge="1">
          <mxGeometry relative="1" as="geometry" />
        </mxCell>
        <mxCell id="QzKkgihHC34Ydbw4-Xmt-47" style="edgeStyle=orthogonalEdgeStyle;rounded=0;orthogonalLoop=1;jettySize=auto;html=1;exitX=1;exitY=0;exitDx=0;exitDy=0;entryX=0;entryY=0.5;entryDx=0;entryDy=0;" parent="1" source="QzKkgihHC34Ydbw4-Xmt-52" target="QzKkgihHC34Ydbw4-Xmt-72" edge="1">
          <mxGeometry relative="1" as="geometry">
            <Array as="points">
              <mxPoint x="645" y="646" />
            </Array>
          </mxGeometry>
        </mxCell>
        <mxCell id="QzKkgihHC34Ydbw4-Xmt-48" style="edgeStyle=orthogonalEdgeStyle;rounded=0;orthogonalLoop=1;jettySize=auto;html=1;exitX=0.25;exitY=1;exitDx=0;exitDy=0;entryX=1;entryY=0;entryDx=0;entryDy=0;" parent="1" source="QzKkgihHC34Ydbw4-Xmt-52" target="QzKkgihHC34Ydbw4-Xmt-73" edge="1">
          <mxGeometry relative="1" as="geometry" />
        </mxCell>
        <mxCell id="QzKkgihHC34Ydbw4-Xmt-49" style="edgeStyle=orthogonalEdgeStyle;rounded=0;orthogonalLoop=1;jettySize=auto;html=1;exitX=0.75;exitY=1;exitDx=0;exitDy=0;entryX=0.5;entryY=0;entryDx=0;entryDy=0;" parent="1" source="QzKkgihHC34Ydbw4-Xmt-52" target="QzKkgihHC34Ydbw4-Xmt-74" edge="1">
          <mxGeometry relative="1" as="geometry" />
        </mxCell>
        <mxCell id="QzKkgihHC34Ydbw4-Xmt-50" style="edgeStyle=orthogonalEdgeStyle;rounded=0;orthogonalLoop=1;jettySize=auto;html=1;exitX=1;exitY=1;exitDx=0;exitDy=0;entryX=0;entryY=0.5;entryDx=0;entryDy=0;" parent="1" source="QzKkgihHC34Ydbw4-Xmt-52" target="QzKkgihHC34Ydbw4-Xmt-76" edge="1">
          <mxGeometry relative="1" as="geometry" />
        </mxCell>
        <mxCell id="QzKkgihHC34Ydbw4-Xmt-51" style="edgeStyle=orthogonalEdgeStyle;rounded=0;orthogonalLoop=1;jettySize=auto;html=1;exitX=1;exitY=0.5;exitDx=0;exitDy=0;entryX=0;entryY=0.5;entryDx=0;entryDy=0;" parent="1" source="QzKkgihHC34Ydbw4-Xmt-52" target="QzKkgihHC34Ydbw4-Xmt-77" edge="1">
          <mxGeometry relative="1" as="geometry" />
        </mxCell>
        <mxCell id="QzKkgihHC34Ydbw4-Xmt-52" value="Doctor" style="whiteSpace=wrap;html=1;align=center;" parent="1" vertex="1">
          <mxGeometry x="500" y="646" width="100" height="40" as="geometry" />
        </mxCell>
        <mxCell id="QzKkgihHC34Ydbw4-Xmt-53" style="edgeStyle=orthogonalEdgeStyle;rounded=0;orthogonalLoop=1;jettySize=auto;html=1;exitX=0;exitY=0;exitDx=0;exitDy=0;entryX=1;entryY=0.5;entryDx=0;entryDy=0;" parent="1" source="QzKkgihHC34Ydbw4-Xmt-55" target="QzKkgihHC34Ydbw4-Xmt-65" edge="1">
          <mxGeometry relative="1" as="geometry">
            <Array as="points">
              <mxPoint x="180" y="620" />
            </Array>
          </mxGeometry>
        </mxCell>
        <mxCell id="QzKkgihHC34Ydbw4-Xmt-54" style="edgeStyle=orthogonalEdgeStyle;rounded=0;orthogonalLoop=1;jettySize=auto;html=1;exitX=0;exitY=1;exitDx=0;exitDy=0;" parent="1" source="QzKkgihHC34Ydbw4-Xmt-55" target="QzKkgihHC34Ydbw4-Xmt-66" edge="1">
          <mxGeometry relative="1" as="geometry" />
        </mxCell>
        <mxCell id="QzKkgihHC34Ydbw4-Xmt-55" value="Subjects" style="whiteSpace=wrap;html=1;align=center;" parent="1" vertex="1">
          <mxGeometry x="180" y="646" width="100" height="40" as="geometry" />
        </mxCell>
        <mxCell id="QzKkgihHC34Ydbw4-Xmt-56" value="Relationship" style="shape=rhombus;perimeter=rhombusPerimeter;whiteSpace=wrap;html=1;align=center;" parent="1" vertex="1">
          <mxGeometry x="330" y="636" width="120" height="60" as="geometry" />
        </mxCell>
        <mxCell id="QzKkgihHC34Ydbw4-Xmt-57" value="" style="endArrow=none;html=1;rounded=0;entryX=0.5;entryY=0;entryDx=0;entryDy=0;exitX=0.5;exitY=1;exitDx=0;exitDy=0;" parent="1" source="QzKkgihHC34Ydbw4-Xmt-8" target="QzKkgihHC34Ydbw4-Xmt-45" edge="1">
          <mxGeometry relative="1" as="geometry">
            <mxPoint x="240" y="250" as="sourcePoint" />
            <mxPoint x="400" y="250" as="targetPoint" />
          </mxGeometry>
        </mxCell>
        <mxCell id="QzKkgihHC34Ydbw4-Xmt-58" value="1" style="resizable=0;html=1;whiteSpace=wrap;align=right;verticalAlign=bottom;" parent="QzKkgihHC34Ydbw4-Xmt-57" connectable="0" vertex="1">
          <mxGeometry x="1" relative="1" as="geometry">
            <mxPoint as="offset" />
          </mxGeometry>
        </mxCell>
        <mxCell id="QzKkgihHC34Ydbw4-Xmt-59" value="" style="endArrow=none;html=1;rounded=0;exitX=0.5;exitY=0;exitDx=0;exitDy=0;entryX=0.5;entryY=1;entryDx=0;entryDy=0;" parent="1" source="QzKkgihHC34Ydbw4-Xmt-39" edge="1">
          <mxGeometry relative="1" as="geometry">
            <mxPoint x="320" y="380" as="sourcePoint" />
            <mxPoint x="340" y="360" as="targetPoint" />
          </mxGeometry>
        </mxCell>
        <mxCell id="QzKkgihHC34Ydbw4-Xmt-60" value="N" style="resizable=0;html=1;whiteSpace=wrap;align=right;verticalAlign=bottom;" parent="QzKkgihHC34Ydbw4-Xmt-59" connectable="0" vertex="1">
          <mxGeometry x="1" relative="1" as="geometry" />
        </mxCell>
        <mxCell id="QzKkgihHC34Ydbw4-Xmt-65" value="&lt;u&gt;id&lt;/u&gt;" style="ellipse;whiteSpace=wrap;html=1;align=center;" parent="1" vertex="1">
          <mxGeometry x="60" y="600" width="100" height="40" as="geometry" />
        </mxCell>
        <mxCell id="QzKkgihHC34Ydbw4-Xmt-66" value="Name" style="ellipse;whiteSpace=wrap;html=1;align=center;" parent="1" vertex="1">
          <mxGeometry x="50" y="690" width="100" height="40" as="geometry" />
        </mxCell>
        <mxCell id="QzKkgihHC34Ydbw4-Xmt-72" value="name" style="ellipse;whiteSpace=wrap;html=1;align=center;" parent="1" vertex="1">
          <mxGeometry x="645" y="596" width="100" height="40" as="geometry" />
        </mxCell>
        <mxCell id="QzKkgihHC34Ydbw4-Xmt-73" value="phoneNumber" style="ellipse;whiteSpace=wrap;html=1;align=center;" parent="1" vertex="1">
          <mxGeometry x="480" y="826" width="100" height="40" as="geometry" />
        </mxCell>
        <mxCell id="QzKkgihHC34Ydbw4-Xmt-74" value="birthDate" style="ellipse;whiteSpace=wrap;html=1;align=center;" parent="1" vertex="1">
          <mxGeometry x="640" y="836" width="100" height="40" as="geometry" />
        </mxCell>
        <mxCell id="QzKkgihHC34Ydbw4-Xmt-75" value="id" style="ellipse;whiteSpace=wrap;html=1;align=center;fontStyle=4;" parent="1" vertex="1">
          <mxGeometry x="575" y="560" width="100" height="40" as="geometry" />
        </mxCell>
        <mxCell id="QzKkgihHC34Ydbw4-Xmt-76" value="GraduatYear" style="ellipse;whiteSpace=wrap;html=1;align=center;" parent="1" vertex="1">
          <mxGeometry x="675" y="716" width="100" height="40" as="geometry" />
        </mxCell>
        <mxCell id="QzKkgihHC34Ydbw4-Xmt-77" value="experienceYears" style="ellipse;whiteSpace=wrap;html=1;align=center;" parent="1" vertex="1">
          <mxGeometry x="650" y="656" width="100" height="40" as="geometry" />
        </mxCell>
        <mxCell id="QzKkgihHC34Ydbw4-Xmt-78" style="edgeStyle=orthogonalEdgeStyle;rounded=0;orthogonalLoop=1;jettySize=auto;html=1;exitX=0.5;exitY=1;exitDx=0;exitDy=0;entryX=0.695;entryY=1.054;entryDx=0;entryDy=0;entryPerimeter=0;" parent="1" source="QzKkgihHC34Ydbw4-Xmt-73" target="QzKkgihHC34Ydbw4-Xmt-73" edge="1">
          <mxGeometry relative="1" as="geometry" />
        </mxCell>
        <mxCell id="x4RBp_BFHflGMHl4ZRvT-2" value="" style="endArrow=none;html=1;rounded=0;exitX=0;exitY=0.5;exitDx=0;exitDy=0;entryX=1;entryY=0.5;entryDx=0;entryDy=0;" parent="1" source="QzKkgihHC34Ydbw4-Xmt-52" target="QzKkgihHC34Ydbw4-Xmt-56" edge="1">
          <mxGeometry relative="1" as="geometry">
            <mxPoint x="410" y="760" as="sourcePoint" />
            <mxPoint x="570" y="760" as="targetPoint" />
          </mxGeometry>
        </mxCell>
        <mxCell id="x4RBp_BFHflGMHl4ZRvT-3" value="1" style="resizable=0;html=1;whiteSpace=wrap;align=right;verticalAlign=bottom;rounded=1;" parent="x4RBp_BFHflGMHl4ZRvT-2" connectable="0" vertex="1">
          <mxGeometry x="1" relative="1" as="geometry" />
        </mxCell>
        <mxCell id="x4RBp_BFHflGMHl4ZRvT-4" value="" style="endArrow=none;html=1;rounded=0;exitX=1;exitY=0.5;exitDx=0;exitDy=0;entryX=0;entryY=0.5;entryDx=0;entryDy=0;" parent="1" source="QzKkgihHC34Ydbw4-Xmt-55" target="QzKkgihHC34Ydbw4-Xmt-56" edge="1">
          <mxGeometry relative="1" as="geometry">
            <mxPoint x="290" y="730" as="sourcePoint" />
            <mxPoint x="450" y="730" as="targetPoint" />
          </mxGeometry>
        </mxCell>
        <mxCell id="x4RBp_BFHflGMHl4ZRvT-5" value="N" style="resizable=0;html=1;whiteSpace=wrap;align=right;verticalAlign=bottom;rounded=1;" parent="x4RBp_BFHflGMHl4ZRvT-4" connectable="0" vertex="1">
          <mxGeometry x="1" relative="1" as="geometry" />
        </mxCell>
        <mxCell id="x4RBp_BFHflGMHl4ZRvT-6" value="" style="endArrow=none;html=1;rounded=0;exitX=0.5;exitY=1;exitDx=0;exitDy=0;entryX=0.5;entryY=0;entryDx=0;entryDy=0;" parent="1" source="QzKkgihHC34Ydbw4-Xmt-39" target="QzKkgihHC34Ydbw4-Xmt-56" edge="1">
          <mxGeometry relative="1" as="geometry">
            <mxPoint x="320" y="560" as="sourcePoint" />
            <mxPoint x="480" y="560" as="targetPoint" />
          </mxGeometry>
        </mxCell>
        <mxCell id="x4RBp_BFHflGMHl4ZRvT-7" value="N" style="resizable=0;html=1;whiteSpace=wrap;align=right;verticalAlign=bottom;rounded=1;" parent="x4RBp_BFHflGMHl4ZRvT-6" connectable="0" vertex="1">
          <mxGeometry x="1" relative="1" as="geometry" />
        </mxCell>
        <mxCell id="Tz9WGJfX8sxah9d-_37B-3" value="requirements" style="ellipse;whiteSpace=wrap;html=1;align=center;" vertex="1" parent="1">
          <mxGeometry x="450" y="200" width="100" height="40" as="geometry" />
        </mxCell>
        <mxCell id="Tz9WGJfX8sxah9d-_37B-4" value="LevelsDegree" style="ellipse;whiteSpace=wrap;html=1;align=center;" vertex="1" parent="1">
          <mxGeometry x="210" y="160" width="100" height="40" as="geometry" />
        </mxCell>
        <mxCell id="V3adxpmWXk5NQW3F7DUS-2" value="Entity" style="whiteSpace=wrap;html=1;align=center;" vertex="1" parent="1">
          <mxGeometry x="565" y="410" width="100" height="40" as="geometry" />
        </mxCell>
        <mxCell id="V3adxpmWXk5NQW3F7DUS-3" style="edgeStyle=orthogonalEdgeStyle;rounded=0;orthogonalLoop=1;jettySize=auto;html=1;exitX=1;exitY=0.5;exitDx=0;exitDy=0;entryX=0;entryY=0.5;entryDx=0;entryDy=0;" edge="1" parent="1" target="V3adxpmWXk5NQW3F7DUS-6" source="V3adxpmWXk5NQW3F7DUS-2">
          <mxGeometry relative="1" as="geometry">
            <mxPoint x="565" y="440" as="sourcePoint" />
          </mxGeometry>
        </mxCell>
        <mxCell id="V3adxpmWXk5NQW3F7DUS-4" style="edgeStyle=orthogonalEdgeStyle;rounded=0;orthogonalLoop=1;jettySize=auto;html=1;exitX=1;exitY=1;exitDx=0;exitDy=0;entryX=0;entryY=0.5;entryDx=0;entryDy=0;" edge="1" parent="1" target="V3adxpmWXk5NQW3F7DUS-7" source="V3adxpmWXk5NQW3F7DUS-2">
          <mxGeometry relative="1" as="geometry">
            <mxPoint x="665" y="440" as="sourcePoint" />
          </mxGeometry>
        </mxCell>
        <mxCell id="V3adxpmWXk5NQW3F7DUS-5" style="edgeStyle=orthogonalEdgeStyle;rounded=0;orthogonalLoop=1;jettySize=auto;html=1;exitX=1;exitY=0;exitDx=0;exitDy=0;entryX=0;entryY=0.5;entryDx=0;entryDy=0;" edge="1" parent="1" target="V3adxpmWXk5NQW3F7DUS-8" source="V3adxpmWXk5NQW3F7DUS-2">
          <mxGeometry relative="1" as="geometry">
            <mxPoint x="665" y="420" as="sourcePoint" />
          </mxGeometry>
        </mxCell>
        <mxCell id="V3adxpmWXk5NQW3F7DUS-6" value="section&lt;span style=&quot;color: rgba(0, 0, 0, 0); font-family: monospace; font-size: 0px; text-align: start; text-wrap: nowrap;&quot;&gt;%3CmxGraphModel%3E%3Croot%3E%3CmxCell%20id%3D%220%22%2F%3E%3CmxCell%20id%3D%221%22%20parent%3D%220%22%2F%3E%3CmxCell%20id%3D%222%22%20value%3D%22LevelNumber%22%20style%3D%22ellipse%3BwhiteSpace%3Dwrap%3Bhtml%3D1%3Balign%3Dcenter%3B%22%20vertex%3D%221%22%20parent%3D%221%22%3E%3CmxGeometry%20x%3D%22200%22%20y%3D%22420%22%20width%3D%22100%22%20height%3D%2240%22%20as%3D%22geometry%22%2F%3E%3C%2FmxCell%3E%3C%2Froot%3E%3C%2FmxGraphModel%3E&lt;/span&gt;" style="ellipse;whiteSpace=wrap;html=1;align=center;" vertex="1" parent="1">
          <mxGeometry x="715" y="410" width="100" height="40" as="geometry" />
        </mxCell>
        <mxCell id="V3adxpmWXk5NQW3F7DUS-7" value="specialization" style="ellipse;whiteSpace=wrap;html=1;align=center;" vertex="1" parent="1">
          <mxGeometry x="715" y="460" width="100" height="40" as="geometry" />
        </mxCell>
        <mxCell id="V3adxpmWXk5NQW3F7DUS-8" value="Group" style="ellipse;whiteSpace=wrap;html=1;align=center;" vertex="1" parent="1">
          <mxGeometry x="715" y="360" width="100" height="40" as="geometry" />
        </mxCell>
        <mxCell id="V3adxpmWXk5NQW3F7DUS-9" value="Relationship" style="shape=rhombus;perimeter=rhombusPerimeter;whiteSpace=wrap;html=1;align=center;" vertex="1" parent="1">
          <mxGeometry x="430" y="330" width="80" height="40" as="geometry" />
        </mxCell>
        <mxCell id="V3adxpmWXk5NQW3F7DUS-13" value="" style="endArrow=none;html=1;rounded=0;exitX=0.75;exitY=1;exitDx=0;exitDy=0;entryX=0.5;entryY=0;entryDx=0;entryDy=0;" edge="1" parent="1" source="QzKkgihHC34Ydbw4-Xmt-8" target="V3adxpmWXk5NQW3F7DUS-9">
          <mxGeometry relative="1" as="geometry">
            <mxPoint x="410" y="280" as="sourcePoint" />
            <mxPoint x="570" y="280" as="targetPoint" />
          </mxGeometry>
        </mxCell>
        <mxCell id="V3adxpmWXk5NQW3F7DUS-14" value="N" style="resizable=0;html=1;whiteSpace=wrap;align=right;verticalAlign=bottom;" connectable="0" vertex="1" parent="V3adxpmWXk5NQW3F7DUS-13">
          <mxGeometry x="1" relative="1" as="geometry" />
        </mxCell>
        <mxCell id="V3adxpmWXk5NQW3F7DUS-15" value="" style="endArrow=none;html=1;rounded=0;exitX=0.5;exitY=1;exitDx=0;exitDy=0;entryX=0;entryY=0.5;entryDx=0;entryDy=0;" edge="1" parent="1" source="V3adxpmWXk5NQW3F7DUS-9" target="V3adxpmWXk5NQW3F7DUS-2">
          <mxGeometry relative="1" as="geometry">
            <mxPoint x="460" y="450" as="sourcePoint" />
            <mxPoint x="620" y="450" as="targetPoint" />
          </mxGeometry>
        </mxCell>
        <mxCell id="V3adxpmWXk5NQW3F7DUS-16" value="1" style="resizable=0;html=1;whiteSpace=wrap;align=right;verticalAlign=bottom;" connectable="0" vertex="1" parent="V3adxpmWXk5NQW3F7DUS-15">
          <mxGeometry x="1" relative="1" as="geometry" />
        </mxCell>
      </root>
    </mxGraphModel>
  </diagram>
  <diagram name="Copy of Page-2" id="fKXIy_Dq0VlF6SFw0KLI">
    <mxGraphModel dx="880" dy="572" grid="1" gridSize="10" guides="1" tooltips="1" connect="1" arrows="1" fold="1" page="1" pageScale="1" pageWidth="827" pageHeight="1169" math="0" shadow="0">
      <root>
        <mxCell id="YjlkulxEwpre25UKWRn1-0" />
        <mxCell id="YjlkulxEwpre25UKWRn1-1" parent="YjlkulxEwpre25UKWRn1-0" />
        <mxCell id="YjlkulxEwpre25UKWRn1-2" value="&lt;b&gt;&lt;font style=&quot;font-size: 16px;&quot;&gt;Students&lt;/font&gt;&lt;/b&gt;" style="text;html=1;align=left;verticalAlign=middle;whiteSpace=wrap;rounded=0;" parent="YjlkulxEwpre25UKWRn1-1" vertex="1">
          <mxGeometry y="40" width="80" height="30" as="geometry" />
        </mxCell>
        <mxCell id="YjlkulxEwpre25UKWRn1-3" value="&lt;u&gt;highSchoolNumber&lt;/u&gt;" style="rounded=0;whiteSpace=wrap;html=1;" parent="YjlkulxEwpre25UKWRn1-1" vertex="1">
          <mxGeometry y="70" width="120" height="30" as="geometry" />
        </mxCell>
        <mxCell id="YjlkulxEwpre25UKWRn1-4" value="name" style="rounded=0;whiteSpace=wrap;html=1;" parent="YjlkulxEwpre25UKWRn1-1" vertex="1">
          <mxGeometry x="120" y="70" width="120" height="30" as="geometry" />
        </mxCell>
        <mxCell id="YjlkulxEwpre25UKWRn1-5" value="birthDate" style="rounded=0;whiteSpace=wrap;html=1;" parent="YjlkulxEwpre25UKWRn1-1" vertex="1">
          <mxGeometry x="240" y="70" width="120" height="30" as="geometry" />
        </mxCell>
        <mxCell id="YjlkulxEwpre25UKWRn1-6" value="phoneNumber" style="rounded=0;whiteSpace=wrap;html=1;" parent="YjlkulxEwpre25UKWRn1-1" vertex="1">
          <mxGeometry x="360" y="70" width="120" height="30" as="geometry" />
        </mxCell>
        <mxCell id="YjlkulxEwpre25UKWRn1-7" value="highSchoolDegree" style="rounded=0;whiteSpace=wrap;html=1;" parent="YjlkulxEwpre25UKWRn1-1" vertex="1">
          <mxGeometry x="480" y="70" width="120" height="30" as="geometry" />
        </mxCell>
        <mxCell id="YjlkulxEwpre25UKWRn1-8" value="highSchoolDegree" style="rounded=0;whiteSpace=wrap;html=1;" parent="YjlkulxEwpre25UKWRn1-1" vertex="1">
          <mxGeometry x="600" y="70" width="120" height="30" as="geometry" />
        </mxCell>
        <mxCell id="YjlkulxEwpre25UKWRn1-12" value="&lt;u&gt;levelOne&lt;/u&gt;" style="rounded=0;whiteSpace=wrap;html=1;" parent="YjlkulxEwpre25UKWRn1-1" vertex="1">
          <mxGeometry y="100" width="120" height="30" as="geometry" />
        </mxCell>
        <mxCell id="YjlkulxEwpre25UKWRn1-13" value="levelTow" style="rounded=0;whiteSpace=wrap;html=1;" parent="YjlkulxEwpre25UKWRn1-1" vertex="1">
          <mxGeometry x="120" y="100" width="120" height="30" as="geometry" />
        </mxCell>
        <mxCell id="YjlkulxEwpre25UKWRn1-14" value="levelThree" style="rounded=0;whiteSpace=wrap;html=1;" parent="YjlkulxEwpre25UKWRn1-1" vertex="1">
          <mxGeometry x="240" y="100" width="120" height="30" as="geometry" />
        </mxCell>
        <mxCell id="YjlkulxEwpre25UKWRn1-15" value="levelFour" style="rounded=0;whiteSpace=wrap;html=1;" parent="YjlkulxEwpre25UKWRn1-1" vertex="1">
          <mxGeometry x="360" y="100" width="120" height="30" as="geometry" />
        </mxCell>
        <mxCell id="YjlkulxEwpre25UKWRn1-18" value="&lt;u&gt;highSchoolNumber&lt;/u&gt;" style="rounded=0;whiteSpace=wrap;html=1;" parent="YjlkulxEwpre25UKWRn1-1" vertex="1">
          <mxGeometry x="480" y="100" width="120" height="30" as="geometry" />
        </mxCell>
        <mxCell id="YjlkulxEwpre25UKWRn1-19" value="&lt;u&gt;photoForProof-&lt;span style=&quot;background-color: initial;&quot;&gt;Documents&lt;/span&gt;&lt;/u&gt;" style="rounded=0;whiteSpace=wrap;html=1;" parent="YjlkulxEwpre25UKWRn1-1" vertex="1">
          <mxGeometry x="600" y="100" width="120" height="30" as="geometry" />
        </mxCell>
        <mxCell id="YjlkulxEwpre25UKWRn1-20" value="personalPhoto" style="rounded=0;whiteSpace=wrap;html=1;" parent="YjlkulxEwpre25UKWRn1-1" vertex="1">
          <mxGeometry y="130" width="120" height="30" as="geometry" />
        </mxCell>
        <mxCell id="YjlkulxEwpre25UKWRn1-21" value="TrueCopy" style="rounded=0;whiteSpace=wrap;html=1;" parent="YjlkulxEwpre25UKWRn1-1" vertex="1">
          <mxGeometry x="240" y="130" width="120" height="30" as="geometry" />
        </mxCell>
        <mxCell id="YjlkulxEwpre25UKWRn1-22" value="HighSchoolCertificate" style="rounded=0;whiteSpace=wrap;html=1;" parent="YjlkulxEwpre25UKWRn1-1" vertex="1">
          <mxGeometry x="120" y="130" width="120" height="30" as="geometry" />
        </mxCell>
        <mxCell id="YjlkulxEwpre25UKWRn1-23" value="" style="line;strokeWidth=1;rotatable=0;dashed=0;labelPosition=right;align=left;verticalAlign=middle;spacingTop=0;spacingLeft=6;points=[];portConstraint=eastwest;rounded=1;" parent="YjlkulxEwpre25UKWRn1-1" vertex="1">
          <mxGeometry x="30" y="85" width="60" height="10" as="geometry" />
        </mxCell>
        <mxCell id="YjlkulxEwpre25UKWRn1-24" style="edgeStyle=orthogonalEdgeStyle;rounded=1;orthogonalLoop=1;jettySize=auto;html=1;exitX=0.75;exitY=1;exitDx=0;exitDy=0;entryX=0.75;entryY=0;entryDx=0;entryDy=0;" parent="YjlkulxEwpre25UKWRn1-1" source="YjlkulxEwpre25UKWRn1-25" target="YjlkulxEwpre25UKWRn1-27" edge="1">
          <mxGeometry relative="1" as="geometry">
            <Array as="points">
              <mxPoint x="810" y="300" />
              <mxPoint x="90" y="300" />
            </Array>
          </mxGeometry>
        </mxCell>
        <mxCell id="YjlkulxEwpre25UKWRn1-25" value="LevelID" style="rounded=0;whiteSpace=wrap;html=1;" parent="YjlkulxEwpre25UKWRn1-1" vertex="1">
          <mxGeometry x="720" y="70" width="100" height="30" as="geometry" />
        </mxCell>
        <mxCell id="YjlkulxEwpre25UKWRn1-26" value="&lt;font style=&quot;font-size: 16px;&quot;&gt;&lt;b&gt;Level&lt;/b&gt;&lt;/font&gt;" style="text;html=1;align=left;verticalAlign=middle;whiteSpace=wrap;rounded=0;" parent="YjlkulxEwpre25UKWRn1-1" vertex="1">
          <mxGeometry y="300" width="80" height="30" as="geometry" />
        </mxCell>
        <mxCell id="YjlkulxEwpre25UKWRn1-27" value="&lt;u&gt;Id&lt;/u&gt;" style="rounded=0;whiteSpace=wrap;html=1;" parent="YjlkulxEwpre25UKWRn1-1" vertex="1">
          <mxGeometry y="330" width="120" height="30" as="geometry" />
        </mxCell>
        <mxCell id="YjlkulxEwpre25UKWRn1-28" value="studentsLevel" style="rounded=0;whiteSpace=wrap;html=1;" parent="YjlkulxEwpre25UKWRn1-1" vertex="1">
          <mxGeometry x="120" y="330" width="120" height="30" as="geometry" />
        </mxCell>
        <mxCell id="YjlkulxEwpre25UKWRn1-29" value="section" style="rounded=0;whiteSpace=wrap;html=1;" parent="YjlkulxEwpre25UKWRn1-1" vertex="1">
          <mxGeometry x="240" y="330" width="120" height="30" as="geometry" />
        </mxCell>
        <mxCell id="YjlkulxEwpre25UKWRn1-30" value="specialization" style="rounded=0;whiteSpace=wrap;html=1;" parent="YjlkulxEwpre25UKWRn1-1" vertex="1">
          <mxGeometry x="360" y="330" width="120" height="30" as="geometry" />
        </mxCell>
        <mxCell id="YjlkulxEwpre25UKWRn1-31" value="Group" style="rounded=0;whiteSpace=wrap;html=1;" parent="YjlkulxEwpre25UKWRn1-1" vertex="1">
          <mxGeometry x="480" y="330" width="120" height="30" as="geometry" />
        </mxCell>
        <mxCell id="YjlkulxEwpre25UKWRn1-32" value="&lt;font style=&quot;font-size: 16px;&quot;&gt;&lt;b&gt;Subjects&lt;/b&gt;&lt;/font&gt;" style="text;html=1;align=left;verticalAlign=middle;whiteSpace=wrap;rounded=0;" parent="YjlkulxEwpre25UKWRn1-1" vertex="1">
          <mxGeometry y="384" width="80" height="30" as="geometry" />
        </mxCell>
        <mxCell id="YjlkulxEwpre25UKWRn1-33" value="&lt;u&gt;Id&lt;/u&gt;" style="rounded=0;whiteSpace=wrap;html=1;" parent="YjlkulxEwpre25UKWRn1-1" vertex="1">
          <mxGeometry y="414" width="120" height="30" as="geometry" />
        </mxCell>
        <mxCell id="YjlkulxEwpre25UKWRn1-34" value="Name" style="rounded=0;whiteSpace=wrap;html=1;" parent="YjlkulxEwpre25UKWRn1-1" vertex="1">
          <mxGeometry x="120" y="414" width="120" height="30" as="geometry" />
        </mxCell>
        <mxCell id="YjlkulxEwpre25UKWRn1-35" value="section" style="rounded=0;whiteSpace=wrap;html=1;" parent="YjlkulxEwpre25UKWRn1-1" vertex="1">
          <mxGeometry x="240" y="414" width="120" height="30" as="geometry" />
        </mxCell>
        <mxCell id="YjlkulxEwpre25UKWRn1-36" value="&lt;font style=&quot;font-size: 16px;&quot;&gt;&lt;b&gt;SubLevDr&lt;/b&gt;&lt;/font&gt;" style="text;html=1;align=left;verticalAlign=middle;whiteSpace=wrap;rounded=0;" parent="YjlkulxEwpre25UKWRn1-1" vertex="1">
          <mxGeometry y="470" width="80" height="30" as="geometry" />
        </mxCell>
        <mxCell id="YjlkulxEwpre25UKWRn1-37" style="edgeStyle=orthogonalEdgeStyle;rounded=1;orthogonalLoop=1;jettySize=auto;html=1;exitX=0.75;exitY=0;exitDx=0;exitDy=0;entryX=0.75;entryY=1;entryDx=0;entryDy=0;" parent="YjlkulxEwpre25UKWRn1-1" source="YjlkulxEwpre25UKWRn1-38" target="YjlkulxEwpre25UKWRn1-27" edge="1">
          <mxGeometry relative="1" as="geometry">
            <Array as="points">
              <mxPoint x="90" y="460" />
              <mxPoint x="530" y="460" />
              <mxPoint x="530" y="390" />
              <mxPoint x="90" y="390" />
            </Array>
          </mxGeometry>
        </mxCell>
        <mxCell id="YjlkulxEwpre25UKWRn1-38" value="&lt;u&gt;LevelId&lt;/u&gt;" style="rounded=0;whiteSpace=wrap;html=1;" parent="YjlkulxEwpre25UKWRn1-1" vertex="1">
          <mxGeometry y="500" width="120" height="30" as="geometry" />
        </mxCell>
        <mxCell id="YjlkulxEwpre25UKWRn1-39" style="edgeStyle=orthogonalEdgeStyle;rounded=1;orthogonalLoop=1;jettySize=auto;html=1;exitX=0.25;exitY=0;exitDx=0;exitDy=0;entryX=0.5;entryY=1;entryDx=0;entryDy=0;" parent="YjlkulxEwpre25UKWRn1-1" source="YjlkulxEwpre25UKWRn1-40" target="YjlkulxEwpre25UKWRn1-33" edge="1">
          <mxGeometry relative="1" as="geometry" />
        </mxCell>
        <mxCell id="YjlkulxEwpre25UKWRn1-40" value="&lt;u&gt;SubjectId&lt;/u&gt;" style="rounded=0;whiteSpace=wrap;html=1;" parent="YjlkulxEwpre25UKWRn1-1" vertex="1">
          <mxGeometry x="120" y="500" width="120" height="30" as="geometry" />
        </mxCell>
        <mxCell id="YjlkulxEwpre25UKWRn1-41" style="edgeStyle=orthogonalEdgeStyle;rounded=1;orthogonalLoop=1;jettySize=auto;html=1;exitX=0.25;exitY=1;exitDx=0;exitDy=0;entryX=0.75;entryY=0;entryDx=0;entryDy=0;" parent="YjlkulxEwpre25UKWRn1-1" source="YjlkulxEwpre25UKWRn1-42" target="YjlkulxEwpre25UKWRn1-44" edge="1">
          <mxGeometry relative="1" as="geometry" />
        </mxCell>
        <mxCell id="YjlkulxEwpre25UKWRn1-42" value="DoctorId" style="rounded=0;whiteSpace=wrap;html=1;" parent="YjlkulxEwpre25UKWRn1-1" vertex="1">
          <mxGeometry x="240" y="500" width="120" height="30" as="geometry" />
        </mxCell>
        <mxCell id="YjlkulxEwpre25UKWRn1-43" value="&lt;b&gt;&lt;font style=&quot;font-size: 16px;&quot;&gt;Doctor&lt;/font&gt;&lt;/b&gt;" style="text;html=1;align=left;verticalAlign=middle;whiteSpace=wrap;rounded=0;" parent="YjlkulxEwpre25UKWRn1-1" vertex="1">
          <mxGeometry y="560" width="80" height="30" as="geometry" />
        </mxCell>
        <mxCell id="YjlkulxEwpre25UKWRn1-44" value="&lt;u&gt;Id&lt;/u&gt;" style="rounded=0;whiteSpace=wrap;html=1;" parent="YjlkulxEwpre25UKWRn1-1" vertex="1">
          <mxGeometry y="590" width="120" height="30" as="geometry" />
        </mxCell>
        <mxCell id="YjlkulxEwpre25UKWRn1-45" value="name" style="rounded=0;whiteSpace=wrap;html=1;" parent="YjlkulxEwpre25UKWRn1-1" vertex="1">
          <mxGeometry x="120" y="590" width="120" height="30" as="geometry" />
        </mxCell>
        <mxCell id="YjlkulxEwpre25UKWRn1-46" value="phoneNumber" style="rounded=0;whiteSpace=wrap;html=1;" parent="YjlkulxEwpre25UKWRn1-1" vertex="1">
          <mxGeometry x="240" y="590" width="120" height="30" as="geometry" />
        </mxCell>
        <mxCell id="YjlkulxEwpre25UKWRn1-47" value="birthDate" style="rounded=0;whiteSpace=wrap;html=1;" parent="YjlkulxEwpre25UKWRn1-1" vertex="1">
          <mxGeometry x="360" y="590" width="120" height="30" as="geometry" />
        </mxCell>
        <mxCell id="YjlkulxEwpre25UKWRn1-48" value="GraduatYear" style="rounded=0;whiteSpace=wrap;html=1;" parent="YjlkulxEwpre25UKWRn1-1" vertex="1">
          <mxGeometry x="480" y="590" width="120" height="30" as="geometry" />
        </mxCell>
        <mxCell id="YjlkulxEwpre25UKWRn1-49" value="experienceYears" style="rounded=0;whiteSpace=wrap;html=1;" parent="YjlkulxEwpre25UKWRn1-1" vertex="1">
          <mxGeometry x="600" y="590" width="120" height="30" as="geometry" />
        </mxCell>
      </root>
    </mxGraphModel>
  </diagram>
</mxfile>
